<svg version="1.1" viewBox="0.0 0.0 960.0 224.64041994750656" fill="none" stroke="none" stroke-linecap="square" stroke-miterlimit="10" xmlns:xlink="http://www.w3.org/1999/xlink" xmlns="http://www.w3.org/2000/svg"><clipPath id="p.0"><path d="m0 0l960.0 0l0 224.64043l-960.0 0l0 -224.64043z" clip-rule="nonzero"/></clipPath><g clip-path="url(#p.0)"><path fill="#000000" fill-opacity="0.0" d="m0 0l960.0 0l0 224.64043l-960.0 0z" fill-rule="evenodd"/><path fill="#000000" fill-opacity="0.0" d="m0 0l960.0 0l0 224.62993l-960.0 0z" fill-rule="evenodd"/><path fill="#666666" d="m70.561035 206.55557l0 0l0 -24.640625l55.03125 0q0 0 0 0q0 0 0 0l0 -12.0l-46.390625 0q-6.40625 0 -11.6875 -3.203125q-5.28125 -3.203125 -8.484375 -8.46875q-3.1875 -5.28125 -3.1875 -11.53125l0 -46.390625q0 -6.25 3.1875 -11.53125q3.203125 -5.28125 8.484375 -8.46875q5.28125 -3.203125 11.6875 -3.203125l47.671875 0q6.40625 0 11.6875 3.203125q5.28125 3.1875 8.390625 8.46875q3.125 5.28125 3.125 11.53125l0 83.03125q0 6.40625 -3.125 11.6875q-3.109375 5.28125 -8.390625 8.390625q-5.28125 3.125 -11.6875 3.125l-56.3125 0zm9.765625 -61.125l45.265625 0q0 0 0 0q0 0 0 0l0 -43.828125q0 0 0 0q0 0 0 0l-45.265625 0q0 0 0 0q0 0 0 0l0 43.828125q0 0 0 0q0 0 0 0zm82.545685 24.484375l0 0l0 -69.59375q0 -6.25 3.203125 -11.53125q3.203125 -5.28125 8.484375 -8.46875q5.28125 -3.203125 11.6875 -3.203125l51.1875 0l0 24.484375l-50.078125 0q0 0 0 0q0 0 0 0l0 68.3125l-24.484375 0zm110.56317 0q-6.390625 0 -11.671875 -3.203125q-5.28125 -3.203125 -8.40625 -8.46875q-3.125 -5.28125 -3.125 -11.53125l0 -35.515625l69.609375 0l0 -9.59375q0 0 0 0q0 0 0 0l-69.609375 0l0 -24.484375l70.890625 0q6.390625 0 11.671875 3.203125q5.28125 3.1875 8.40625 8.46875q3.125 5.28125 3.125 11.53125l0 69.59375l-70.890625 0zm1.28125 -24.484375l45.125 0l0 -12.796875l-45.125 0l0 12.796875q0 0 0 0q0 0 0 0zm82.243805 24.484375l0 0l0 -123.203125l24.484375 0l0 30.40625l46.390625 0q6.40625 0 11.6875 3.203125q5.28125 3.1875 8.390625 8.46875q3.125 5.28125 3.125 11.53125l0 46.390625q0 6.25 -3.125 11.53125q-3.109375 5.265625 -8.390625 8.46875q-5.28125 3.203125 -11.6875 3.203125l-70.875 0zm24.484375 -24.484375l45.109375 0q0 0 0 0q0 0 0 0l0 -43.828125q0 0 0 0q0 0 0 0l-45.109375 0q0 0 0 0q0 0 0 0l0 43.828125q0 0 0 0q0 0 0 0zm103.51068 24.484375q-6.390625 0 -11.671875 -3.203125q-5.28125 -3.203125 -8.40625 -8.46875q-3.125 -5.28125 -3.125 -11.53125l0 -35.515625l69.609375 0l0 -9.59375q0 0 0 0q0 0 0 0l-69.609375 0l0 -24.484375l70.890625 0q6.390625 0 11.671875 3.203125q5.28125 3.1875 8.40625 8.46875q3.125 5.28125 3.125 11.53125l0 69.59375l-70.890625 0zm1.28125 -24.484375l45.125 0l0 -12.796875l-45.125 0l0 12.796875q0 0 0 0q0 0 0 0z" fill-rule="nonzero"/><path fill="#80cc28" d="m573.60504 169.91495l0 -115.203125l24.953125 0l0 45.125l22.5625 0l37.765625 -45.125l25.90625 0l0 8.640625l-41.109375 48.96875l41.109375 48.953125l0 8.640625l-25.90625 0l-37.765625 -45.125l-22.5625 0l0 45.125l-24.953125 0zm149.75446 0q-6.234375 0 -11.515625 -3.203125q-5.28125 -3.203125 -8.484375 -8.46875q-3.203125 -5.28125 -3.203125 -11.53125l0 -46.390625q0 -6.25 3.203125 -11.53125q3.203125 -5.28125 8.484375 -8.46875q5.28125 -3.203125 11.515625 -3.203125l47.6875 0q6.390625 0 11.671875 3.203125q5.28125 3.1875 8.390625 8.46875q3.125 5.28125 3.125 11.53125l0 35.515625l-69.59375 0l0 9.59375q0 0 0 0q0 0 0 0l69.59375 0l0 24.484375l-70.875 0l0 0zm1.28125 -55.515625l45.125 0l0 -12.796875q0 0 0 0q0 0 0 0l-45.125 0q0 0 0 0q0 0 0 0l0 12.796875zm97.91693 88.796875l0 0l0 -24.640625l55.046875 0q0 0 0 0q0 0 0 0l0 -8.640625l-46.40625 0q-6.390625 0 -11.671875 -3.203125q-5.28125 -3.203125 -8.484375 -8.46875q-3.203125 -5.28125 -3.203125 -11.53125l0 -69.28125l24.484375 0l0 68.0q0 0 0 0q0 0 0 0l45.28125 0q0 0 0 0q0 0 0 0l0 -68.0l24.46875 0l0 102.5625q0 6.40625 -3.125 11.6875q-3.109375 5.28125 -8.390625 8.390625q-5.28125 3.125 -11.671875 3.125l-56.328125 0z" fill-rule="nonzero"/></g></svg>