<svg version="1.1" viewBox="0.0 0.0 960.0 224.64041994750656" fill="none" stroke="none" stroke-linecap="square" stroke-miterlimit="10" xmlns:xlink="http://www.w3.org/1999/xlink" xmlns="http://www.w3.org/2000/svg"><clipPath id="g252bf09ed8f_1_0.0"><path d="m0 0l960.0 0l0 224.64043l-960.0 0l0 -224.64043z" clip-rule="nonzero"/></clipPath><g clip-path="url(#g252bf09ed8f_1_0.0)"><path fill="#000000" fill-opacity="0.0" d="m0 0l960.0 0l0 224.64043l-960.0 0z" fill-rule="evenodd"/><path fill="#000000" fill-opacity="0.0" d="m0 0l960.0 0l0 150.3622l-960.0 0z" fill-rule="evenodd"/><path fill="#666666" d="m169.52551 153.26126l0 0l0 -18.6875l41.734375 0q0 0 0 0q0 0 0 0l0 -9.093758l-35.1875 0q-4.859375 0 -8.859375 -2.421875q-4.0 -2.4375 -6.4375 -6.4375q-2.421875 -4.0 -2.421875 -8.734375l0 -35.1875q0 -4.734375 2.421875 -8.734375q2.4375 -4.0 6.4375 -6.421875q4.0 -2.4375 8.859375 -2.4375l36.15625 0q4.859375 0 8.859375 2.4375q4.0 2.421875 6.359375 6.421875q2.375 4.0 2.375 8.734375l0 62.968758q0 4.859375 -2.375 8.859375q-2.359375 4.0 -6.359375 6.359375q-4.0 2.375 -8.859375 2.375l-42.703125 0zm7.390625 -46.343758l34.34375 0q0 0 0 0q0 0 0 0l0 -33.25q0 0 0 0q0 0 0 0l-34.34375 0q0 0 0 0q0 0 0 0l0 33.25q0 0 0 0q0 0 0 0zm62.615005 18.5625l0 0l0 -52.78125q0 -4.734375 2.421875 -8.734375q2.421875 -4.0 6.421875 -6.421875q4.015625 -2.4375 8.85936 -2.4375l38.828125 0l0 18.5625l-37.96875 0q0 0 0 0q0 0 0 0l0 51.8125l-18.562485 0zm83.839005 0q-4.859375 0 -8.859375 -2.421875q-4.0 -2.4375 -6.375 -6.4375q-2.359375 -4.0 -2.359375 -8.734375l0 -26.9375l52.78125 0l0 -7.28125q0 0 0 0q0 0 0 0l-52.78125 0l0 -18.5625l53.75 0q4.84375 0 8.84375 2.4375q4.015625 2.421875 6.375 6.421875q2.375 4.0 2.375 8.734375l0 52.78125l-53.75 0zm0.96875 -18.5625l34.21875 0l0 -9.703125l-34.21875 0l0 9.703125q0 0 0 0q0 0 0 0zm62.35489 18.5625l0 0l0 -93.421875l18.5625 0l0 23.046875l35.1875 0q4.859375 0 8.859375 2.4375q4.0 2.421875 6.359375 6.421875q2.375 4.0 2.375 8.734375l0 35.1875q0 4.734375 -2.375 8.734375q-2.359375 4.0 -6.359375 6.4375q-4.0 2.421875 -8.859375 2.421875l-53.75 0zm18.5625 -18.5625l34.21875 0q0 0 0 0q0 0 0 0l0 -33.25q0 0 0 0q0 0 0 0l-34.21875 0q0 0 0 0q0 0 0 0l0 33.25q0 0 0 0q0 0 0 0zm78.5094 18.5625q-4.859375 0 -8.859375 -2.421875q-4.0 -2.4375 -6.375 -6.4375q-2.359375 -4.0 -2.359375 -8.734375l0 -26.9375l52.78125 0l0 -7.28125q0 0 0 0q0 0 0 0l-52.78125 0l0 -18.5625l53.75 0q4.84375 0 8.84375 2.4375q4.015625 2.421875 6.375 6.421875q2.375 4.0 2.375 8.734375l0 52.78125l-53.75 0zm0.96875 -18.5625l34.21875 0l0 -9.703125l-34.21875 0l0 9.703125q0 0 0 0q0 0 0 0z" fill-rule="nonzero"/><path fill="#80cc28" d="m550.98303 125.48l0 -87.359375l18.921875 0l0 34.21875l17.109375 0l28.625 -34.21875l19.65625 0l0 6.5625l-31.171875 37.125l31.171875 37.125l0 6.546875l-19.65625 0l-28.625 -34.21875l-17.109375 0l0 34.21875l-18.921875 0zm113.55786 0q-4.734375 0 -8.734375 -2.421875q-4.0 -2.4375 -6.4375 -6.4375q-2.421875 -4.0 -2.421875 -8.734375l0 -35.1875q0 -4.734375 2.421875 -8.734375q2.4375 -4.0 6.4375 -6.421875q4.0 -2.4375 8.734375 -2.4375l36.15625 0q4.859375 0 8.859375 2.4375q4.0 2.421875 6.359375 6.421875q2.375 4.0 2.375 8.734375l0 26.9375l-52.78125 0l0 7.28125q0 0 0 0q0 0 0 0l52.78125 0l0 18.5625l-53.75 0l0 0zm0.96875 -42.09375l34.21875 0l0 -9.71875q0 0 0 0q0 0 0 0l-34.21875 0q0 0 0 0q0 0 0 0l0 9.71875zm74.26135 67.32813l0 0l0 -18.6875l41.734375 0q0 0 0 0q0 0 0 0l0 -6.5468826l-35.1875 0q-4.859375 0 -8.859375 -2.421875q-4.0 -2.4375 -6.4375 -6.4375q-2.421875 -4.0 -2.421875 -8.734375l0 -52.53125l18.5625 0l0 51.5625q0 0 0 0q0 0 0 0l34.34375 0q0 0 0 0q0 0 0 0l0 -51.5625l18.5625 0l0 77.76563q0 4.859375 -2.375 8.859375q-2.359375 4.0 -6.375 6.359375q-4.0 2.375 -8.84375 2.375l-42.703125 0z" fill-rule="nonzero"/><path fill="#000000" fill-opacity="0.0" d="m0 161.61679l960.0 0l0 63.023636l-960.0 0z" fill-rule="evenodd"/><path fill="#666666" d="m159.76205 204.30792q-3.875 0 -6.859375 -1.703125q-2.96875 -1.703125 -4.6875 -4.703125q-1.703125 -3.0 -1.703125 -6.890625q0 -3.9375 1.703125 -6.9375q1.71875 -3.0 4.6875 -4.703125q2.984375 -1.703125 6.859375 -1.703125q3.84375 0 6.8125 1.703125q2.984375 1.703125 4.6875 4.703125q1.703125 3.0 1.703125 6.9375q0 3.890625 -1.6875 6.890625q-1.671875 3.0 -4.65625 4.703125q-2.96875 1.703125 -6.859375 1.703125zm0 -4.3125q2.5 0 4.421875 -1.15625q1.921875 -1.15625 3.0 -3.171875q1.078125 -2.015625 1.078125 -4.65625q0 -2.640625 -1.078125 -4.671875q-1.078125 -2.046875 -3.0 -3.1875q-1.921875 -1.15625 -4.421875 -1.15625q-2.484375 0 -4.40625 1.15625q-1.921875 1.140625 -3.03125 3.1875q-1.09375 2.03125 -1.09375 4.671875q0 2.640625 1.09375 4.65625q1.109375 2.015625 3.03125 3.171875q1.921875 1.15625 4.40625 1.15625zm22.946945 15.359375q-1.046875 0 -1.75 -0.703125q-0.703125 -0.6875 -0.703125 -1.75l0 -21.890625q0.0625 -3.78125 1.78125 -6.796875q1.734375 -3.03125 4.703125 -4.78125q2.984375 -1.765625 6.71875 -1.765625q3.796875 0 6.765625 1.765625q2.984375 1.75 4.734375 4.78125q1.75 3.015625 1.75 6.796875q0 3.796875 -1.609375 6.796875q-1.609375 3.0 -4.390625 4.75q-2.78125 1.75 -6.28125 1.75q-2.84375 0 -5.21875 -1.171875q-2.375 -1.171875 -4.046875 -3.1875l0 12.953125q0 1.0625 -0.671875 1.75q-0.671875 0.703125 -1.78125 0.703125zm10.75 -15.359375q2.453125 0 4.375 -1.171875q1.921875 -1.1875 3.046875 -3.21875q1.125 -2.046875 1.125 -4.59375q0 -2.59375 -1.125 -4.625q-1.125 -2.046875 -3.046875 -3.21875q-1.921875 -1.171875 -4.375 -1.171875q-2.390625 0 -4.34375 1.171875q-1.9375 1.171875 -3.046875 3.21875q-1.09375 2.03125 -1.09375 4.625q0 2.546875 1.09375 4.59375q1.109375 2.03125 3.046875 3.21875q1.953125 1.171875 4.34375 1.171875zm32.88469 4.3125q-3.984375 0 -7.078125 -1.703125q-3.09375 -1.703125 -4.859375 -4.703125q-1.75 -3.0 -1.75 -6.890625q0 -3.9375 1.65625 -6.9375q1.65625 -3.0 4.578125 -4.703125q2.9375 -1.703125 6.734375 -1.703125q3.75 0 6.4375 1.65625q2.6875 1.65625 4.09375 4.5625q1.421875 2.90625 1.421875 6.703125q0 0.90625 -0.625 1.515625q-0.625 0.59375 -1.578125 0.59375l-19.34375 0l0 -3.84375l19.1875 0l-1.96875 1.34375q-0.046875 -2.390625 -0.953125 -4.28125q-0.90625 -1.90625 -2.59375 -3.0q-1.671875 -1.109375 -4.078125 -1.109375q-2.734375 0 -4.6875 1.203125q-1.9375 1.1875 -2.953125 3.28125q-1.0 2.078125 -1.0 4.71875q0 2.640625 1.203125 4.703125q1.203125 2.0625 3.3125 3.265625q2.109375 1.203125 4.84375 1.203125q1.484375 0 3.046875 -0.546875q1.5625 -0.5625 2.515625 -1.28125q0.71875 -0.515625 1.5625 -0.546875q0.84375 -0.03125 1.46875 0.5q0.8125 0.71875 0.859375 1.59375q0.046875 0.859375 -0.765625 1.484375q-1.625 1.296875 -4.0625 2.109375q-2.421875 0.8125 -4.625 0.8125zm39.651794 -0.140625q-1.0625 0 -1.765625 -0.6875q-0.6875 -0.703125 -0.6875 -1.765625l0 -11.796875q0 -2.734375 -1.015625 -4.46875q-1.0 -1.734375 -2.703125 -2.5625q-1.703125 -0.84375 -3.9062347 -0.84375q-2.015625 0 -3.65625 0.8125q-1.625 0.8125 -2.59375 2.1875q-0.953125 1.359375 -0.953125 3.140625l-3.03125 0q0 -3.015625 1.46875 -5.390625q1.46875 -2.390625 4.0 -3.78125q2.546875 -1.390625 5.7187347 -1.390625q3.3125 0 5.921875 1.421875q2.625 1.421875 4.125 4.15625q1.515625 2.734375 1.515625 6.71875l0 11.796875q0 1.0625 -0.703125 1.765625q-0.6875 0.6875 -1.734375 0.6875zm-19.73436 0q-1.046875 0 -1.75 -0.6875q-0.703125 -0.703125 -0.703125 -1.765625l0 -21.40625q0 -1.09375 0.703125 -1.765625q0.703125 -0.671875 1.75 -0.671875q1.109375 0 1.78125 0.671875q0.671875 0.671875 0.671875 1.765625l0 21.40625q0 1.0625 -0.671875 1.765625q-0.671875 0.6875 -1.78125 0.6875zm46.800095 11.1875q-1.046875 0 -1.75 -0.703125q-0.703125 -0.6875 -0.703125 -1.75l0 -21.890625q0.0625 -3.78125 1.78125 -6.796875q1.734375 -3.03125 4.703125 -4.78125q2.984375 -1.765625 6.71875 -1.765625q3.796875 0 6.765625 1.765625q2.984375 1.75 4.734375 4.78125q1.75 3.015625 1.75 6.796875q0 3.796875 -1.609375 6.796875q-1.609375 3.0 -4.390625 4.75q-2.78125 1.75 -6.28125 1.75q-2.84375 0 -5.21875 -1.171875q-2.375 -1.171875 -4.046875 -3.1875l0 12.953125q0 1.0625 -0.671875 1.75q-0.671875 0.703125 -1.78125 0.703125zm10.75 -15.359375q2.453125 0 4.375 -1.171875q1.921875 -1.1875 3.046875 -3.21875q1.125 -2.046875 1.125 -4.59375q0 -2.59375 -1.125 -4.625q-1.125 -2.046875 -3.046875 -3.21875q-1.921875 -1.171875 -4.375 -1.171875q-2.390625 0 -4.34375 1.171875q-1.9375 1.171875 -3.046875 3.21875q-1.09375 2.03125 -1.09375 4.625q0 2.546875 1.09375 4.59375q1.109375 2.03125 3.046875 3.21875q1.953125 1.171875 4.34375 1.171875zm31.58783 4.359375q-3.3125 0 -5.9375 -1.40625q-2.609375 -1.421875 -4.125 -4.15625q-1.5 -2.734375 -1.5 -6.71875l0 -11.8125q0 -1.046875 0.6875 -1.734375q0.703125 -0.703125 1.75 -0.703125q1.0625 0 1.75 0.703125q0.703125 0.6875 0.703125 1.734375l0 11.8125q0 2.6875 1.0 4.4375q1.015625 1.75 2.734375 2.59375q1.734375 0.84375 3.890625 0.84375q2.078125 0 3.671875 -0.8125q1.609375 -0.828125 2.5625 -2.21875q0.96875 -1.390625 0.96875 -3.109375l3.03125 0q0 2.96875 -1.46875 5.375q-1.46875 2.390625 -3.984375 3.78125q-2.515625 1.390625 -5.734375 1.390625zm10.609375 -0.234375q-1.0625 0 -1.765625 -0.6875q-0.6875 -0.703125 -0.6875 -1.765625l0 -21.40625q0 -1.09375 0.6875 -1.765625q0.703125 -0.671875 1.765625 -0.671875q1.109375 0 1.78125 0.671875q0.671875 0.671875 0.671875 1.765625l0 21.40625q0 1.0625 -0.671875 1.765625q-0.671875 0.6875 -1.78125 0.6875zm24.282928 0.1875q-3.734375 0 -6.71875 -1.75q-2.96875 -1.75 -4.703125 -4.765625q-1.71875 -3.03125 -1.78125 -6.828125l0 -21.890625q0 -1.09375 0.703125 -1.765625q0.703125 -0.671875 1.75 -0.671875q1.109375 0 1.78125 0.671875q0.671875 0.671875 0.671875 1.765625l0 12.96875q1.671875 -2.015625 4.046875 -3.1875q2.375 -1.1875 5.21875 -1.1875q3.5 0 6.28125 1.765625q2.78125 1.75 4.390625 4.75q1.609375 3.0 1.609375 6.78125q0 3.796875 -1.75 6.828125q-1.75 3.015625 -4.734375 4.765625q-2.96875 1.75 -6.765625 1.75zm0 -4.3125q2.453125 0 4.375 -1.171875q1.921875 -1.1875 3.046875 -3.25q1.125 -2.0625 1.125 -4.609375q0 -2.59375 -1.125 -4.609375q-1.125 -2.015625 -3.046875 -3.1875q-1.921875 -1.171875 -4.375 -1.171875q-2.390625 0 -4.34375 1.171875q-1.9375 1.171875 -3.046875 3.1875q-1.09375 2.015625 -1.09375 4.609375q0 2.546875 1.09375 4.609375q1.109375 2.0625 3.046875 3.25q1.953125 1.171875 4.34375 1.171875zm26.790924 4.125q-2.109375 0 -3.75 -1.140625q-1.625 -1.15625 -2.546875 -3.140625q-0.90625 -2.0 -0.90625 -4.59375l0 -26.21875q0 -1.046875 0.671875 -1.71875q0.671875 -0.671875 1.734375 -0.671875q1.046875 0 1.71875 0.671875q0.671875 0.671875 0.671875 1.71875l0 26.21875q0 1.765625 0.671875 2.921875q0.671875 1.15625 1.734375 1.15625l1.203125 0q0.953125 0 1.546875 0.671875q0.609375 0.671875 0.609375 1.71875q0 1.0625 -0.921875 1.734375q-0.90625 0.671875 -2.34375 0.671875l-0.09375 0zm11.087555 0q-1.0625 0 -1.765625 -0.6875q-0.6875 -0.703125 -0.6875 -1.765625l0 -21.359375q0 -1.09375 0.6875 -1.765625q0.703125 -0.671875 1.765625 -0.671875q1.109375 0 1.78125 0.671875q0.671875 0.671875 0.671875 1.765625l0 21.359375q0 1.0625 -0.671875 1.765625q-0.671875 0.6875 -1.78125 0.6875zm0 -30.53125q-1.296875 0 -2.234375 -0.9375q-0.9375 -0.9375 -0.9375 -2.234375q0 -1.28125 0.9375 -2.21875q0.9375 -0.9375 2.234375 -0.9375q1.28125 0 2.21875 0.9375q0.9375 0.9375 0.9375 2.21875q0 1.296875 -0.9375 2.234375q-0.9375 0.9375 -2.21875 0.9375zm23.464783 30.71875q-3.828125 0 -6.828125 -1.75q-3.0 -1.75 -4.71875 -4.75q-1.703125 -3.0 -1.703125 -6.796875q0 -3.875 1.6875 -6.90625q1.6875 -3.03125 4.609375 -4.734375q2.921875 -1.703125 6.71875 -1.703125q2.828125 0 5.171875 1.09375q2.359375 1.078125 4.234375 3.234375q0.671875 0.765625 0.484375 1.578125q-0.1875 0.8125 -1.0625 1.4375q-0.671875 0.484375 -1.484375 0.328125q-0.8125 -0.171875 -1.484375 -0.84375q-2.359375 -2.5 -5.859375 -2.5q-2.453125 0 -4.328125 1.125q-1.859375 1.125 -2.921875 3.140625q-1.046875 2.015625 -1.046875 4.75q0 2.59375 1.078125 4.609375q1.078125 2.015625 3.0 3.203125q1.921875 1.171875 4.453125 1.171875q1.6875 0 2.953125 -0.40625q1.28125 -0.40625 2.328125 -1.28125q0.765625 -0.625 1.578125 -0.6875q0.828125 -0.078125 1.453125 0.453125q0.8125 0.671875 0.90625 1.515625q0.09375 0.828125 -0.578125 1.5q-3.453125 3.21875 -8.640625 3.21875zm16.801178 -10.890625q-1.046875 0 -1.75 -0.671875q-0.6875 -0.671875 -0.6875 -1.734375q0 -1.09375 0.6875 -1.765625q0.703125 -0.671875 1.75 -0.671875l10.703125 0q1.0625 0 1.734375 0.671875q0.671875 0.671875 0.671875 1.765625q0 1.0625 -0.671875 1.734375q-0.671875 0.671875 -1.734375 0.671875l-10.703125 0zm23.518036 1.109375l-2.96875 -3.265625l14.734375 -13.15625q0.71875 -0.671875 1.609375 -0.625q0.890625 0.046875 1.515625 0.765625q0.671875 0.71875 0.625 1.59375q-0.046875 0.859375 -0.78125 1.53125l-14.734375 13.15625zm-2.25 9.59375q-1.0625 0 -1.71875 -0.640625q-0.640625 -0.65625 -0.640625 -1.71875l0 -32.78125q0 -1.046875 0.640625 -1.6875q0.65625 -0.65625 1.71875 -0.65625q1.0625 0 1.703125 0.65625q0.65625 0.640625 0.65625 1.6875l0 32.78125q0 1.0625 -0.65625 1.71875q-0.640625 0.640625 -1.703125 0.640625zm17.140625 -0.234375q-0.765625 0.625 -1.703125 0.546875q-0.9375 -0.078125 -1.5625 -0.84375l-9.75 -12.046875l3.359375 -3.171875l9.984375 12.296875q0.625 0.765625 0.546875 1.65625q-0.0625 0.890625 -0.875 1.5625zm17.755798 0.421875q-3.984375 0 -7.078125 -1.703125q-3.09375 -1.703125 -4.859375 -4.703125q-1.75 -3.0 -1.75 -6.890625q0 -3.9375 1.65625 -6.9375q1.65625 -3.0 4.578125 -4.703125q2.9375 -1.703125 6.734375 -1.703125q3.75 0 6.4375 1.65625q2.6874695 1.65625 4.0937195 4.5625q1.421875 2.90625 1.421875 6.703125q0 0.90625 -0.625 1.515625q-0.625 0.59375 -1.578125 0.59375l-19.34372 0l0 -3.84375l19.18747 0l-1.9687195 1.34375q-0.046875 -2.390625 -0.953125 -4.28125q-0.90625 -1.90625 -2.59375 -3.0q-1.671875 -1.109375 -4.078125 -1.109375q-2.734375 0 -4.6875 1.203125q-1.9375 1.1875 -2.953125 3.28125q-1.0 2.078125 -1.0 4.71875q0 2.640625 1.203125 4.703125q1.203125 2.0625 3.3125 3.265625q2.109375 1.203125 4.84375 1.203125q1.484375 0 3.046875 -0.546875q1.5625 -0.5625 2.515625 -1.28125q0.71875 -0.515625 1.5625 -0.546875q0.8437195 -0.03125 1.4687195 0.5q0.8125 0.71875 0.859375 1.59375q0.046875 0.859375 -0.765625 1.484375q-1.6249695 1.296875 -4.0624695 2.109375q-2.421875 0.8125 -4.625 0.8125zm22.183075 11.328125q-0.484375 0 -1.15625 -0.28125q-2.109375 -0.96875 -1.15625 -3.03125l14.640625 -33.0625q0.953125 -2.015625 3.03125 -1.15625q2.15625 0.90625 1.1875 3.03125l-14.6875 33.015625q-0.578125 1.484375 -1.859375 1.484375zm5.65625 -12.578125q-0.90625 0.390625 -1.703125 0.078125q-0.796875 -0.3125 -1.265625 -1.21875l-11.0 -20.890625q-0.484375 -0.90625 -0.125 -1.75q0.359375 -0.84375 1.28125 -1.21875q0.90625 -0.390625 1.71875 -0.078125q0.828125 0.3125 1.25 1.234375l10.515625 20.875q0.484375 0.90625 0.359375 1.75q-0.125 0.84375 -1.03125 1.21875zm31.92041 -15.359375q0 -2.875 1.40625 -5.15625q1.421875 -2.28125 3.8125 -3.625q2.40625 -1.34375 5.296875 -1.34375q2.875 0 4.28125 0.9375q1.421875 0.9375 1.09375 2.234375q-0.140625 0.671875 -0.5625 1.03125q-0.40625 0.359375 -0.9375 0.453125q-0.515625 0.09375 -1.140625 -0.046875q-3.078125 -0.625 -5.53125 -0.09375q-2.4375 0.53125 -3.859375 1.96875q-1.40625 1.4375 -1.40625 3.640625l-2.453125 0zm0.046875 16.421875q-1.15625 0 -1.78125 -0.59375q-0.625 -0.609375 -0.625 -1.8125l0 -21.453125q0 -1.15625 0.625 -1.765625q0.625 -0.625 1.78125 -0.625q1.203125 0 1.796875 0.59375q0.609375 0.59375 0.609375 1.796875l0 21.453125q0 1.15625 -0.609375 1.78125q-0.59375 0.625 -1.796875 0.625zm31.345581 0.1875q-3.984375 0 -7.078125 -1.703125q-3.09375 -1.703125 -4.859375 -4.703125q-1.75 -3.0 -1.75 -6.890625q0 -3.9375 1.65625 -6.9375q1.65625 -3.0 4.578125 -4.703125q2.9375 -1.703125 6.734375 -1.703125q3.75 0 6.4375 1.65625q2.6875 1.65625 4.09375 4.5625q1.421875 2.90625 1.421875 6.703125q0 0.90625 -0.625 1.515625q-0.625 0.59375 -1.578125 0.59375l-19.34375 0l0 -3.84375l19.1875 0l-1.96875 1.34375q-0.046875 -2.390625 -0.953125 -4.28125q-0.90625 -1.90625 -2.59375 -3.0q-1.671875 -1.109375 -4.078125 -1.109375q-2.734375 0 -4.6875 1.203125q-1.9375 1.1875 -2.953125 3.28125q-1.0 2.078125 -1.0 4.71875q0 2.640625 1.203125 4.703125q1.203125 2.0625 3.3125 3.265625q2.109375 1.203125 4.84375 1.203125q1.484375 0 3.046875 -0.546875q1.5625 -0.5625 2.515625 -1.28125q0.71875 -0.515625 1.5625 -0.546875q0.84375 -0.03125 1.46875 0.5q0.8125 0.71875 0.859375 1.59375q0.046875 0.859375 -0.765625 1.484375q-1.625 1.296875 -4.0625 2.109375q-2.421875 0.8125 -4.625 0.8125zm19.917358 11.046875q-1.046875 0 -1.75 -0.703125q-0.703125 -0.6875 -0.703125 -1.75l0 -21.890625q0.0625 -3.78125 1.78125 -6.796875q1.734375 -3.03125 4.703125 -4.78125q2.984375 -1.765625 6.71875 -1.765625q3.796875 0 6.765625 1.765625q2.984375 1.75 4.734375 4.78125q1.75 3.015625 1.75 6.796875q0 3.796875 -1.609375 6.796875q-1.609375 3.0 -4.390625 4.75q-2.78125 1.75 -6.28125 1.75q-2.84375 0 -5.21875 -1.171875q-2.375 -1.171875 -4.046875 -3.1875l0 12.953125q0 1.0625 -0.671875 1.75q-0.671875 0.703125 -1.78125 0.703125zm10.75 -15.359375q2.453125 0 4.375 -1.171875q1.921875 -1.1875 3.046875 -3.21875q1.125 -2.046875 1.125 -4.59375q0 -2.59375 -1.125 -4.625q-1.125 -2.046875 -3.046875 -3.21875q-1.921875 -1.171875 -4.375 -1.171875q-2.390625 0 -4.34375 1.171875q-1.9375 1.171875 -3.046875 3.21875q-1.09375 2.03125 -1.09375 4.625q0 2.546875 1.09375 4.59375q1.109375 2.03125 3.046875 3.21875q1.953125 1.171875 4.34375 1.171875zm32.447266 4.3125q-3.875 0 -6.859375 -1.703125q-2.96875 -1.703125 -4.6875 -4.703125q-1.703125 -3.0 -1.703125 -6.890625q0 -3.9375 1.703125 -6.9375q1.71875 -3.0 4.6875 -4.703125q2.984375 -1.703125 6.859375 -1.703125q3.84375 0 6.8125 1.703125q2.984375 1.703125 4.6875 4.703125q1.703125 3.0 1.703125 6.9375q0 3.890625 -1.6875 6.890625q-1.671875 3.0 -4.65625 4.703125q-2.96875 1.703125 -6.859375 1.703125zm0 -4.3125q2.5 0 4.421875 -1.15625q1.921875 -1.15625 3.0 -3.171875q1.078125 -2.015625 1.078125 -4.65625q0 -2.640625 -1.078125 -4.671875q-1.078125 -2.046875 -3.0 -3.1875q-1.921875 -1.15625 -4.421875 -1.15625q-2.484375 0 -4.40625 1.15625q-1.921875 1.140625 -3.03125 3.1875q-1.09375 2.03125 -1.09375 4.671875q0 2.640625 1.09375 4.65625q1.109375 2.015625 3.03125 3.171875q1.921875 1.15625 4.40625 1.15625zm30.056274 4.3125q-3.359375 0 -6.21875 -1.03125q-2.859375 -1.03125 -4.4375 -2.609375q-0.71875 -0.765625 -0.609375 -1.75q0.125 -0.984375 0.9375 -1.609375q0.96875 -0.765625 1.90625 -0.640625q0.9375 0.109375 1.609375 0.828125q0.8125 0.90625 2.609375 1.703125q1.796875 0.796875 4.015625 0.796875q2.78125 0 4.234375 -0.90625q1.46875 -0.921875 1.515625 -2.359375q0.046875 -1.4375 -1.375 -2.484375q-1.40625 -1.0625 -5.15625 -1.734375q-4.84375 -0.96875 -7.03125 -2.890625q-2.171875 -1.921875 -2.171875 -4.703125q0 -2.4375 1.4375 -4.046875q1.4375 -1.609375 3.6875 -2.40625q2.265625 -0.796875 4.703125 -0.796875q3.171875 0 5.609375 1.015625q2.453125 1.0 3.90625 2.78125q0.671875 0.765625 0.609375 1.609375q-0.046875 0.84375 -0.8125 1.421875q-0.765625 0.515625 -1.828125 0.328125q-1.046875 -0.1875 -1.765625 -0.859375q-1.203125 -1.15625 -2.59375 -1.578125q-1.390625 -0.4375 -3.21875 -0.4375q-2.109375 0 -3.578125 0.71875q-1.453125 0.71875 -1.453125 2.109375q0 0.859375 0.453125 1.5625q0.453125 0.6875 1.796875 1.25q1.34375 0.546875 3.9375 1.078125q3.59375 0.71875 5.6875 1.828125q2.09375 1.09375 3.0 2.5625q0.90625 1.46875 0.90625 3.375q0 2.21875 -1.171875 4.0q-1.171875 1.765625 -3.453125 2.828125q-2.28125 1.046875 -5.6875 1.046875zm19.439087 -0.1875q-1.0625 0 -1.765625 -0.6875q-0.6875 -0.703125 -0.6875 -1.765625l0 -21.359375q0 -1.09375 0.6875 -1.765625q0.703125 -0.671875 1.765625 -0.671875q1.109375 0 1.78125 0.671875q0.671875 0.671875 0.671875 1.765625l0 21.359375q0 1.0625 -0.671875 1.765625q-0.671875 0.6875 -1.78125 0.6875zm0 -30.53125q-1.296875 0 -2.234375 -0.9375q-0.9375 -0.9375 -0.9375 -2.234375q0 -1.28125 0.9375 -2.21875q0.9375 -0.9375 2.234375 -0.9375q1.28125 0 2.21875 0.9375q0.9375 0.9375 0.9375 2.21875q0 1.296875 -0.9375 2.234375q-0.9375 0.9375 -2.21875 0.9375zm21.120972 30.53125q-2.40625 0 -4.328125 -1.21875q-1.921875 -1.234375 -3.03125 -3.34375q-1.09375 -2.109375 -1.09375 -4.75l0 -22.890625q0 -1.0625 0.671875 -1.734375q0.671875 -0.671875 1.734375 -0.671875q1.046875 0 1.71875 0.671875q0.671875 0.671875 0.671875 1.734375l0 22.890625q0 1.921875 1.0625 3.21875q1.0625 1.296875 2.59375 1.296875l1.625 0q0.875 0 1.46875 0.671875q0.59375 0.671875 0.59375 1.71875q0 1.0625 -0.796875 1.734375q-0.78125 0.671875 -2.03125 0.671875l-0.859375 0zm-10.65625 -21.171875q-1.015625 0 -1.640625 -0.5625q-0.625 -0.578125 -0.625 -1.453125q0 -0.953125 0.625 -1.53125q0.625 -0.578125 1.640625 -0.578125l11.078125 0q1.015625 0 1.640625 0.578125q0.625 0.578125 0.625 1.53125q0 0.875 -0.625 1.453125q-0.625 0.5625 -1.640625 0.5625l-11.078125 0zm32.248047 21.359375q-3.875 0 -6.859375 -1.703125q-2.96875 -1.703125 -4.6875 -4.703125q-1.703125 -3.0 -1.703125 -6.890625q0 -3.9375 1.703125 -6.9375q1.71875 -3.0 4.6875 -4.703125q2.984375 -1.703125 6.859375 -1.703125q3.84375 0 6.8125 1.703125q2.984375 1.703125 4.6875 4.703125q1.703125 3.0 1.703125 6.9375q0 3.890625 -1.6875 6.890625q-1.671875 3.0 -4.65625 4.703125q-2.96875 1.703125 -6.859375 1.703125zm0 -4.3125q2.5 0 4.421875 -1.15625q1.921875 -1.15625 3.0 -3.171875q1.078125 -2.015625 1.078125 -4.65625q0 -2.640625 -1.078125 -4.671875q-1.078125 -2.046875 -3.0 -3.1875q-1.921875 -1.15625 -4.421875 -1.15625q-2.484375 0 -4.40625 1.15625q-1.921875 1.140625 -3.03125 3.1875q-1.09375 2.03125 -1.09375 4.671875q0 2.640625 1.09375 4.65625q1.109375 2.015625 3.03125 3.171875q1.921875 1.15625 4.40625 1.15625zm22.853271 -12.296875q0 -2.875 1.40625 -5.15625q1.421875 -2.28125 3.8125 -3.625q2.40625 -1.34375 5.296875 -1.34375q2.875 0 4.28125 0.9375q1.421875 0.9375 1.09375 2.234375q-0.140625 0.671875 -0.5625 1.03125q-0.40625 0.359375 -0.9375 0.453125q-0.515625 0.09375 -1.140625 -0.046875q-3.078125 -0.625 -5.53125 -0.09375q-2.4375 0.53125 -3.859375 1.96875q-1.40625 1.4375 -1.40625 3.640625l-2.453125 0zm0.046875 16.421875q-1.15625 0 -1.78125 -0.59375q-0.625 -0.609375 -0.625 -1.8125l0 -21.453125q0 -1.15625 0.625 -1.765625q0.625 -0.625 1.78125 -0.625q1.203125 0 1.796875 0.59375q0.609375 0.59375 0.609375 1.796875l0 21.453125q0 1.15625 -0.609375 1.78125q-0.59375 0.625 -1.796875 0.625zm25.640503 11.515625q-0.484375 0 -1.15625 -0.28125q-2.109375 -0.96875 -1.15625 -3.03125l14.640625 -33.0625q0.953125 -2.015625 3.03125 -1.15625q2.15625 0.90625 1.1875 3.03125l-14.6875 33.015625q-0.578125 1.484375 -1.859375 1.484375zm5.65625 -12.578125q-0.90625 0.390625 -1.703125 0.078125q-0.796875 -0.3125 -1.265625 -1.21875l-11.0 -20.890625q-0.484375 -0.90625 -0.125 -1.75q0.359375 -0.84375 1.28125 -1.21875q0.90625 -0.390625 1.71875 -0.078125q0.828125 0.3125 1.25 1.234375l10.515625 20.875q0.484375 0.90625 0.359375 1.75q-0.125 0.84375 -1.03125 1.21875z" fill-rule="nonzero"/></g></svg>