<svg version="1.1" viewBox="0.0 0.0 864.0 192.0" fill="none" stroke="none" stroke-linecap="square" stroke-miterlimit="10" xmlns:xlink="http://www.w3.org/1999/xlink" xmlns="http://www.w3.org/2000/svg"><clipPath id="p.0"><path d="m0 0l864.0 0l0 192.0l-864.0 0l0 -192.0z" clip-rule="nonzero"/></clipPath><g clip-path="url(#p.0)"><path fill="#ffffff" d="m0 0l864.0 0l0 192.0l-864.0 0z" fill-rule="evenodd"/><path fill="#ffffff" d="m355.14294 115.89536l0 0c0 -2.693344 2.1834106 -4.8767395 4.8767395 -4.8767395l150.12054 0c1.293396 0 2.533844 0.5138016 3.4483948 1.4283676c0.9145508 0.91456604 1.4283447 2.1549835 1.4283447 3.448372l0 19.50637c0 2.693344 -2.1834106 4.8767395 -4.8767395 4.8767395l-150.12054 0c-2.6933289 0 -4.8767395 -2.1833954 -4.8767395 -4.8767395z" fill-rule="evenodd"/><path stroke="#595959" stroke-width="1.0" stroke-linejoin="round" stroke-linecap="butt" d="m355.14294 115.89536l0 0c0 -2.693344 2.1834106 -4.8767395 4.8767395 -4.8767395l150.12054 0c1.293396 0 2.533844 0.5138016 3.4483948 1.4283676c0.9145508 0.91456604 1.4283447 2.1549835 1.4283447 3.448372l0 19.50637c0 2.693344 -2.1834106 4.8767395 -4.8767395 4.8767395l-150.12054 0c-2.6933289 0 -4.8767395 -2.1833954 -4.8767395 -4.8767395z" fill-rule="evenodd"/><path fill="#000000" fill-opacity="0.0" d="m363.48822 125.53774l0 0c0 -2.6527023 2.1504517 -4.8031464 4.8031616 -4.8031464l0 0c1.2738647 0 2.495575 0.5060425 3.3963318 1.406807c0.90075684 0.90076447 1.4067993 2.122467 1.4067993 3.3963394l0 0c0 2.6527023 -2.1504211 4.803154 -4.803131 4.803154l0 0c-2.65271 0 -4.8031616 -2.1504517 -4.8031616 -4.803154z" fill-rule="evenodd"/><path stroke="#595959" stroke-width="1.0" stroke-linejoin="round" stroke-linecap="butt" d="m363.48822 125.53774l0 0c0 -2.6527023 2.1504517 -4.8031464 4.8031616 -4.8031464l0 0c1.2738647 0 2.495575 0.5060425 3.3963318 1.406807c0.90075684 0.90076447 1.4067993 2.122467 1.4067993 3.3963394l0 0c0 2.6527023 -2.1504211 4.803154 -4.803131 4.803154l0 0c-2.65271 0 -4.8031616 -2.1504517 -4.8031616 -4.803154z" fill-rule="evenodd"/><path fill="#000000" fill-opacity="0.0" d="m379.48822 125.53774l0 0c0 -2.6527023 2.1504517 -4.8031464 4.8031616 -4.8031464l0 0c1.2738647 0 2.495575 0.5060425 3.3963318 1.406807c0.90075684 0.90076447 1.4067993 2.122467 1.4067993 3.3963394l0 0c0 2.6527023 -2.1504211 4.803154 -4.803131 4.803154l0 0c-2.65271 0 -4.8031616 -2.1504517 -4.8031616 -4.803154z" fill-rule="evenodd"/><path stroke="#595959" stroke-width="1.0" stroke-linejoin="round" stroke-linecap="butt" d="m379.48822 125.53774l0 0c0 -2.6527023 2.1504517 -4.8031464 4.8031616 -4.8031464l0 0c1.2738647 0 2.495575 0.5060425 3.3963318 1.406807c0.90075684 0.90076447 1.4067993 2.122467 1.4067993 3.3963394l0 0c0 2.6527023 -2.1504211 4.803154 -4.803131 4.803154l0 0c-2.65271 0 -4.8031616 -2.1504517 -4.8031616 -4.803154z" fill-rule="evenodd"/><path fill="#000000" fill-opacity="0.0" d="m397.49103 125.53774l108.944885 0" fill-rule="evenodd"/><path stroke="#595959" stroke-width="1.0" stroke-linejoin="round" stroke-linecap="butt" d="m397.49103 125.53774l108.944885 0" fill-rule="evenodd"/><path fill="#ffffff" d="m347.14294 107.89536l0 0c0 -2.693344 2.1834106 -4.8767395 4.8767395 -4.8767395l150.12054 0c1.293396 0 2.5338135 0.5138016 3.4483948 1.4283676c0.9145508 0.91456604 1.4283447 2.1549835 1.4283447 3.448372l0 19.50637c0 2.693344 -2.1833801 4.8767395 -4.8767395 4.8767395l-150.12054 0c-2.6933289 0 -4.8767395 -2.1833954 -4.8767395 -4.8767395z" fill-rule="evenodd"/><path stroke="#595959" stroke-width="1.0" stroke-linejoin="round" stroke-linecap="butt" d="m347.14294 107.89536l0 0c0 -2.693344 2.1834106 -4.8767395 4.8767395 -4.8767395l150.12054 0c1.293396 0 2.5338135 0.5138016 3.4483948 1.4283676c0.9145508 0.91456604 1.4283447 2.1549835 1.4283447 3.448372l0 19.50637c0 2.693344 -2.1833801 4.8767395 -4.8767395 4.8767395l-150.12054 0c-2.6933289 0 -4.8767395 -2.1833954 -4.8767395 -4.8767395z" fill-rule="evenodd"/><path fill="#000000" fill-opacity="0.0" d="m355.48822 117.53774l0 0c0 -2.6527023 2.1504517 -4.8031464 4.8031616 -4.8031464l0 0c1.2738647 0 2.495575 0.5060425 3.3963318 1.406807c0.90075684 0.90076447 1.4067993 2.122467 1.4067993 3.3963394l0 0c0 2.65271 -2.1504211 4.803154 -4.803131 4.803154l0 0c-2.65271 0 -4.8031616 -2.150444 -4.8031616 -4.803154z" fill-rule="evenodd"/><path stroke="#595959" stroke-width="1.0" stroke-linejoin="round" stroke-linecap="butt" d="m355.48822 117.53774l0 0c0 -2.6527023 2.1504517 -4.8031464 4.8031616 -4.8031464l0 0c1.2738647 0 2.495575 0.5060425 3.3963318 1.406807c0.90075684 0.90076447 1.4067993 2.122467 1.4067993 3.3963394l0 0c0 2.65271 -2.1504211 4.803154 -4.803131 4.803154l0 0c-2.65271 0 -4.8031616 -2.150444 -4.8031616 -4.803154z" fill-rule="evenodd"/><path fill="#000000" fill-opacity="0.0" d="m371.48822 117.53774l0 0c0 -2.6527023 2.1504517 -4.8031464 4.8031616 -4.8031464l0 0c1.2738647 0 2.495575 0.5060425 3.3963318 1.406807c0.90075684 0.90076447 1.4067993 2.122467 1.4067993 3.3963394l0 0c0 2.65271 -2.1504211 4.803154 -4.803131 4.803154l0 0c-2.65271 0 -4.8031616 -2.150444 -4.8031616 -4.803154z" fill-rule="evenodd"/><path stroke="#595959" stroke-width="1.0" stroke-linejoin="round" stroke-linecap="butt" d="m371.48822 117.53774l0 0c0 -2.6527023 2.1504517 -4.8031464 4.8031616 -4.8031464l0 0c1.2738647 0 2.495575 0.5060425 3.3963318 1.406807c0.90075684 0.90076447 1.4067993 2.122467 1.4067993 3.3963394l0 0c0 2.65271 -2.1504211 4.803154 -4.803131 4.803154l0 0c-2.65271 0 -4.8031616 -2.150444 -4.8031616 -4.803154z" fill-rule="evenodd"/><path fill="#000000" fill-opacity="0.0" d="m389.49103 117.53774l108.944885 0" fill-rule="evenodd"/><path stroke="#595959" stroke-width="1.0" stroke-linejoin="round" stroke-linecap="butt" d="m389.49103 117.53774l108.944885 0" fill-rule="evenodd"/><path fill="#ffffff" d="m339.14294 99.89536l0 0c0 -2.693344 2.1834106 -4.8767395 4.8767395 -4.8767395l150.12054 0c1.293396 0 2.5338135 0.5138016 3.4483948 1.4283676c0.9145508 0.91456604 1.4283447 2.1549835 1.4283447 3.448372l0 19.50637c0 2.693344 -2.1833801 4.876732 -4.8767395 4.876732l-150.12054 0c-2.6933289 0 -4.8767395 -2.1833878 -4.8767395 -4.876732z" fill-rule="evenodd"/><path stroke="#595959" stroke-width="1.0" stroke-linejoin="round" stroke-linecap="butt" d="m339.14294 99.89536l0 0c0 -2.693344 2.1834106 -4.8767395 4.8767395 -4.8767395l150.12054 0c1.293396 0 2.5338135 0.5138016 3.4483948 1.4283676c0.9145508 0.91456604 1.4283447 2.1549835 1.4283447 3.448372l0 19.50637c0 2.693344 -2.1833801 4.876732 -4.8767395 4.876732l-150.12054 0c-2.6933289 0 -4.8767395 -2.1833878 -4.8767395 -4.876732z" fill-rule="evenodd"/><path fill="#000000" fill-opacity="0.0" d="m347.48822 109.53774l0 0c0 -2.6527023 2.1504517 -4.8031464 4.8031616 -4.8031464l0 0c1.2738647 0 2.495575 0.5060425 3.3963318 1.406807c0.90075684 0.90076447 1.4067993 2.122467 1.4067993 3.3963394l0 0c0 2.65271 -2.1504211 4.803154 -4.803131 4.803154l0 0c-2.65271 0 -4.8031616 -2.150444 -4.8031616 -4.803154z" fill-rule="evenodd"/><path stroke="#595959" stroke-width="1.0" stroke-linejoin="round" stroke-linecap="butt" d="m347.48822 109.53774l0 0c0 -2.6527023 2.1504517 -4.8031464 4.8031616 -4.8031464l0 0c1.2738647 0 2.495575 0.5060425 3.3963318 1.406807c0.90075684 0.90076447 1.4067993 2.122467 1.4067993 3.3963394l0 0c0 2.65271 -2.1504211 4.803154 -4.803131 4.803154l0 0c-2.65271 0 -4.8031616 -2.150444 -4.8031616 -4.803154z" fill-rule="evenodd"/><path fill="#000000" fill-opacity="0.0" d="m363.48822 109.53774l0 0c0 -2.6527023 2.1504517 -4.8031464 4.8031616 -4.8031464l0 0c1.2738647 0 2.495575 0.5060425 3.3963318 1.406807c0.90075684 0.90076447 1.4067993 2.122467 1.4067993 3.3963394l0 0c0 2.65271 -2.1504211 4.803154 -4.803131 4.803154l0 0c-2.65271 0 -4.8031616 -2.150444 -4.8031616 -4.803154z" fill-rule="evenodd"/><path stroke="#595959" stroke-width="1.0" stroke-linejoin="round" stroke-linecap="butt" d="m363.48822 109.53774l0 0c0 -2.6527023 2.1504517 -4.8031464 4.8031616 -4.8031464l0 0c1.2738647 0 2.495575 0.5060425 3.3963318 1.406807c0.90075684 0.90076447 1.4067993 2.122467 1.4067993 3.3963394l0 0c0 2.65271 -2.1504211 4.803154 -4.803131 4.803154l0 0c-2.65271 0 -4.8031616 -2.150444 -4.8031616 -4.803154z" fill-rule="evenodd"/><path fill="#000000" fill-opacity="0.0" d="m381.49103 109.53774l108.944885 0" fill-rule="evenodd"/><path stroke="#595959" stroke-width="1.0" stroke-linejoin="round" stroke-linecap="butt" d="m381.49103 109.53774l108.944885 0" fill-rule="evenodd"/><path fill="#ffffff" d="m331.14294 91.89536l0 0c0 -2.693344 2.1834106 -4.8767395 4.8767395 -4.8767395l150.12054 0c1.293396 0 2.5338135 0.5138016 3.4483948 1.4283676c0.9145508 0.91456604 1.4283447 2.1549835 1.4283447 3.448372l0 19.50637c0 2.693344 -2.1833801 4.876732 -4.8767395 4.876732l-150.12054 0c-2.6933289 0 -4.8767395 -2.1833878 -4.8767395 -4.876732z" fill-rule="evenodd"/><path stroke="#595959" stroke-width="1.0" stroke-linejoin="round" stroke-linecap="butt" d="m331.14294 91.89536l0 0c0 -2.693344 2.1834106 -4.8767395 4.8767395 -4.8767395l150.12054 0c1.293396 0 2.5338135 0.5138016 3.4483948 1.4283676c0.9145508 0.91456604 1.4283447 2.1549835 1.4283447 3.448372l0 19.50637c0 2.693344 -2.1833801 4.876732 -4.8767395 4.876732l-150.12054 0c-2.6933289 0 -4.8767395 -2.1833878 -4.8767395 -4.876732z" fill-rule="evenodd"/><path fill="#000000" fill-opacity="0.0" d="m339.48822 101.53774l0 0c0 -2.6527023 2.1504517 -4.8031464 4.8031616 -4.8031464l0 0c1.2738647 0 2.495575 0.5060425 3.3963318 1.406807c0.90075684 0.90076447 1.4067993 2.122467 1.4067993 3.3963394l0 0c0 2.65271 -2.1504211 4.803154 -4.803131 4.803154l0 0c-2.65271 0 -4.8031616 -2.150444 -4.8031616 -4.803154z" fill-rule="evenodd"/><path stroke="#595959" stroke-width="1.0" stroke-linejoin="round" stroke-linecap="butt" d="m339.48822 101.53774l0 0c0 -2.6527023 2.1504517 -4.8031464 4.8031616 -4.8031464l0 0c1.2738647 0 2.495575 0.5060425 3.3963318 1.406807c0.90075684 0.90076447 1.4067993 2.122467 1.4067993 3.3963394l0 0c0 2.65271 -2.1504211 4.803154 -4.803131 4.803154l0 0c-2.65271 0 -4.8031616 -2.150444 -4.8031616 -4.803154z" fill-rule="evenodd"/><path fill="#000000" fill-opacity="0.0" d="m355.48822 101.53774l0 0c0 -2.6527023 2.1504517 -4.8031464 4.8031616 -4.8031464l0 0c1.2738647 0 2.495575 0.5060425 3.3963318 1.406807c0.90075684 0.90076447 1.4067993 2.122467 1.4067993 3.3963394l0 0c0 2.65271 -2.1504211 4.803154 -4.803131 4.803154l0 0c-2.65271 0 -4.8031616 -2.150444 -4.8031616 -4.803154z" fill-rule="evenodd"/><path stroke="#595959" stroke-width="1.0" stroke-linejoin="round" stroke-linecap="butt" d="m355.48822 101.53774l0 0c0 -2.6527023 2.1504517 -4.8031464 4.8031616 -4.8031464l0 0c1.2738647 0 2.495575 0.5060425 3.3963318 1.406807c0.90075684 0.90076447 1.4067993 2.122467 1.4067993 3.3963394l0 0c0 2.65271 -2.1504211 4.803154 -4.803131 4.803154l0 0c-2.65271 0 -4.8031616 -2.150444 -4.8031616 -4.803154z" fill-rule="evenodd"/><path fill="#000000" fill-opacity="0.0" d="m373.49103 101.53774l108.944885 0" fill-rule="evenodd"/><path stroke="#595959" stroke-width="1.0" stroke-linejoin="round" stroke-linecap="butt" d="m373.49103 101.53774l108.944885 0" fill-rule="evenodd"/><path fill="#ffffff" d="m323.14294 83.89536l0 0c0 -2.693344 2.1834106 -4.8767395 4.8767395 -4.8767395l150.12054 0c1.293396 0 2.5338135 0.5138016 3.4483948 1.4283676c0.9145508 0.91456604 1.4283447 2.1549835 1.4283447 3.448372l0 19.50637c0 2.693344 -2.1833801 4.876732 -4.8767395 4.876732l-150.12054 0c-2.6933289 0 -4.8767395 -2.1833878 -4.8767395 -4.876732z" fill-rule="evenodd"/><path stroke="#595959" stroke-width="1.0" stroke-linejoin="round" stroke-linecap="butt" d="m323.14294 83.89536l0 0c0 -2.693344 2.1834106 -4.8767395 4.8767395 -4.8767395l150.12054 0c1.293396 0 2.5338135 0.5138016 3.4483948 1.4283676c0.9145508 0.91456604 1.4283447 2.1549835 1.4283447 3.448372l0 19.50637c0 2.693344 -2.1833801 4.876732 -4.8767395 4.876732l-150.12054 0c-2.6933289 0 -4.8767395 -2.1833878 -4.8767395 -4.876732z" fill-rule="evenodd"/><path fill="#000000" fill-opacity="0.0" d="m331.48822 93.53774l0 0c0 -2.6527023 2.1504517 -4.8031464 4.8031616 -4.8031464l0 0c1.2738647 0 2.495575 0.5060425 3.3963318 1.406807c0.90075684 0.90076447 1.4067993 2.122467 1.4067993 3.3963394l0 0c0 2.65271 -2.1504211 4.803154 -4.803131 4.803154l0 0c-2.65271 0 -4.8031616 -2.150444 -4.8031616 -4.803154z" fill-rule="evenodd"/><path stroke="#595959" stroke-width="1.0" stroke-linejoin="round" stroke-linecap="butt" d="m331.48822 93.53774l0 0c0 -2.6527023 2.1504517 -4.8031464 4.8031616 -4.8031464l0 0c1.2738647 0 2.495575 0.5060425 3.3963318 1.406807c0.90075684 0.90076447 1.4067993 2.122467 1.4067993 3.3963394l0 0c0 2.65271 -2.1504211 4.803154 -4.803131 4.803154l0 0c-2.65271 0 -4.8031616 -2.150444 -4.8031616 -4.803154z" fill-rule="evenodd"/><path fill="#000000" fill-opacity="0.0" d="m347.48822 93.53774l0 0c0 -2.6527023 2.1504517 -4.8031464 4.8031616 -4.8031464l0 0c1.2738647 0 2.495575 0.5060425 3.3963318 1.406807c0.90075684 0.90076447 1.4067993 2.122467 1.4067993 3.3963394l0 0c0 2.65271 -2.1504211 4.803154 -4.803131 4.803154l0 0c-2.65271 0 -4.8031616 -2.150444 -4.8031616 -4.803154z" fill-rule="evenodd"/><path stroke="#595959" stroke-width="1.0" stroke-linejoin="round" stroke-linecap="butt" d="m347.48822 93.53774l0 0c0 -2.6527023 2.1504517 -4.8031464 4.8031616 -4.8031464l0 0c1.2738647 0 2.495575 0.5060425 3.3963318 1.406807c0.90075684 0.90076447 1.4067993 2.122467 1.4067993 3.3963394l0 0c0 2.65271 -2.1504211 4.803154 -4.803131 4.803154l0 0c-2.65271 0 -4.8031616 -2.150444 -4.8031616 -4.803154z" fill-rule="evenodd"/><path fill="#000000" fill-opacity="0.0" d="m365.49103 93.53774l108.944885 0" fill-rule="evenodd"/><path stroke="#595959" stroke-width="1.0" stroke-linejoin="round" stroke-linecap="butt" d="m365.49103 93.53774l108.944885 0" fill-rule="evenodd"/><path fill="#ffffff" d="m49.755943 73.84535l0 0c0 -5.6940155 4.6159096 -10.309917 10.309917 -10.309917l147.56915 0c2.7343597 0 5.35672 1.086216 7.290207 3.019703c1.9334869 1.9334869 3.019699 4.555855 3.019699 7.2902145l0 41.238434c0 5.694008 -4.615906 10.309914 -10.309906 10.309914l-147.56915 0c-5.694008 0 -10.309917 -4.615906 -10.309917 -10.309914z" fill-rule="evenodd"/><path stroke="#595959" stroke-width="1.0" stroke-linejoin="round" stroke-linecap="butt" d="m49.755943 73.84535l0 0c0 -5.6940155 4.6159096 -10.309917 10.309917 -10.309917l147.56915 0c2.7343597 0 5.35672 1.086216 7.290207 3.019703c1.9334869 1.9334869 3.019699 4.555855 3.019699 7.2902145l0 41.238434c0 5.694008 -4.615906 10.309914 -10.309906 10.309914l-147.56915 0c-5.694008 0 -10.309917 -4.615906 -10.309917 -10.309914z" fill-rule="evenodd"/><path fill="#000000" d="m68.94749 95.56144l-5.749996 3.21875q-0.140625 0.078125 -0.21875 0.078125q-0.109375 0 -0.1875 -0.078125q-0.078125 -0.09375 -0.078125 -0.1875q0 -0.171875 0.21875 -0.28125l4.937496 -2.75l-4.937496 -2.734375q-0.203125 -0.125 -0.203125 -0.28125q0 -0.109375 0.078125 -0.1875q0.078125 -0.078125 0.1875 -0.078125q0.0625 0 0.203125 0.078125l5.749996 3.203125zm14.086914 -1.4375q0 -0.1875 0.078125 -0.265625q0.078125 -0.09375 0.1875 -0.09375q0.125 0 0.203125 0.09375q0.078125 0.078125 0.078125 0.265625l0 0.921875q0 0.1875 -0.078125 0.28125q-0.078125 0.078125 -0.203125 0.078125q-0.09375 0 -0.171875 -0.0625q-0.078125 -0.078125 -0.09375 -0.25q-0.03125 -0.375 -0.390625 -0.625q-0.515625 -0.34375 -1.375 -0.34375q-0.890625 0 -1.390625 0.359375q-0.375 0.265625 -0.375 0.609375q0 0.375 0.453125 0.625q0.296875 0.1875 1.140625 0.28125q1.125 0.109375 1.546875 0.265625q0.625 0.21875 0.921875 0.625q0.296875 0.390625 0.296875 0.84375q0 0.6875 -0.65625 1.21875q-0.640625 0.515625 -1.90625 0.515625q-1.265625 0 -2.078125 -0.640625q0 0.21875 -0.03125 0.28125q-0.015625 0.0625 -0.09375 0.109375q-0.0625 0.046875 -0.140625 0.046875q-0.109375 0 -0.1875 -0.078125q-0.078125 -0.09375 -0.078125 -0.28125l0 -1.09375q0 -0.1875 0.0625 -0.265625q0.078125 -0.09375 0.203125 -0.09375q0.109375 0 0.1875 0.078125q0.09375 0.078125 0.09375 0.21875q0 0.296875 0.140625 0.484375q0.21875 0.3125 0.703125 0.515625q0.484375 0.1875 1.1875 0.1875q1.046875 0 1.546875 -0.375q0.515625 -0.390625 0.515625 -0.828125q0 -0.5 -0.515625 -0.796875q-0.515625 -0.296875 -1.515625 -0.390625q-0.984375 -0.109375 -1.421875 -0.265625q-0.4375 -0.171875 -0.671875 -0.5q-0.234375 -0.328125 -0.234375 -0.71875q0 -0.671875 0.671875 -1.078125q0.671875 -0.40625 1.59375 -0.40625q1.109375 0 1.796875 0.546875zm7.8012695 0q0 -0.1875 0.078125 -0.265625q0.078125 -0.09375 0.1875 -0.09375q0.125 0 0.203125 0.09375q0.078125 0.078125 0.078125 0.265625l0 0.921875q0 0.1875 -0.078125 0.28125q-0.078125 0.078125 -0.203125 0.078125q-0.09375 0 -0.171875 -0.0625q-0.078125 -0.078125 -0.09375 -0.25q-0.03125 -0.375 -0.390625 -0.625q-0.515625 -0.34375 -1.375 -0.34375q-0.890625 0 -1.390625 0.359375q-0.375 0.265625 -0.375 0.609375q0 0.375 0.453125 0.625q0.296875 0.1875 1.140625 0.28125q1.125 0.109375 1.546875 0.265625q0.625 0.21875 0.921875 0.625q0.296875 0.390625 0.296875 0.84375q0 0.6875 -0.65625 1.21875q-0.640625 0.515625 -1.90625 0.515625q-1.265625 0 -2.078125 -0.640625q0 0.21875 -0.03125 0.28125q-0.015625 0.0625 -0.09375 0.109375q-0.0625 0.046875 -0.140625 0.046875q-0.109375 0 -0.1875 -0.078125q-0.078125 -0.09375 -0.078125 -0.28125l0 -1.09375q0 -0.1875 0.0625 -0.265625q0.078125 -0.09375 0.203125 -0.09375q0.109375 0 0.1875 0.078125q0.09375 0.078125 0.09375 0.21875q0 0.296875 0.140625 0.484375q0.21875 0.3125 0.703125 0.515625q0.484375 0.1875 1.1875 0.1875q1.046875 0 1.546875 -0.375q0.515625 -0.390625 0.515625 -0.828125q0 -0.5 -0.515625 -0.796875q-0.515625 -0.296875 -1.515625 -0.390625q-0.984375 -0.109375 -1.421875 -0.265625q-0.4375 -0.171875 -0.671875 -0.5q-0.234375 -0.328125 -0.234375 -0.71875q0 -0.671875 0.671875 -1.078125q0.671875 -0.40625 1.59375 -0.40625q1.109375 0 1.796875 0.546875zm4.2856445 -2.828125l0 3.28125q0.515625 -0.546875 0.984375 -0.765625q0.46875 -0.234375 1.046875 -0.234375q0.609375 0 1.046875 0.21875q0.4375 0.21875 0.71875 0.671875q0.296875 0.453125 0.296875 0.953125l0 3.3125l0.609375 0q0.1875 0 0.265625 0.078125q0.078125 0.0625 0.078125 0.1875q0 0.109375 -0.078125 0.1875q-0.078125 0.078125 -0.265625 0.078125l-1.734375 0q-0.203125 0 -0.296875 -0.078125q-0.078125 -0.078125 -0.078125 -0.1875q0 -0.125 0.078125 -0.1875q0.09375 -0.078125 0.296875 -0.078125l0.59375 0l0 -3.265625q0 -0.578125 -0.421875 -0.96875q-0.40625 -0.390625 -1.15625 -0.390625q-0.578125 0 -1.0 0.28125q-0.296875 0.203125 -0.984375 0.96875l0 3.375l0.609375 0q0.1875 0 0.265625 0.078125q0.09375 0.0625 0.09375 0.1875q0 0.109375 -0.09375 0.1875q-0.078125 0.078125 -0.265625 0.078125l-1.734375 0q-0.203125 0 -0.28125 -0.078125q-0.078125 -0.078125 -0.078125 -0.1875q0 -0.125 0.078125 -0.1875q0.078125 -0.078125 0.28125 -0.078125l0.59375 0l0 -6.890625l-0.71875 0q-0.1875 0 -0.265625 -0.078125q-0.078125 -0.078125 -0.078125 -0.203125q0 -0.109375 0.078125 -0.1875q0.078125 -0.078125 0.265625 -0.078125l1.25 0zm17.399414 7.96875l-2.484375 -4.953125l-0.15625 0q-0.1875 0 -0.265625 -0.078125q-0.078125 -0.078125 -0.078125 -0.1875q0 -0.09375 0.03125 -0.15625q0.046875 -0.0625 0.109375 -0.09375q0.0625 -0.03125 0.203125 -0.03125l1.46875 0q0.1875 0 0.265625 0.078125q0.078125 0.078125 0.078125 0.203125q0 0.109375 -0.078125 0.1875q-0.078125 0.078125 -0.265625 0.078125l-0.71875 0l2.171875 4.375l2.140625 -4.375l-0.703125 0q-0.203125 0 -0.28125 -0.078125q-0.078125 -0.078125 -0.078125 -0.203125q0 -0.109375 0.078125 -0.1875q0.078125 -0.078125 0.28125 -0.078125l1.453125 0q0.1875 0 0.265625 0.078125q0.09375 0.078125 0.09375 0.203125q0 0.078125 -0.0625 0.15625q-0.046875 0.0625 -0.109375 0.09375q-0.0625 0.015625 -0.359375 0.015625l-3.375 6.875l0.84375 0q0.1875 0 0.265625 0.0625q0.078125 0.078125 0.078125 0.203125q0 0.109375 -0.078125 0.1875q-0.078125 0.078125 -0.265625 0.078125l-3.078125 0q-0.1875 0 -0.28125 -0.078125q-0.078125 -0.078125 -0.078125 -0.1875q0 -0.125 0.078125 -0.203125q0.09375 -0.0625 0.28125 -0.0625l1.671875 0l0.9375 -1.921875zm10.73877 -2.734375q0 1.21875 -0.875 2.078125q-0.859375 0.859375 -2.09375 0.859375q-1.25 0 -2.125 -0.859375q-0.859375 -0.875 -0.859375 -2.078125q0 -1.21875 0.859375 -2.078125q0.875 -0.875 2.125 -0.875q1.234375 0 2.09375 0.859375q0.875 0.859375 0.875 2.09375zm-0.53125 0q0 -1.0 -0.71875 -1.703125q-0.71875 -0.703125 -1.734375 -0.703125q-1.015625 0 -1.734375 0.703125q-0.703125 0.703125 -0.703125 1.703125q0 0.984375 0.703125 1.703125q0.71875 0.703125 1.734375 0.703125q1.015625 0 1.734375 -0.703125q0.71875 -0.703125 0.71875 -1.703125zm7.176277 2.734375l0 -0.78125q-1.078125 0.984375 -2.3593826 0.984375q-0.78125 0 -1.1875 -0.421875q-0.515625 -0.5625 -0.515625 -1.296875l0 -3.4375l-0.71875 0q-0.1875 0 -0.28125 -0.078125q-0.078125 -0.078125 -0.078125 -0.203125q0 -0.109375 0.078125 -0.1875q0.09375 -0.078125 0.28125 -0.078125l1.25 0l0 3.984375q0 0.515625 0.328125 0.859375q0.328125 0.328125 0.828125 0.328125q1.2968826 0 2.3750076 -1.1875l0 -3.4375l-0.984375 0q-0.1875 0 -0.265625 -0.078125q-0.078125 -0.078125 -0.078125 -0.203125q0 -0.109375 0.078125 -0.1875q0.078125 -0.078125 0.265625 -0.078125l1.53125 0l0 4.96875l0.4375 0q0.203125 0 0.28125 0.078125q0.078125 0.0625 0.078125 0.1875q0 0.109375 -0.078125 0.1875q-0.078125 0.078125 -0.28125 0.078125l-0.984375 0zm5.3481445 -5.5l0 1.34375q1.03125 -0.9375 1.546875 -1.203125q0.53125 -0.265625 0.96875 -0.265625q0.46875 0 0.875 0.328125q0.421875 0.3125 0.421875 0.46875q0 0.125 -0.09375 0.203125q-0.078125 0.078125 -0.1875 0.078125q-0.0625 0 -0.109375 -0.015625q-0.046875 -0.03125 -0.171875 -0.140625q-0.21875 -0.234375 -0.390625 -0.3125q-0.15625 -0.078125 -0.3125 -0.078125q-0.359375 0 -0.859375 0.28125q-0.484375 0.28125 -1.6875 1.359375l0 2.921875l2.359375 0q0.203125 0 0.28125 0.078125q0.078125 0.0625 0.078125 0.1875q0 0.109375 -0.078125 0.1875q-0.078125 0.078125 -0.28125 0.078125l-4.1875 0q-0.1875 0 -0.28125 -0.0625q-0.078125 -0.078125 -0.078125 -0.203125q0 -0.109375 0.078125 -0.171875q0.09375 -0.078125 0.28125 -0.078125l1.296875 0l0 -4.4375l-0.984375 0q-0.1875 0 -0.28125 -0.078125q-0.078125 -0.078125 -0.078125 -0.203125q0 -0.109375 0.078125 -0.1875q0.078125 -0.078125 0.28125 -0.078125l1.515625 0zm10.191895 0.359375q0 -0.1875 0.078125 -0.265625q0.078125 -0.09375 0.1875 -0.09375q0.125 0 0.203125 0.09375q0.078125 0.078125 0.078125 0.265625l0 0.921875q0 0.1875 -0.078125 0.28125q-0.078125 0.078125 -0.203125 0.078125q-0.09375 0 -0.171875 -0.0625q-0.078125 -0.078125 -0.09375 -0.25q-0.03125 -0.375 -0.390625 -0.625q-0.515625 -0.34375 -1.375 -0.34375q-0.890625 0 -1.390625 0.359375q-0.375 0.265625 -0.375 0.609375q0 0.375 0.453125 0.625q0.296875 0.1875 1.140625 0.28125q1.125 0.109375 1.546875 0.265625q0.625 0.21875 0.921875 0.625q0.296875 0.390625 0.296875 0.84375q0 0.6875 -0.65625 1.21875q-0.640625 0.515625 -1.90625 0.515625q-1.265625 0 -2.078125 -0.640625q0 0.21875 -0.03125 0.28125q-0.015625 0.0625 -0.09375 0.109375q-0.0625 0.046875 -0.140625 0.046875q-0.109375 0 -0.1875 -0.078125q-0.078125 -0.09375 -0.078125 -0.28125l0 -1.09375q0 -0.1875 0.0625 -0.265625q0.078125 -0.09375 0.203125 -0.09375q0.109375 0 0.1875 0.078125q0.09375 0.078125 0.09375 0.21875q0 0.296875 0.140625 0.484375q0.21875 0.3125 0.703125 0.515625q0.484375 0.1875 1.1875 0.1875q1.046875 0 1.546875 -0.375q0.515625 -0.390625 0.515625 -0.828125q0 -0.5 -0.515625 -0.796875q-0.515625 -0.296875 -1.515625 -0.390625q-0.984375 -0.109375 -1.421875 -0.265625q-0.4375 -0.171875 -0.671875 -0.5q-0.234375 -0.328125 -0.234375 -0.71875q0 -0.671875 0.671875 -1.078125q0.671875 -0.40625 1.59375 -0.40625q1.109375 0 1.796875 0.546875zm8.92627 2.515625l-5.421875 0q0.125 1.03125 0.859375 1.671875q0.734375 0.625 1.796875 0.625q0.59375 0 1.25 -0.1875q0.65625 -0.203125 1.0625 -0.53125q0.125 -0.09375 0.21875 -0.09375q0.09375 0 0.171875 0.078125q0.078125 0.078125 0.078125 0.1875q0 0.109375 -0.09375 0.21875q-0.3125 0.3125 -1.09375 0.59375q-0.765625 0.265625 -1.59375 0.265625q-1.375 0 -2.296875 -0.890625q-0.90625 -0.90625 -0.90625 -2.171875q0 -1.171875 0.859375 -2.0q0.859375 -0.828125 2.125 -0.828125q1.3125 0 2.15625 0.859375q0.84375 0.84375 0.828125 2.203125zm-0.53125 -0.53125q-0.15625 -0.890625 -0.84375 -1.4375q-0.671875 -0.546875 -1.609375 -0.546875q-0.921875 0 -1.59375 0.546875q-0.671875 0.53125 -0.84375 1.4375l4.890625 0zm4.8168945 -2.34375l0 1.34375q1.03125 -0.9375 1.546875 -1.203125q0.53125 -0.265625 0.96875 -0.265625q0.46875 0 0.875 0.328125q0.421875 0.3125 0.421875 0.46875q0 0.125 -0.09375 0.203125q-0.078125 0.078125 -0.1875 0.078125q-0.0625 0 -0.109375 -0.015625q-0.046875 -0.03125 -0.171875 -0.140625q-0.21875 -0.234375 -0.390625 -0.3125q-0.15625 -0.078125 -0.3125 -0.078125q-0.359375 0 -0.859375 0.28125q-0.484375 0.28125 -1.6875 1.359375l0 2.921875l2.359375 0q0.203125 0 0.28125 0.078125q0.078125 0.0625 0.078125 0.1875q0 0.109375 -0.078125 0.1875q-0.078125 0.078125 -0.28125 0.078125l-4.1875 0q-0.1875 0 -0.28125 -0.0625q-0.078125 -0.078125 -0.078125 -0.203125q0 -0.109375 0.078125 -0.171875q0.09375 -0.078125 0.28125 -0.078125l1.296875 0l0 -4.4375l-0.984375 0q-0.1875 0 -0.28125 -0.078125q-0.078125 -0.078125 -0.078125 -0.203125q0 -0.109375 0.078125 -0.1875q0.078125 -0.078125 0.28125 -0.078125l1.515625 0zm8.910645 5.5l-0.90625 0l-2.1875 -4.953125l-0.546875 0q-0.1875 0 -0.28125 -0.078125q-0.078125 -0.078125 -0.078125 -0.203125q0 -0.109375 0.078125 -0.1875q0.09375 -0.078125 0.28125 -0.078125l2.0 0q0.1875 0 0.265625 0.078125q0.078125 0.078125 0.078125 0.203125q0 0.109375 -0.078125 0.1875q-0.078125 0.078125 -0.265625 0.078125l-0.890625 0l1.953125 4.421875l0.234375 0l1.921875 -4.421875l-0.890625 0q-0.1875 0 -0.28125 -0.078125q-0.078125 -0.078125 -0.078125 -0.203125q0 -0.109375 0.078125 -0.1875q0.09375 -0.078125 0.28125 -0.078125l2.015625 0q0.1875 0 0.265625 0.078125q0.078125 0.078125 0.078125 0.203125q0 0.109375 -0.078125 0.1875q-0.078125 0.078125 -0.265625 0.078125l-0.546875 0l-2.15625 4.953125zm10.20752 -2.625l-5.421875 0q0.125 1.03125 0.859375 1.671875q0.734375 0.625 1.796875 0.625q0.59375 0 1.25 -0.1875q0.65625 -0.203125 1.0625 -0.53125q0.125 -0.09375 0.21875 -0.09375q0.09375 0 0.171875 0.078125q0.078125 0.078125 0.078125 0.1875q0 0.109375 -0.09375 0.21875q-0.3125 0.3125 -1.09375 0.59375q-0.765625 0.265625 -1.59375 0.265625q-1.375 0 -2.296875 -0.890625q-0.90625 -0.90625 -0.90625 -2.171875q0 -1.171875 0.859375 -2.0q0.859375 -0.828125 2.125 -0.828125q1.3125 0 2.15625 0.859375q0.84375 0.84375 0.828125 2.203125zm-0.53125 -0.53125q-0.15625 -0.890625 -0.84375 -1.4375q-0.671875 -0.546875 -1.609375 -0.546875q-0.921875 0 -1.59375 0.546875q-0.671875 0.53125 -0.84375 1.4375l4.890625 0zm4.8168945 -2.34375l0 1.34375q1.03125 -0.9375 1.546875 -1.203125q0.53125 -0.265625 0.96875 -0.265625q0.46875 0 0.875 0.328125q0.421875 0.3125 0.421875 0.46875q0 0.125 -0.09375 0.203125q-0.078125 0.078125 -0.1875 0.078125q-0.0625 0 -0.109375 -0.015625q-0.046875 -0.03125 -0.171875 -0.140625q-0.21875 -0.234375 -0.390625 -0.3125q-0.15625 -0.078125 -0.3125 -0.078125q-0.359375 0 -0.859375 0.28125q-0.484375 0.28125 -1.6875 1.359375l0 2.921875l2.359375 0q0.203125 0 0.28125 0.078125q0.078125 0.0625 0.078125 0.1875q0 0.109375 -0.078125 0.1875q-0.078125 0.078125 -0.28125 0.078125l-4.1875 0q-0.1875 0 -0.28125 -0.0625q-0.078125 -0.078125 -0.078125 -0.203125q0 -0.109375 0.078125 -0.171875q0.09375 -0.078125 0.28125 -0.078125l1.296875 0l0 -4.4375l-0.984375 0q-0.1875 0 -0.28125 -0.078125q-0.078125 -0.078125 -0.078125 -0.203125q0 -0.109375 0.078125 -0.1875q0.078125 -0.078125 0.28125 -0.078125l1.515625 0z" fill-rule="nonzero"/><path fill="#000000" fill-opacity="0.0" d="m323.14178 44.199474l159.874 0l0 35.559055l-159.874 0z" fill-rule="evenodd"/><path fill="#000000" d="m352.40738 65.99947l-2.484375 -4.953125l-0.15625 0q-0.1875 0 -0.265625 -0.078125q-0.078125 -0.078125 -0.078125 -0.1875q0 -0.09375 0.03125 -0.15625q0.046875 -0.0625 0.109375 -0.09375q0.0625 -0.03125 0.203125 -0.03125l1.46875 0q0.1875 0 0.265625 0.078125q0.078125 0.078125 0.078125 0.203125q0 0.109375 -0.078125 0.1875q-0.078125 0.078125 -0.265625 0.078125l-0.71875 0l2.171875 4.375l2.140625 -4.375l-0.703125 0q-0.203125 0 -0.28125 -0.078125q-0.078125 -0.078125 -0.078125 -0.203125q0 -0.109375 0.078125 -0.1875q0.078125 -0.078125 0.28125 -0.078125l1.453125 0q0.1875 0 0.265625 0.078125q0.09375 0.078125 0.09375 0.203125q0 0.078125 -0.0625 0.15625q-0.046875 0.0625 -0.109375 0.09375q-0.0625 0.015625 -0.359375 0.015625l-3.375 6.875l0.84375 0q0.1875 0 0.265625 0.0625q0.078125 0.078125 0.078125 0.203125q0 0.109375 -0.078125 0.1875q-0.078125 0.078125 -0.265625 0.078125l-3.078125 0q-0.1875 0 -0.28125 -0.078125q-0.078125 -0.078125 -0.078125 -0.1875q0 -0.125 0.078125 -0.203125q0.09375 -0.0625 0.28125 -0.0625l1.671875 0l0.9375 -1.921875zm10.73877 -2.734375q0 1.21875 -0.875 2.078125q-0.859375 0.859375 -2.09375 0.859375q-1.25 0 -2.125 -0.859375q-0.859375 -0.875 -0.859375 -2.078125q0 -1.21875 0.859375 -2.078125q0.875 -0.875 2.125 -0.875q1.234375 0 2.09375 0.859375q0.875 0.859375 0.875 2.09375zm-0.53125 0q0 -1.0 -0.71875 -1.703125q-0.71875 -0.703125 -1.734375 -0.703125q-1.015625 0 -1.734375 0.703125q-0.703125 0.703125 -0.703125 1.703125q0 0.984375 0.703125 1.703125q0.71875 0.703125 1.734375 0.703125q1.015625 0 1.734375 -0.703125q0.71875 -0.703125 0.71875 -1.703125zm7.1762695 2.734375l0 -0.78125q-1.078125 0.984375 -2.359375 0.984375q-0.78125 0 -1.1875 -0.421875q-0.515625 -0.5625 -0.515625 -1.296875l0 -3.4375l-0.71875 0q-0.1875 0 -0.28125 -0.078125q-0.078125 -0.078125 -0.078125 -0.203125q0 -0.109375 0.078125 -0.1875q0.09375 -0.078125 0.28125 -0.078125l1.25 0l0 3.984375q0 0.515625 0.328125 0.859375q0.328125 0.328125 0.828125 0.328125q1.296875 0 2.375 -1.1875l0 -3.4375l-0.984375 0q-0.1875 0 -0.265625 -0.078125q-0.078125 -0.078125 -0.078125 -0.203125q0 -0.109375 0.078125 -0.1875q0.078125 -0.078125 0.265625 -0.078125l1.53125 0l0 4.96875l0.4375 0q0.203125 0 0.28125 0.078125q0.078125 0.0625 0.078125 0.1875q0 0.109375 -0.078125 0.1875q-0.078125 0.078125 -0.28125 0.078125l-0.984375 0zm5.3481445 -5.5l0 1.34375q1.03125 -0.9375 1.546875 -1.203125q0.53125 -0.265625 0.96875 -0.265625q0.46875 0 0.875 0.328125q0.421875 0.3125 0.421875 0.46875q0 0.125 -0.09375 0.203125q-0.078125 0.078125 -0.1875 0.078125q-0.0625 0 -0.109375 -0.015625q-0.046875 -0.03125 -0.171875 -0.140625q-0.21875 -0.234375 -0.390625 -0.3125q-0.15625 -0.078125 -0.3125 -0.078125q-0.359375 0 -0.859375 0.28125q-0.484375 0.28125 -1.6875 1.359375l0 2.921875l2.359375 0q0.203125 0 0.28125 0.078125q0.078125 0.0625 0.078125 0.1875q0 0.109375 -0.078125 0.1875q-0.078125 0.078125 -0.28125 0.078125l-4.1875 0q-0.1875 0 -0.28125 -0.0625q-0.078125 -0.078125 -0.078125 -0.203125q0 -0.109375 0.078125 -0.171875q0.09375 -0.078125 0.28125 -0.078125l1.296875 0l0 -4.4375l-0.984375 0q-0.1875 0 -0.28125 -0.078125q-0.078125 -0.078125 -0.078125 -0.203125q0 -0.109375 0.078125 -0.1875q0.078125 -0.078125 0.28125 -0.078125l1.515625 0zm17.993164 0.359375q0 -0.1875 0.078125 -0.265625q0.078125 -0.09375 0.1875 -0.09375q0.125 0 0.203125 0.09375q0.078125 0.078125 0.078125 0.265625l0 0.921875q0 0.1875 -0.078125 0.28125q-0.078125 0.078125 -0.203125 0.078125q-0.09375 0 -0.171875 -0.0625q-0.078125 -0.078125 -0.09375 -0.25q-0.03125 -0.375 -0.390625 -0.625q-0.515625 -0.34375 -1.375 -0.34375q-0.890625 0 -1.390625 0.359375q-0.375 0.265625 -0.375 0.609375q0 0.375 0.453125 0.625q0.296875 0.1875 1.140625 0.28125q1.125 0.109375 1.546875 0.265625q0.625 0.21875 0.921875 0.625q0.296875 0.390625 0.296875 0.84375q0 0.6875 -0.65625 1.21875q-0.640625 0.515625 -1.90625 0.515625q-1.265625 0 -2.078125 -0.640625q0 0.21875 -0.03125 0.28125q-0.015625 0.0625 -0.09375 0.109375q-0.0625 0.046875 -0.140625 0.046875q-0.109375 0 -0.1875 -0.078125q-0.078125 -0.09375 -0.078125 -0.28125l0 -1.09375q0 -0.1875 0.0625 -0.265625q0.078125 -0.09375 0.203125 -0.09375q0.109375 0 0.1875 0.078125q0.09375 0.078125 0.09375 0.21875q0 0.296875 0.140625 0.484375q0.21875 0.3125 0.703125 0.515625q0.484375 0.1875 1.1875 0.1875q1.046875 0 1.546875 -0.375q0.515625 -0.390625 0.515625 -0.828125q0 -0.5 -0.515625 -0.796875q-0.515625 -0.296875 -1.515625 -0.390625q-0.984375 -0.109375 -1.421875 -0.265625q-0.4375 -0.171875 -0.671875 -0.5q-0.234375 -0.328125 -0.234375 -0.71875q0 -0.671875 0.671875 -1.078125q0.671875 -0.40625 1.59375 -0.40625q1.109375 0 1.796875 0.546875zm8.92627 2.515625l-5.421875 0q0.125 1.03125 0.859375 1.671875q0.734375 0.625 1.796875 0.625q0.59375 0 1.25 -0.1875q0.65625 -0.203125 1.0625 -0.53125q0.125 -0.09375 0.21875 -0.09375q0.09375 0 0.171875 0.078125q0.078125 0.078125 0.078125 0.1875q0 0.109375 -0.09375 0.21875q-0.3125 0.3125 -1.09375 0.59375q-0.765625 0.265625 -1.59375 0.265625q-1.375 0 -2.296875 -0.890625q-0.90625 -0.90625 -0.90625 -2.171875q0 -1.171875 0.859375 -2.0q0.859375 -0.828125 2.125 -0.828125q1.3125 0 2.15625 0.859375q0.84375 0.84375 0.828125 2.203125zm-0.53125 -0.53125q-0.15625 -0.890625 -0.84375 -1.4375q-0.671875 -0.546875 -1.609375 -0.546875q-0.921875 0 -1.59375 0.546875q-0.671875 0.53125 -0.84375 1.4375l4.890625 0zm4.8168945 -2.34375l0 1.34375q1.03125 -0.9375 1.546875 -1.203125q0.53125 -0.265625 0.96875 -0.265625q0.46875 0 0.875 0.328125q0.421875 0.3125 0.421875 0.46875q0 0.125 -0.09375 0.203125q-0.078125 0.078125 -0.1875 0.078125q-0.0625 0 -0.109375 -0.015625q-0.046875 -0.03125 -0.171875 -0.140625q-0.21875 -0.234375 -0.390625 -0.3125q-0.15625 -0.078125 -0.3125 -0.078125q-0.359375 0 -0.859375 0.28125q-0.484375 0.28125 -1.6875 1.359375l0 2.921875l2.359375 0q0.203125 0 0.28125 0.078125q0.078125 0.0625 0.078125 0.1875q0 0.109375 -0.078125 0.1875q-0.078125 0.078125 -0.28125 0.078125l-4.1875 0q-0.1875 0 -0.28125 -0.0625q-0.078125 -0.078125 -0.078125 -0.203125q0 -0.109375 0.078125 -0.171875q0.09375 -0.078125 0.28125 -0.078125l1.296875 0l0 -4.4375l-0.984375 0q-0.1875 0 -0.28125 -0.078125q-0.078125 -0.078125 -0.078125 -0.203125q0 -0.109375 0.078125 -0.1875q0.078125 -0.078125 0.28125 -0.078125l1.515625 0zm8.910645 5.5l-0.90625 0l-2.1875 -4.953125l-0.546875 0q-0.1875 0 -0.28125 -0.078125q-0.078125 -0.078125 -0.078125 -0.203125q0 -0.109375 0.078125 -0.1875q0.09375 -0.078125 0.28125 -0.078125l2.0 0q0.1875 0 0.265625 0.078125q0.078125 0.078125 0.078125 0.203125q0 0.109375 -0.078125 0.1875q-0.078125 0.078125 -0.265625 0.078125l-0.890625 0l1.953125 4.421875l0.234375 0l1.921875 -4.421875l-0.890625 0q-0.1875 0 -0.28125 -0.078125q-0.078125 -0.078125 -0.078125 -0.203125q0 -0.109375 0.078125 -0.1875q0.09375 -0.078125 0.28125 -0.078125l2.015625 0q0.1875 0 0.265625 0.078125q0.078125 0.078125 0.078125 0.203125q0 0.109375 -0.078125 0.1875q-0.078125 0.078125 -0.265625 0.078125l-0.546875 0l-2.15625 4.953125zm10.20752 -2.625l-5.421875 0q0.125 1.03125 0.859375 1.671875q0.734375 0.625 1.796875 0.625q0.59375 0 1.25 -0.1875q0.65625 -0.203125 1.0625 -0.53125q0.125 -0.09375 0.21875 -0.09375q0.09375 0 0.171875 0.078125q0.078125 0.078125 0.078125 0.1875q0 0.109375 -0.09375 0.21875q-0.3125 0.3125 -1.09375 0.59375q-0.765625 0.265625 -1.59375 0.265625q-1.375 0 -2.296875 -0.890625q-0.90625 -0.90625 -0.90625 -2.171875q0 -1.171875 0.859375 -2.0q0.859375 -0.828125 2.125 -0.828125q1.3125 0 2.15625 0.859375q0.84375 0.84375 0.828125 2.203125zm-0.53125 -0.53125q-0.15625 -0.890625 -0.84375 -1.4375q-0.671875 -0.546875 -1.609375 -0.546875q-0.921875 0 -1.59375 0.546875q-0.671875 0.53125 -0.84375 1.4375l4.890625 0zm4.8168945 -2.34375l0 1.34375q1.03125 -0.9375 1.546875 -1.203125q0.53125 -0.265625 0.96875 -0.265625q0.46875 0 0.875 0.328125q0.421875 0.3125 0.421875 0.46875q0 0.125 -0.09375 0.203125q-0.078125 0.078125 -0.1875 0.078125q-0.0625 0 -0.109375 -0.015625q-0.046875 -0.03125 -0.171875 -0.140625q-0.21875 -0.234375 -0.390625 -0.3125q-0.15625 -0.078125 -0.3125 -0.078125q-0.359375 0 -0.859375 0.28125q-0.484375 0.28125 -1.6875 1.359375l0 2.921875l2.359375 0q0.203125 0 0.28125 0.078125q0.078125 0.0625 0.078125 0.1875q0 0.109375 -0.078125 0.1875q-0.078125 0.078125 -0.28125 0.078125l-4.1875 0q-0.1875 0 -0.28125 -0.0625q-0.078125 -0.078125 -0.078125 -0.203125q0 -0.109375 0.078125 -0.171875q0.09375 -0.078125 0.28125 -0.078125l1.296875 0l0 -4.4375l-0.984375 0q-0.1875 0 -0.28125 -0.078125q-0.078125 -0.078125 -0.078125 -0.203125q0 -0.109375 0.078125 -0.1875q0.078125 -0.078125 0.28125 -0.078125l1.515625 0zm8.379395 2.34375q0 -0.734375 0.1875 -1.546875q0.1875 -0.828125 0.71875 -1.890625q0.546875 -1.078125 0.796875 -1.296875q0.078125 -0.078125 0.171875 -0.078125q0.109375 0 0.1875 0.078125q0.078125 0.078125 0.078125 0.1875q0 0.0625 -0.046875 0.140625q-0.6875 1.28125 -1.0 2.328125q-0.296875 1.03125 -0.296875 2.078125q0 1.046875 0.296875 2.09375q0.3125 1.03125 1.0 2.3125q0.046875 0.078125 0.046875 0.140625q0 0.09375 -0.078125 0.171875q-0.078125 0.09375 -0.1875 0.09375q-0.09375 0 -0.171875 -0.078125q-0.234375 -0.21875 -0.765625 -1.265625q-0.53125 -1.046875 -0.734375 -1.84375q-0.203125 -0.8125 -0.203125 -1.625zm9.61377 -1.984375q0 -0.1875 0.078125 -0.265625q0.078125 -0.09375 0.1875 -0.09375q0.125 0 0.203125 0.09375q0.078125 0.078125 0.078125 0.265625l0 0.921875q0 0.1875 -0.078125 0.28125q-0.078125 0.078125 -0.203125 0.078125q-0.09375 0 -0.171875 -0.0625q-0.078125 -0.078125 -0.09375 -0.25q-0.03125 -0.375 -0.390625 -0.625q-0.515625 -0.34375 -1.375 -0.34375q-0.890625 0 -1.390625 0.359375q-0.375 0.265625 -0.375 0.609375q0 0.375 0.453125 0.625q0.296875 0.1875 1.140625 0.28125q1.125 0.109375 1.546875 0.265625q0.625 0.21875 0.921875 0.625q0.296875 0.390625 0.296875 0.84375q0 0.6875 -0.65625 1.21875q-0.640625 0.515625 -1.90625 0.515625q-1.265625 0 -2.078125 -0.640625q0 0.21875 -0.03125 0.28125q-0.015625 0.0625 -0.09375 0.109375q-0.0625 0.046875 -0.140625 0.046875q-0.109375 0 -0.1875 -0.078125q-0.078125 -0.09375 -0.078125 -0.28125l0 -1.09375q0 -0.1875 0.0625 -0.265625q0.078125 -0.09375 0.203125 -0.09375q0.109375 0 0.1875 0.078125q0.09375 0.078125 0.09375 0.21875q0 0.296875 0.140625 0.484375q0.21875 0.3125 0.703125 0.515625q0.484375 0.1875 1.1875 0.1875q1.046875 0 1.546875 -0.375q0.515625 -0.390625 0.515625 -0.828125q0 -0.5 -0.515625 -0.796875q-0.515625 -0.296875 -1.515625 -0.390625q-0.984375 -0.109375 -1.421875 -0.265625q-0.4375 -0.171875 -0.671875 -0.5q-0.234375 -0.328125 -0.234375 -0.71875q0 -0.671875 0.671875 -1.078125q0.671875 -0.40625 1.59375 -0.40625q1.109375 0 1.796875 0.546875zm6.20755 1.984375q0 0.734375 -0.203125 1.546875q-0.1875 0.8125 -0.734375 1.890625q-0.53125 1.078125 -0.78125 1.296875q-0.078125 0.078125 -0.15625 0.078125q-0.125 0 -0.203125 -0.09375q-0.078125 -0.078125 -0.078125 -0.171875q0 -0.0625 0.046875 -0.140625q0.703125 -1.28125 1.0 -2.3125q0.296875 -1.046875 0.296875 -2.09375q0 -1.046875 -0.296875 -2.078125q-0.296875 -1.046875 -1.0 -2.328125q-0.046875 -0.078125 -0.046875 -0.140625q0 -0.109375 0.078125 -0.1875q0.078125 -0.078125 0.203125 -0.078125q0.078125 0 0.15625 0.078125q0.234375 0.203125 0.765625 1.25q0.546875 1.046875 0.75 1.859375q0.203125 0.8125 0.203125 1.625z" fill-rule="nonzero"/><path fill="#000000" fill-opacity="0.0" d="m49.755943 123.97638l168.18896 0l0 35.55905l-168.18896 0z" fill-rule="evenodd"/><path fill="#000000" d="m75.37778 145.77638l-2.484375 -4.953125l-0.15625 0q-0.1875 0 -0.265625 -0.078125q-0.078125 -0.078125 -0.078125 -0.1875q0 -0.09375 0.03125 -0.15625q0.046875 -0.0625 0.109375 -0.09375q0.0625 -0.03125 0.203125 -0.03125l1.46875 0q0.1875 0 0.265625 0.078125q0.078125 0.078125 0.078125 0.203125q0 0.109375 -0.078125 0.1875q-0.078125 0.078125 -0.265625 0.078125l-0.71875 0l2.171875 4.375l2.140625 -4.375l-0.703125 0q-0.203125 0 -0.28125 -0.078125q-0.078125 -0.078125 -0.078125 -0.203125q0 -0.109375 0.078125 -0.1875q0.078125 -0.078125 0.28125 -0.078125l1.453125 0q0.1875 0 0.265625 0.078125q0.09375 0.078125 0.09375 0.203125q0 0.078125 -0.0625 0.15625q-0.046875 0.0625 -0.109375 0.09375q-0.0625 0.015625 -0.359375 0.015625l-3.375 6.875l0.84375 0q0.1875 0 0.265625 0.0625q0.078125 0.078125 0.078125 0.203125q0 0.109375 -0.078125 0.1875q-0.078125 0.078125 -0.265625 0.078125l-3.078125 0q-0.1875 0 -0.28125 -0.078125q-0.078125 -0.078125 -0.078125 -0.1875q0 -0.125 0.078125 -0.203125q0.09375 -0.0625 0.28125 -0.0625l1.671875 0l0.9375 -1.921875zm10.73877 -2.734375q0 1.21875 -0.875 2.078125q-0.859375 0.859375 -2.09375 0.859375q-1.25 0 -2.125 -0.859375q-0.859375 -0.875 -0.859375 -2.078125q0 -1.21875 0.859375 -2.078125q0.875 -0.875 2.125 -0.875q1.234375 0 2.09375 0.859375q0.875 0.859375 0.875 2.09375zm-0.53125 0q0 -1.0 -0.71875 -1.703125q-0.71875 -0.703125 -1.734375 -0.703125q-1.015625 0 -1.734375 0.703125q-0.703125 0.703125 -0.703125 1.703125q0 0.984375 0.703125 1.703125q0.71875 0.703125 1.734375 0.703125q1.015625 0 1.734375 -0.703125q0.71875 -0.703125 0.71875 -1.703125zm7.1762695 2.734375l0 -0.78125q-1.078125 0.984375 -2.359375 0.984375q-0.78125 0 -1.1875 -0.421875q-0.515625 -0.5625 -0.515625 -1.296875l0 -3.4375l-0.71875 0q-0.1875 0 -0.28125 -0.078125q-0.078125 -0.078125 -0.078125 -0.203125q0 -0.109375 0.078125 -0.1875q0.09375 -0.078125 0.28125 -0.078125l1.25 0l0 3.984375q0 0.515625 0.328125 0.859375q0.328125 0.328125 0.828125 0.328125q1.296875 0 2.375 -1.1875l0 -3.4375l-0.984375 0q-0.1875 0 -0.265625 -0.078125q-0.078125 -0.078125 -0.078125 -0.203125q0 -0.109375 0.078125 -0.1875q0.078125 -0.078125 0.265625 -0.078125l1.53125 0l0 4.96875l0.4375 0q0.203125 0 0.28125 0.078125q0.078125 0.0625 0.078125 0.1875q0 0.109375 -0.078125 0.1875q-0.078125 0.078125 -0.28125 0.078125l-0.984375 0zm5.3481445 -5.5l0 1.34375q1.03125 -0.9375 1.546875 -1.203125q0.53125 -0.265625 0.96875 -0.265625q0.46875 0 0.875 0.328125q0.421875 0.3125 0.421875 0.46875q0 0.125 -0.09375 0.203125q-0.078125 0.078125 -0.1875 0.078125q-0.0625 0 -0.109375 -0.015625q-0.046875 -0.03125 -0.171875 -0.140625q-0.21875 -0.234375 -0.390625 -0.3125q-0.15625 -0.078125 -0.3125 -0.078125q-0.359375 0 -0.859375 0.28125q-0.484375 0.28125 -1.6875 1.359375l0 2.921875l2.359375 0q0.203125 0 0.28125 0.078125q0.078125 0.0625 0.078125 0.1875q0 0.109375 -0.078125 0.1875q-0.078125 0.078125 -0.28125 0.078125l-4.1875 0q-0.1875 0 -0.28125 -0.0625q-0.078125 -0.078125 -0.078125 -0.203125q0 -0.109375 0.078125 -0.171875q0.09375 -0.078125 0.28125 -0.078125l1.296875 0l0 -4.4375l-0.984375 0q-0.1875 0 -0.28125 -0.078125q-0.078125 -0.078125 -0.078125 -0.203125q0 -0.109375 0.078125 -0.1875q0.078125 -0.078125 0.28125 -0.078125l1.515625 0zm18.07129 5.5l-0.65625 0l-1.171875 -3.421875l-1.171875 3.421875l-0.65625 0l-1.109375 -4.953125l-0.25 0q-0.203125 0 -0.28125 -0.078125q-0.078125 -0.078125 -0.078125 -0.203125q0 -0.109375 0.078125 -0.1875q0.078125 -0.078125 0.28125 -0.078125l1.453125 0q0.203125 0 0.28125 0.078125q0.078125 0.078125 0.078125 0.203125q0 0.109375 -0.078125 0.1875q-0.078125 0.078125 -0.28125 0.078125l-0.671875 0l0.9375 4.21875l1.140625 -3.375l0.640625 0l1.171875 3.375l0.90625 -4.21875l-0.671875 0q-0.203125 0 -0.296875 -0.078125q-0.078125 -0.078125 -0.078125 -0.203125q0 -0.109375 0.078125 -0.1875q0.09375 -0.078125 0.296875 -0.078125l1.453125 0q0.203125 0 0.28125 0.078125q0.078125 0.078125 0.078125 0.203125q0 0.109375 -0.078125 0.1875q-0.078125 0.078125 -0.28125 0.078125l-0.25 0l-1.09375 4.953125zm8.941895 -2.734375q0 1.21875 -0.875 2.078125q-0.859375 0.859375 -2.09375 0.859375q-1.25 0 -2.125 -0.859375q-0.859375 -0.875 -0.859375 -2.078125q0 -1.21875 0.859375 -2.078125q0.875 -0.875 2.125 -0.875q1.234375 0 2.09375 0.859375q0.875 0.859375 0.875 2.09375zm-0.53125 0q0 -1.0 -0.71875 -1.703125q-0.71875 -0.703125 -1.734375 -0.703125q-1.015625 0 -1.734375 0.703125q-0.703125 0.703125 -0.703125 1.703125q0 0.984375 0.703125 1.703125q0.71875 0.703125 1.734375 0.703125q1.015625 0 1.734375 -0.703125q0.71875 -0.703125 0.71875 -1.703125zm4.7231445 -2.765625l0 1.34375q1.03125 -0.9375 1.546875 -1.203125q0.53125 -0.265625 0.96875 -0.265625q0.46875 0 0.875 0.328125q0.421875 0.3125 0.421875 0.46875q0 0.125 -0.09375 0.203125q-0.078125 0.078125 -0.1875 0.078125q-0.0625 0 -0.109375 -0.015625q-0.046875 -0.03125 -0.171875 -0.140625q-0.21875 -0.234375 -0.390625 -0.3125q-0.15625 -0.078125 -0.3125 -0.078125q-0.359375 0 -0.859375 0.28125q-0.484375 0.28125 -1.6875 1.359375l0 2.921875l2.359375 0q0.203125 0 0.28125 0.078125q0.078125 0.0625 0.078125 0.1875q0 0.109375 -0.078125 0.1875q-0.078125 0.078125 -0.28125 0.078125l-4.1875 0q-0.1875 0 -0.28125 -0.0625q-0.078125 -0.078125 -0.078125 -0.203125q0 -0.109375 0.078125 -0.171875q0.09375 -0.078125 0.28125 -0.078125l1.296875 0l0 -4.4375l-0.984375 0q-0.1875 0 -0.28125 -0.078125q-0.078125 -0.078125 -0.078125 -0.203125q0 -0.109375 0.078125 -0.1875q0.078125 -0.078125 0.28125 -0.078125l1.515625 0zm7.3481445 3.125l0 2.375l-1.25 0q-0.1875 0 -0.265625 -0.078125q-0.078125 -0.078125 -0.078125 -0.1875q0 -0.125 0.078125 -0.1875q0.078125 -0.078125 0.265625 -0.078125l0.71875 0l0 -6.890625l-0.71875 0q-0.1875 0 -0.265625 -0.078125q-0.078125 -0.078125 -0.078125 -0.203125q0 -0.109375 0.078125 -0.1875q0.078125 -0.078125 0.265625 -0.078125l1.25 0l0 4.921875l2.265625 -1.90625l-0.265625 0q-0.1875 0 -0.28125 -0.078125q-0.078125 -0.078125 -0.078125 -0.1875q0 -0.125 0.078125 -0.203125q0.09375 -0.078125 0.28125 -0.078125l1.703125 0q0.203125 0 0.28125 0.078125q0.078125 0.078125 0.078125 0.203125q0 0.109375 -0.078125 0.1875q-0.078125 0.078125 -0.28125 0.078125l-0.609375 0l-2.078125 1.734375l2.625 2.6875l0.625 0q0.1875 0 0.265625 0.078125q0.09375 0.0625 0.09375 0.1875q0 0.109375 -0.09375 0.1875q-0.078125 0.078125 -0.265625 0.078125l-1.734375 0q-0.1875 0 -0.28125 -0.078125q-0.078125 -0.078125 -0.078125 -0.1875q0 -0.125 0.078125 -0.1875q0.09375 -0.078125 0.28125 -0.078125l0.375 0l-2.296875 -2.359375l-0.609375 0.515625zm10.64502 -2.765625q0 -0.1875 0.078125 -0.265625q0.078125 -0.09375 0.1875 -0.09375q0.125 0 0.203125 0.09375q0.078125 0.078125 0.078125 0.265625l0 0.921875q0 0.1875 -0.078125 0.28125q-0.078125 0.078125 -0.203125 0.078125q-0.09375 0 -0.171875 -0.0625q-0.078125 -0.078125 -0.09375 -0.25q-0.03125 -0.375 -0.390625 -0.625q-0.515625 -0.34375 -1.375 -0.34375q-0.890625 0 -1.390625 0.359375q-0.375 0.265625 -0.375 0.609375q0 0.375 0.453125 0.625q0.296875 0.1875 1.140625 0.28125q1.125 0.109375 1.546875 0.265625q0.625 0.21875 0.921875 0.625q0.296875 0.390625 0.296875 0.84375q0 0.6875 -0.65625 1.21875q-0.640625 0.515625 -1.90625 0.515625q-1.265625 0 -2.078125 -0.640625q0 0.21875 -0.03125 0.28125q-0.015625 0.0625 -0.09375 0.109375q-0.0625 0.046875 -0.140625 0.046875q-0.109375 0 -0.1875 -0.078125q-0.078125 -0.09375 -0.078125 -0.28125l0 -1.09375q0 -0.1875 0.0625 -0.265625q0.078125 -0.09375 0.203125 -0.09375q0.109375 0 0.1875 0.078125q0.09375 0.078125 0.09375 0.21875q0 0.296875 0.140625 0.484375q0.21875 0.3125 0.703125 0.515625q0.484375 0.1875 1.1875 0.1875q1.046875 0 1.546875 -0.375q0.515625 -0.390625 0.515625 -0.828125q0 -0.5 -0.515625 -0.796875q-0.515625 -0.296875 -1.515625 -0.390625q-0.984375 -0.109375 -1.421875 -0.265625q-0.4375 -0.171875 -0.671875 -0.5q-0.234375 -0.328125 -0.234375 -0.71875q0 -0.671875 0.671875 -1.078125q0.671875 -0.40625 1.59375 -0.40625q1.109375 0 1.796875 0.546875zm4.9575195 -0.359375l2.890625 0q0.1875 0 0.265625 0.078125q0.09375 0.078125 0.09375 0.203125q0 0.109375 -0.09375 0.1875q-0.078125 0.078125 -0.265625 0.078125l-2.890625 0l0 3.546875q0 0.453125 0.359375 0.765625q0.375 0.3125 1.09375 0.3125q0.546875 0 1.171875 -0.15625q0.625 -0.15625 0.96875 -0.359375q0.125 -0.09375 0.21875 -0.09375q0.09375 0 0.171875 0.078125q0.078125 0.078125 0.078125 0.1875q0 0.09375 -0.078125 0.1875q-0.203125 0.203125 -1.0 0.453125q-0.78125 0.234375 -1.5 0.234375q-0.921875 0 -1.484375 -0.4375q-0.546875 -0.4375 -0.546875 -1.171875l0 -3.546875l-0.984375 0q-0.1875 0 -0.28125 -0.078125q-0.078125 -0.078125 -0.078125 -0.203125q0 -0.109375 0.078125 -0.1875q0.09375 -0.078125 0.28125 -0.078125l0.984375 0l0 -1.578125q0 -0.1875 0.078125 -0.265625q0.078125 -0.078125 0.1875 -0.078125q0.125 0 0.203125 0.078125q0.078125 0.078125 0.078125 0.265625l0 1.578125zm10.42627 5.5l0 -0.765625q-1.171875 0.96875 -2.484375 0.96875q-0.953125 0 -1.5 -0.484375q-0.53125 -0.484375 -0.53125 -1.1875q0 -0.765625 0.703125 -1.34375q0.71875 -0.578125 2.078125 -0.578125q0.359375 0 0.796875 0.046875q0.4375 0.046875 0.9375 0.140625l0 -0.859375q0 -0.4375 -0.40625 -0.75q-0.40625 -0.328125 -1.21875 -0.328125q-0.625 0 -1.75 0.359375q-0.203125 0.0625 -0.265625 0.0625q-0.09375 0 -0.171875 -0.078125q-0.0625 -0.078125 -0.0625 -0.1875q0 -0.109375 0.0625 -0.171875q0.078125 -0.09375 0.71875 -0.265625q0.984375 -0.265625 1.484375 -0.265625q1.015625 0 1.578125 0.5q0.5625 0.5 0.5625 1.125l0 3.53125l0.71875 0q0.1875 0 0.265625 0.078125q0.09375 0.0625 0.09375 0.1875q0 0.109375 -0.09375 0.1875q-0.078125 0.078125 -0.265625 0.078125l-1.25 0zm0 -2.65625q-0.375 -0.109375 -0.796875 -0.15625q-0.421875 -0.046875 -0.875 -0.046875q-1.171875 0 -1.828125 0.5q-0.484375 0.375 -0.484375 0.890625q0 0.484375 0.375 0.8125q0.375 0.328125 1.09375 0.328125q0.703125 0 1.296875 -0.265625q0.59375 -0.28125 1.21875 -0.890625l0 -1.171875zm5.1762695 -2.84375l2.890625 0q0.1875 0 0.265625 0.078125q0.09375 0.078125 0.09375 0.203125q0 0.109375 -0.09375 0.1875q-0.078125 0.078125 -0.265625 0.078125l-2.890625 0l0 3.546875q0 0.453125 0.359375 0.765625q0.375 0.3125 1.09375 0.3125q0.546875 0 1.171875 -0.15625q0.625 -0.15625 0.96875 -0.359375q0.125 -0.09375 0.21875 -0.09375q0.09375 0 0.171875 0.078125q0.078125 0.078125 0.078125 0.1875q0 0.09375 -0.078125 0.1875q-0.203125 0.203125 -1.0 0.453125q-0.78125 0.234375 -1.5 0.234375q-0.921875 0 -1.484375 -0.4375q-0.546875 -0.4375 -0.546875 -1.171875l0 -3.546875l-0.984375 0q-0.1875 0 -0.28125 -0.078125q-0.078125 -0.078125 -0.078125 -0.203125q0 -0.109375 0.078125 -0.1875q0.09375 -0.078125 0.28125 -0.078125l0.984375 0l0 -1.578125q0 -0.1875 0.078125 -0.265625q0.078125 -0.078125 0.1875 -0.078125q0.125 0 0.203125 0.078125q0.078125 0.078125 0.078125 0.265625l0 1.578125zm9.160645 -2.734375l0 1.375l-0.796875 0l0 -1.375l0.796875 0zm0.015625 2.734375l0 4.96875l2.09375 0q0.1875 0 0.265625 0.078125q0.09375 0.0625 0.09375 0.1875q0 0.109375 -0.09375 0.1875q-0.078125 0.078125 -0.265625 0.078125l-4.71875 0q-0.203125 0 -0.28125 -0.078125q-0.078125 -0.078125 -0.078125 -0.1875q0 -0.125 0.078125 -0.1875q0.078125 -0.078125 0.28125 -0.078125l2.09375 0l0 -4.421875l-1.5625 0q-0.1875 0 -0.28125 -0.078125q-0.078125 -0.078125 -0.078125 -0.1875q0 -0.125 0.078125 -0.203125q0.078125 -0.078125 0.28125 -0.078125l2.09375 0zm10.48877 2.765625q0 1.21875 -0.875 2.078125q-0.859375 0.859375 -2.09375 0.859375q-1.25 0 -2.125 -0.859375q-0.859375 -0.875 -0.859375 -2.078125q0 -1.21875 0.859375 -2.078125q0.875 -0.875 2.125 -0.875q1.234375 0 2.09375 0.859375q0.875 0.859375 0.875 2.09375zm-0.53125 0q0 -1.0 -0.71875 -1.703125q-0.71875 -0.703125 -1.734375 -0.703125q-1.015625 0 -1.734375 0.703125q-0.703125 0.703125 -0.703125 1.703125q0 0.984375 0.703125 1.703125q0.71875 0.703125 1.734375 0.703125q1.015625 0 1.734375 -0.703125q0.71875 -0.703125 0.71875 -1.703125zm3.6293945 -2.765625l0 0.8125q0.5625 -0.5625 1.015625 -0.78125q0.453125 -0.21875 1.015625 -0.21875q0.609375 0 1.109375 0.265625q0.359375 0.1875 0.640625 0.625q0.296875 0.4375 0.296875 0.90625l0 3.359375l0.453125 0q0.1875 0 0.265625 0.078125q0.078125 0.0625 0.078125 0.1875q0 0.109375 -0.078125 0.1875q-0.078125 0.078125 -0.265625 0.078125l-1.4375 0q-0.1875 0 -0.28125 -0.078125q-0.078125 -0.078125 -0.078125 -0.1875q0 -0.125 0.078125 -0.1875q0.09375 -0.078125 0.28125 -0.078125l0.453125 0l0 -3.265625q0 -0.578125 -0.421875 -0.953125q-0.40625 -0.390625 -1.09375 -0.390625q-0.53125 0 -0.921875 0.21875q-0.390625 0.203125 -1.109375 1.046875l0 3.34375l0.609375 0q0.1875 0 0.265625 0.078125q0.09375 0.0625 0.09375 0.1875q0 0.109375 -0.09375 0.1875q-0.078125 0.078125 -0.265625 0.078125l-1.734375 0q-0.203125 0 -0.28125 -0.078125q-0.078125 -0.078125 -0.078125 -0.1875q0 -0.125 0.078125 -0.1875q0.078125 -0.078125 0.28125 -0.078125l0.59375 0l0 -4.421875l-0.453125 0q-0.1875 0 -0.265625 -0.078125q-0.078125 -0.078125 -0.078125 -0.203125q0 -0.109375 0.078125 -0.1875q0.078125 -0.078125 0.265625 -0.078125l0.984375 0z" fill-rule="nonzero"/><path fill="#000000" fill-opacity="0.0" d="m217.94492 94.46457l105.19687 -0.81890106" fill-rule="evenodd"/><path stroke="#595959" stroke-width="1.0" stroke-linejoin="round" stroke-linecap="butt" d="m217.94492 94.46457l99.19705 -0.77220154" fill-rule="evenodd"/><path fill="#595959" stroke="#595959" stroke-width="1.0" stroke-linecap="butt" d="m317.15482 95.344055l4.5250854 -1.6870041l-4.550812 -1.6163559z" fill-rule="evenodd"/><path fill="#ffffff" d="m643.14294 83.89536l0 0c0 -2.693344 2.1834106 -4.8767395 4.87677 -4.8767395l150.12054 0c1.293396 0 2.5338135 0.5138016 3.4483643 1.4283676c0.9145508 0.91456604 1.4283447 2.1549835 1.4283447 3.448372l0 19.50637c0 2.693344 -2.1834106 4.876732 -4.876709 4.876732l-150.12054 0c-2.6933594 0 -4.87677 -2.1833878 -4.87677 -4.876732z" fill-rule="evenodd"/><path stroke="#595959" stroke-width="1.0" stroke-linejoin="round" stroke-linecap="butt" d="m643.14294 83.89536l0 0c0 -2.693344 2.1834106 -4.8767395 4.87677 -4.8767395l150.12054 0c1.293396 0 2.5338135 0.5138016 3.4483643 1.4283676c0.9145508 0.91456604 1.4283447 2.1549835 1.4283447 3.448372l0 19.50637c0 2.693344 -2.1834106 4.876732 -4.876709 4.876732l-150.12054 0c-2.6933594 0 -4.87677 -2.1833878 -4.87677 -4.876732z" fill-rule="evenodd"/><path fill="#000000" fill-opacity="0.0" d="m651.4882 93.53774l0 0c0 -2.6527023 2.1504517 -4.8031464 4.8031616 -4.8031464l0 0c1.2738647 0 2.4955444 0.5060425 3.3963623 1.406807c0.90075684 0.90076447 1.4067993 2.122467 1.4067993 3.3963394l0 0c0 2.65271 -2.1504517 4.803154 -4.8031616 4.803154l0 0c-2.65271 0 -4.8031616 -2.150444 -4.8031616 -4.803154z" fill-rule="evenodd"/><path stroke="#595959" stroke-width="1.0" stroke-linejoin="round" stroke-linecap="butt" d="m651.4882 93.53774l0 0c0 -2.6527023 2.1504517 -4.8031464 4.8031616 -4.8031464l0 0c1.2738647 0 2.4955444 0.5060425 3.3963623 1.406807c0.90075684 0.90076447 1.4067993 2.122467 1.4067993 3.3963394l0 0c0 2.65271 -2.1504517 4.803154 -4.8031616 4.803154l0 0c-2.65271 0 -4.8031616 -2.150444 -4.8031616 -4.803154z" fill-rule="evenodd"/><path fill="#000000" fill-opacity="0.0" d="m667.4882 93.53774l0 0c0 -2.6527023 2.1504517 -4.8031464 4.8031616 -4.8031464l0 0c1.2738647 0 2.4955444 0.5060425 3.3963623 1.406807c0.90075684 0.90076447 1.4067993 2.122467 1.4067993 3.3963394l0 0c0 2.65271 -2.1504517 4.803154 -4.8031616 4.803154l0 0c-2.65271 0 -4.8031616 -2.150444 -4.8031616 -4.803154z" fill-rule="evenodd"/><path stroke="#595959" stroke-width="1.0" stroke-linejoin="round" stroke-linecap="butt" d="m667.4882 93.53774l0 0c0 -2.6527023 2.1504517 -4.8031464 4.8031616 -4.8031464l0 0c1.2738647 0 2.4955444 0.5060425 3.3963623 1.406807c0.90075684 0.90076447 1.4067993 2.122467 1.4067993 3.3963394l0 0c0 2.65271 -2.1504517 4.803154 -4.8031616 4.803154l0 0c-2.65271 0 -4.8031616 -2.150444 -4.8031616 -4.803154z" fill-rule="evenodd"/><path fill="#000000" fill-opacity="0.0" d="m685.491 93.53774l108.944885 0" fill-rule="evenodd"/><path stroke="#595959" stroke-width="1.0" stroke-linejoin="round" stroke-linecap="butt" d="m685.491 93.53774l108.944885 0" fill-rule="evenodd"/><path fill="#000000" fill-opacity="0.0" d="m643.1418 44.199474l159.87402 0l0 35.559055l-159.87402 0z" fill-rule="evenodd"/><path fill="#000000" d="m681.9587 61.48385l0 -0.984375l1.25 0q0.203125 0 0.28125 0.078125q0.078125 0.078125 0.078125 0.203125q0 0.109375 -0.078125 0.1875q-0.078125 0.078125 -0.28125 0.078125l-0.703125 0l0 5.328125q0 0.53125 -0.234375 0.953125q-0.15625 0.265625 -0.515625 0.5625q-0.34375 0.3125 -0.640625 0.4375q-0.296875 0.125 -0.78125 0.125l-1.515625 0q-0.1875 0 -0.265625 -0.078125q-0.078125 -0.078125 -0.078125 -0.1875q0 -0.125 0.078125 -0.203125q0.078125 -0.078125 0.265625 -0.078125l1.53125 0.015625q0.46875 0 0.84375 -0.25q0.390625 -0.234375 0.625 -0.703125q0.140625 -0.265625 0.140625 -0.671875l0 -1.609375q-0.84375 1.171875 -2.203125 1.171875q-1.09375 0 -1.890625 -0.8125q-0.796875 -0.8125 -0.796875 -1.953125q0 -1.15625 0.796875 -1.96875q0.796875 -0.8125 1.890625 -0.8125q1.359375 0 2.203125 1.171875zm0 1.609375q0 -0.953125 -0.640625 -1.59375q-0.640625 -0.640625 -1.53125 -0.640625q-0.90625 0 -1.546875 0.65625q-0.640625 0.640625 -0.640625 1.578125q0 0.9375 0.640625 1.59375q0.640625 0.640625 1.546875 0.640625q0.890625 0 1.53125 -0.640625q0.640625 -0.65625 0.640625 -1.59375zm5.3793945 -2.59375l0 1.34375q1.03125 -0.9375 1.546875 -1.203125q0.53125 -0.265625 0.96875 -0.265625q0.46875 0 0.875 0.328125q0.421875 0.3125 0.421875 0.46875q0 0.125 -0.09375 0.203125q-0.078125 0.078125 -0.1875 0.078125q-0.0625 0 -0.109375 -0.015625q-0.046875 -0.03125 -0.171875 -0.140625q-0.21875 -0.234375 -0.390625 -0.3125q-0.15625 -0.078125 -0.3125 -0.078125q-0.359375 0 -0.859375 0.28125q-0.484375 0.28125 -1.6875 1.359375l0 2.921875l2.359375 0q0.203125 0 0.28125 0.078125q0.078125 0.0625 0.078125 0.1875q0 0.109375 -0.078125 0.1875q-0.078125 0.078125 -0.28125 0.078125l-4.1875 0q-0.1875 0 -0.28125 -0.0625q-0.078125 -0.078125 -0.078125 -0.203125q0 -0.109375 0.078125 -0.171875q0.09375 -0.078125 0.28125 -0.078125l1.296875 0l0 -4.4375l-0.984375 0q-0.1875 0 -0.28125 -0.078125q-0.078125 -0.078125 -0.078125 -0.203125q0 -0.109375 0.078125 -0.1875q0.078125 -0.078125 0.28125 -0.078125l1.515625 0zm9.973145 5.5l0 -0.765625q-1.171875 0.96875 -2.484375 0.96875q-0.953125 0 -1.5 -0.484375q-0.53125 -0.484375 -0.53125 -1.1875q0 -0.765625 0.703125 -1.34375q0.71875 -0.578125 2.078125 -0.578125q0.359375 0 0.796875 0.046875q0.4375 0.046875 0.9375 0.140625l0 -0.859375q0 -0.4375 -0.40625 -0.75q-0.40625 -0.328125 -1.21875 -0.328125q-0.625 0 -1.75 0.359375q-0.203125 0.0625 -0.265625 0.0625q-0.09375 0 -0.171875 -0.078125q-0.0625 -0.078125 -0.0625 -0.1875q0 -0.109375 0.0625 -0.171875q0.078125 -0.09375 0.71875 -0.265625q0.984375 -0.265625 1.484375 -0.265625q1.015625 0 1.578125 0.5q0.5625 0.5 0.5625 1.125l0 3.53125l0.71875 0q0.1875 0 0.265625 0.078125q0.09375 0.0625 0.09375 0.1875q0 0.109375 -0.09375 0.1875q-0.078125 0.078125 -0.265625 0.078125l-1.25 0zm0 -2.65625q-0.375 -0.109375 -0.796875 -0.15625q-0.421875 -0.046875 -0.875 -0.046875q-1.171875 0 -1.828125 0.5q-0.484375 0.375 -0.484375 0.890625q0 0.484375 0.375 0.8125q0.375 0.328125 1.09375 0.328125q0.703125 0 1.296875 -0.265625q0.59375 -0.28125 1.21875 -0.890625l0 -1.171875zm4.2543945 -5.3125l0 3.53125q0.96875 -1.25 2.328125 -1.25q1.171875 0 2.0 0.84375q0.828125 0.84375 0.828125 2.078125q0 1.25 -0.84375 2.109375q-0.828125 0.859375 -1.984375 0.859375q-1.390625 0 -2.328125 -1.25l0 1.046875l-1.25 0q-0.1875 0 -0.28125 -0.078125q-0.078125 -0.078125 -0.078125 -0.1875q0 -0.125 0.078125 -0.1875q0.09375 -0.078125 0.28125 -0.078125l0.71875 0l0 -6.890625l-0.71875 0q-0.1875 0 -0.28125 -0.078125q-0.078125 -0.078125 -0.078125 -0.203125q0 -0.109375 0.078125 -0.1875q0.09375 -0.078125 0.28125 -0.078125l1.25 0zm4.625 5.234375q0 -1.015625 -0.6875 -1.703125q-0.6875 -0.703125 -1.625 -0.703125q-0.921875 0 -1.625 0.703125q-0.6875 0.6875 -0.6875 1.703125q0 1.0 0.6875 1.703125q0.703125 0.703125 1.625 0.703125q0.9375 0 1.625 -0.703125q0.6875 -0.703125 0.6875 -1.703125zm6.7231445 2.734375l0 -0.765625q-1.171875 0.96875 -2.484375 0.96875q-0.953125 0 -1.5 -0.484375q-0.53125 -0.484375 -0.53125 -1.1875q0 -0.765625 0.703125 -1.34375q0.71875 -0.578125 2.078125 -0.578125q0.359375 0 0.796875 0.046875q0.4375 0.046875 0.9375 0.140625l0 -0.859375q0 -0.4375 -0.40625 -0.75q-0.40625 -0.328125 -1.21875 -0.328125q-0.625 0 -1.75 0.359375q-0.203125 0.0625 -0.265625 0.0625q-0.09375 0 -0.171875 -0.078125q-0.0625 -0.078125 -0.0625 -0.1875q0 -0.109375 0.0625 -0.171875q0.078125 -0.09375 0.71875 -0.265625q0.984375 -0.265625 1.484375 -0.265625q1.015625 0 1.578125 0.5q0.5625 0.5 0.5625 1.125l0 3.53125l0.71875 0q0.1875 0 0.265625 0.078125q0.09375 0.0625 0.09375 0.1875q0 0.109375 -0.09375 0.1875q-0.078125 0.078125 -0.265625 0.078125l-1.25 0zm0 -2.65625q-0.375 -0.109375 -0.796875 -0.15625q-0.421875 -0.046875 -0.875 -0.046875q-1.171875 0 -1.828125 0.5q-0.484375 0.375 -0.484375 0.890625q0 0.484375 0.375 0.8125q0.375 0.328125 1.09375 0.328125q0.703125 0 1.296875 -0.265625q0.59375 -0.28125 1.21875 -0.890625l0 -1.171875zm5.1762695 0.28125l0 2.375l-1.25 0q-0.1875 0 -0.265625 -0.078125q-0.078125 -0.078125 -0.078125 -0.1875q0 -0.125 0.078125 -0.1875q0.078125 -0.078125 0.265625 -0.078125l0.71875 0l0 -6.890625l-0.71875 0q-0.1875 0 -0.265625 -0.078125q-0.078125 -0.078125 -0.078125 -0.203125q0 -0.109375 0.078125 -0.1875q0.078125 -0.078125 0.265625 -0.078125l1.25 0l0 4.921875l2.265625 -1.90625l-0.265625 0q-0.1875 0 -0.28125 -0.078125q-0.078125 -0.078125 -0.078125 -0.1875q0 -0.125 0.078125 -0.203125q0.09375 -0.078125 0.28125 -0.078125l1.703125 0q0.203125 0 0.28125 0.078125q0.078125 0.078125 0.078125 0.203125q0 0.109375 -0.078125 0.1875q-0.078125 0.078125 -0.28125 0.078125l-0.609375 0l-2.078125 1.734375l2.625 2.6875l0.625 0q0.1875 0 0.265625 0.078125q0.09375 0.0625 0.09375 0.1875q0 0.109375 -0.09375 0.1875q-0.078125 0.078125 -0.265625 0.078125l-1.734375 0q-0.1875 0 -0.28125 -0.078125q-0.078125 -0.078125 -0.078125 -0.1875q0 -0.125 0.078125 -0.1875q0.09375 -0.078125 0.28125 -0.078125l0.375 0l-2.296875 -2.359375l-0.609375 0.515625zm11.77002 -0.25l-5.421875 0q0.125 1.03125 0.859375 1.671875q0.734375 0.625 1.796875 0.625q0.59375 0 1.25 -0.1875q0.65625 -0.203125 1.0625 -0.53125q0.125 -0.09375 0.21875 -0.09375q0.09375 0 0.171875 0.078125q0.078125 0.078125 0.078125 0.1875q0 0.109375 -0.09375 0.21875q-0.3125 0.3125 -1.09375 0.59375q-0.765625 0.265625 -1.59375 0.265625q-1.375 0 -2.296875 -0.890625q-0.90625 -0.90625 -0.90625 -2.171875q0 -1.171875 0.859375 -2.0q0.859375 -0.828125 2.125 -0.828125q1.3125 0 2.15625 0.859375q0.84375 0.84375 0.828125 2.203125zm-0.53125 -0.53125q-0.15625 -0.890625 -0.84375 -1.4375q-0.671875 -0.546875 -1.609375 -0.546875q-0.921875 0 -1.59375 0.546875q-0.671875 0.53125 -0.84375 1.4375l4.890625 0zm5.4887695 3.15625l-2.484375 -4.953125l-0.15625 0q-0.1875 0 -0.265625 -0.078125q-0.078125 -0.078125 -0.078125 -0.1875q0 -0.09375 0.03125 -0.15625q0.046875 -0.0625 0.109375 -0.09375q0.0625 -0.03125 0.203125 -0.03125l1.46875 0q0.1875 0 0.265625 0.078125q0.078125 0.078125 0.078125 0.203125q0 0.109375 -0.078125 0.1875q-0.078125 0.078125 -0.265625 0.078125l-0.71875 0l2.171875 4.375l2.140625 -4.375l-0.703125 0q-0.203125 0 -0.28125 -0.078125q-0.078125 -0.078125 -0.078125 -0.203125q0 -0.109375 0.078125 -0.1875q0.078125 -0.078125 0.28125 -0.078125l1.453125 0q0.1875 0 0.265625 0.078125q0.09375 0.078125 0.09375 0.203125q0 0.078125 -0.0625 0.15625q-0.046875 0.0625 -0.109375 0.09375q-0.0625 0.015625 -0.359375 0.015625l-3.375 6.875l0.84375 0q0.1875 0 0.265625 0.0625q0.078125 0.078125 0.078125 0.203125q0 0.109375 -0.078125 0.1875q-0.078125 0.078125 -0.265625 0.078125l-3.078125 0q-0.1875 0 -0.28125 -0.078125q-0.078125 -0.078125 -0.078125 -0.1875q0 -0.125 0.078125 -0.203125q0.09375 -0.0625 0.28125 -0.0625l1.671875 0l0.9375 -1.921875zm7.6606445 -1.53125l0.21875 0q0.359375 0 0.609375 0.25q0.25 0.25 0.25 0.609375q0 0.359375 -0.25 0.609375q-0.25 0.25 -0.609375 0.25l-0.21875 0q-0.359375 0 -0.625 -0.25q-0.25 -0.25 -0.25 -0.609375q0 -0.359375 0.25 -0.609375q0.265625 -0.25 0.625 -0.25zm10.879395 -1.203125q0 1.21875 -0.875 2.078125q-0.859375 0.859375 -2.09375 0.859375q-1.25 0 -2.125 -0.859375q-0.859375 -0.875 -0.859375 -2.078125q0 -1.21875 0.859375 -2.078125q0.875 -0.875 2.125 -0.875q1.234375 0 2.09375 0.859375q0.875 0.859375 0.875 2.09375zm-0.53125 0q0 -1.0 -0.71875 -1.703125q-0.71875 -0.703125 -1.734375 -0.703125q-1.015625 0 -1.734375 0.703125q-0.703125 0.703125 -0.703125 1.703125q0 0.984375 0.703125 1.703125q0.71875 0.703125 1.734375 0.703125q1.015625 0 1.734375 -0.703125q0.71875 -0.703125 0.71875 -1.703125zm4.7231445 -2.765625l0 1.34375q1.03125 -0.9375 1.546875 -1.203125q0.53125 -0.265625 0.96875 -0.265625q0.46875 0 0.875 0.328125q0.421875 0.3125 0.421875 0.46875q0 0.125 -0.09375 0.203125q-0.078125 0.078125 -0.1875 0.078125q-0.0625 0 -0.109375 -0.015625q-0.046875 -0.03125 -0.171875 -0.140625q-0.21875 -0.234375 -0.390625 -0.3125q-0.15625 -0.078125 -0.3125 -0.078125q-0.359375 0 -0.859375 0.28125q-0.484375 0.28125 -1.6875 1.359375l0 2.921875l2.359375 0q0.203125 0 0.28125 0.078125q0.078125 0.0625 0.078125 0.1875q0 0.109375 -0.078125 0.1875q-0.078125 0.078125 -0.28125 0.078125l-4.1875 0q-0.1875 0 -0.28125 -0.0625q-0.078125 -0.078125 -0.078125 -0.203125q0 -0.109375 0.078125 -0.171875q0.09375 -0.078125 0.28125 -0.078125l1.296875 0l0 -4.4375l-0.984375 0q-0.1875 0 -0.28125 -0.078125q-0.078125 -0.078125 -0.078125 -0.203125q0 -0.109375 0.078125 -0.1875q0.078125 -0.078125 0.28125 -0.078125l1.515625 0zm10.223145 0.984375l0 -0.984375l1.25 0q0.203125 0 0.28125 0.078125q0.078125 0.078125 0.078125 0.203125q0 0.109375 -0.078125 0.1875q-0.078125 0.078125 -0.28125 0.078125l-0.703125 0l0 5.328125q0 0.53125 -0.234375 0.953125q-0.15625 0.265625 -0.515625 0.5625q-0.34375 0.3125 -0.640625 0.4375q-0.296875 0.125 -0.78125 0.125l-1.515625 0q-0.1875 0 -0.265625 -0.078125q-0.078125 -0.078125 -0.078125 -0.1875q0 -0.125 0.078125 -0.203125q0.078125 -0.078125 0.265625 -0.078125l1.53125 0.015625q0.46875 0 0.84375 -0.25q0.390625 -0.234375 0.625 -0.703125q0.140625 -0.265625 0.140625 -0.671875l0 -1.609375q-0.84375 1.171875 -2.203125 1.171875q-1.09375 0 -1.890625 -0.8125q-0.796875 -0.8125 -0.796875 -1.953125q0 -1.15625 0.796875 -1.96875q0.796875 -0.8125 1.890625 -0.8125q1.359375 0 2.203125 1.171875zm0 1.609375q0 -0.953125 -0.640625 -1.59375q-0.640625 -0.640625 -1.53125 -0.640625q-0.90625 0 -1.546875 0.65625q-0.640625 0.640625 -0.640625 1.578125q0 0.9375 0.640625 1.59375q0.640625 0.640625 1.546875 0.640625q0.890625 0 1.53125 -0.640625q0.640625 -0.65625 0.640625 -1.59375z" fill-rule="nonzero"/><path fill="#000000" fill-opacity="0.0" d="m483.01697 93.648544l160.12598 0" fill-rule="evenodd"/><path stroke="#595959" stroke-width="1.0" stroke-linejoin="round" stroke-linecap="butt" d="m483.01697 93.64855l154.12598 0" fill-rule="evenodd"/><path fill="#595959" stroke="#595959" stroke-width="1.0" stroke-linecap="butt" d="m637.14294 95.300285l4.538086 -1.6517334l-4.538086 -1.6517334z" fill-rule="evenodd"/><path fill="#000000" fill-opacity="0.0" d="m227.14177 63.535435l88.000015 0l0 35.559055l-88.000015 0z" fill-rule="evenodd"/><path fill="#000000" d="m255.81047 77.366684l0 7.4375l2.0937653 0q0.203125 0 0.28125 0.078125q0.078125 0.0625 0.078125 0.1875q0 0.109375 -0.078125 0.1875q-0.078125 0.078125 -0.28125 0.078125l-4.7187653 0q-0.1875 0 -0.28125 -0.078125q-0.078125 -0.078125 -0.078125 -0.1875q0 -0.125 0.078125 -0.1875q0.09375 -0.078125 0.28125 -0.078125l2.09375 0l0 -6.890625l-1.546875 0q-0.1875 0 -0.28125 -0.078125q-0.078125 -0.078125 -0.078125 -0.203125q0 -0.109375 0.078125 -0.1875q0.09375 -0.078125 0.28125 -0.078125l2.078125 0zm10.50441 5.234375q0 1.21875 -0.875 2.078125q-0.859375 0.859375 -2.09375 0.859375q-1.25 0 -2.125 -0.859375q-0.859375 -0.875 -0.859375 -2.078125q0 -1.21875 0.859375 -2.078125q0.875 -0.875 2.125 -0.875q1.234375 0 2.09375 0.859375q0.875 0.859375 0.875 2.09375zm-0.53125 0q0 -1.0 -0.71875 -1.703125q-0.71875 -0.703125 -1.734375 -0.703125q-1.015625 0 -1.734375 0.703125q-0.703125 0.703125 -0.703125 1.703125q0 0.984375 0.703125 1.703125q0.71875 0.703125 1.734375 0.703125q1.015625 0 1.734375 -0.703125q0.71875 -0.703125 0.71875 -1.703125zm7.1450195 -1.78125l0 -0.984375l1.25 0q0.203125 0 0.28125 0.078125q0.078125 0.078125 0.078125 0.203125q0 0.109375 -0.078125 0.1875q-0.078125 0.078125 -0.28125 0.078125l-0.703125 0l0 5.328125q0 0.53125 -0.234375 0.953125q-0.15625 0.265625 -0.515625 0.5625q-0.34375 0.3125 -0.640625 0.4375q-0.296875 0.125 -0.78125 0.125l-1.515625 0q-0.1875 0 -0.265625 -0.078125q-0.078125 -0.078125 -0.078125 -0.1875q0 -0.125 0.078125 -0.203125q0.078125 -0.078125 0.265625 -0.078125l1.53125 0.015625q0.46875 0 0.84375 -0.25q0.390625 -0.234375 0.625 -0.703125q0.140625 -0.265625 0.140625 -0.671875l0 -1.609375q-0.84375 1.171875 -2.203125 1.171875q-1.09375 0 -1.890625 -0.8125q-0.796875 -0.8125 -0.796875 -1.953125q0 -1.15625 0.796875 -1.96875q0.796875 -0.8125 1.890625 -0.8125q1.359375 0 2.203125 1.171875zm0 1.609375q0 -0.953125 -0.640625 -1.59375q-0.640625 -0.640625 -1.53125 -0.640625q-0.90625 0 -1.546875 0.65625q-0.640625 0.640625 -0.640625 1.578125q0 0.9375 0.640625 1.59375q0.640625 0.640625 1.546875 0.640625q0.890625 0 1.53125 -0.640625q0.640625 -0.65625 0.640625 -1.59375zm6.2856445 -5.328125l0 1.375l-0.796875 0l0 -1.375l0.796875 0zm0.015625 2.734375l0 4.96875l2.09375 0q0.1875 0 0.265625 0.078125q0.09375 0.0625 0.09375 0.1875q0 0.109375 -0.09375 0.1875q-0.078125 0.078125 -0.265625 0.078125l-4.71875 0q-0.203125 0 -0.28125 -0.078125q-0.078125 -0.078125 -0.078125 -0.1875q0 -0.125 0.078125 -0.1875q0.078125 -0.078125 0.28125 -0.078125l2.09375 0l0 -4.421875l-1.5625 0q-0.1875 0 -0.28125 -0.078125q-0.078125 -0.078125 -0.078125 -0.1875q0 -0.125 0.078125 -0.203125q0.078125 -0.078125 0.28125 -0.078125l2.09375 0zm5.7856445 0l0 0.8125q0.5625 -0.5625 1.015625 -0.78125q0.453125 -0.21875 1.015625 -0.21875q0.609375 0 1.109375 0.265625q0.359375 0.1875 0.640625 0.625q0.296875 0.4375 0.296875 0.90625l0 3.359375l0.453125 0q0.1875 0 0.265625 0.078125q0.078125 0.0625 0.078125 0.1875q0 0.109375 -0.078125 0.1875q-0.078125 0.078125 -0.265625 0.078125l-1.4375 0q-0.1875 0 -0.28125 -0.078125q-0.078125 -0.078125 -0.078125 -0.1875q0 -0.125 0.078125 -0.1875q0.09375 -0.078125 0.28125 -0.078125l0.453125 0l0 -3.265625q0 -0.578125 -0.421875 -0.953125q-0.40625 -0.390625 -1.09375 -0.390625q-0.53125 0 -0.921875 0.21875q-0.390625 0.203125 -1.109375 1.046875l0 3.34375l0.609375 0q0.1875 0 0.265625 0.078125q0.09375 0.0625 0.09375 0.1875q0 0.109375 -0.09375 0.1875q-0.078125 0.078125 -0.265625 0.078125l-1.734375 0q-0.203125 0 -0.28125 -0.078125q-0.078125 -0.078125 -0.078125 -0.1875q0 -0.125 0.078125 -0.1875q0.078125 -0.078125 0.28125 -0.078125l0.59375 0l0 -4.421875l-0.453125 0q-0.1875 0 -0.265625 -0.078125q-0.078125 -0.078125 -0.078125 -0.203125q0 -0.109375 0.078125 -0.1875q0.078125 -0.078125 0.265625 -0.078125l0.984375 0z" fill-rule="nonzero"/><path fill="#000000" fill-opacity="0.0" d="m512.2022 63.535435l100.12598 0l0 35.559055l-100.12598 0z" fill-rule="evenodd"/><path fill="#000000" d="m528.94635 80.81981l0 -0.984375l1.25 0q0.203125 0 0.28125 0.078125q0.078125 0.078125 0.078125 0.203125q0 0.109375 -0.078125 0.1875q-0.078125 0.078125 -0.28125 0.078125l-0.703125 0l0 5.328125q0 0.53125 -0.234375 0.953125q-0.15625 0.265625 -0.515625 0.5625q-0.34375 0.3125 -0.640625 0.4375q-0.296875 0.125 -0.78125 0.125l-1.515625 0q-0.1875 0 -0.265625 -0.078125q-0.078125 -0.078125 -0.078125 -0.1875q0 -0.125 0.078125 -0.203125q0.078125 -0.078125 0.265625 -0.078125l1.53125 0.015625q0.46875 0 0.84375 -0.25q0.390625 -0.234375 0.625 -0.703125q0.140625 -0.265625 0.140625 -0.671875l0 -1.609375q-0.84375 1.171875 -2.203125 1.171875q-1.09375 0 -1.890625 -0.8125q-0.796875 -0.8125 -0.796875 -1.953125q0 -1.15625 0.796875 -1.96875q0.796875 -0.8125 1.890625 -0.8125q1.359375 0 2.203125 1.171875zm0 1.609375q0 -0.953125 -0.640625 -1.59375q-0.640625 -0.640625 -1.53125 -0.640625q-0.90625 0 -1.546875 0.65625q-0.640625 0.640625 -0.640625 1.578125q0 0.9375 0.640625 1.59375q0.640625 0.640625 1.546875 0.640625q0.890625 0 1.53125 -0.640625q0.640625 -0.65625 0.640625 -1.59375zm8.89502 0.28125l-5.421875 0q0.125 1.03125 0.859375 1.671875q0.734375 0.625 1.796875 0.625q0.59375 0 1.25 -0.1875q0.65625 -0.203125 1.0625 -0.53125q0.125 -0.09375 0.21875 -0.09375q0.09375 0 0.171875 0.078125q0.078125 0.078125 0.078125 0.1875q0 0.109375 -0.09375 0.21875q-0.3125 0.3125 -1.09375 0.59375q-0.765625 0.265625 -1.59375 0.265625q-1.375 0 -2.296875 -0.890625q-0.90625 -0.90625 -0.90625 -2.171875q0 -1.171875 0.859375 -2.0q0.859375 -0.828125 2.125 -0.828125q1.3125 0 2.15625 0.859375q0.84375 0.84375 0.828125 2.203125zm-0.53125 -0.53125q-0.15625 -0.890625 -0.84375 -1.4375q-0.671875 -0.546875 -1.609375 -0.546875q-0.921875 0 -1.59375 0.546875q-0.671875 0.53125 -0.84375 1.4375l4.890625 0zm4.3637695 -2.34375l2.890625 0q0.1875 0 0.265625 0.078125q0.09375 0.078125 0.09375 0.203125q0 0.109375 -0.09375 0.1875q-0.078125 0.078125 -0.265625 0.078125l-2.890625 0l0 3.546875q0 0.453125 0.359375 0.765625q0.375 0.3125 1.09375 0.3125q0.546875 0 1.171875 -0.15625q0.625 -0.15625 0.96875 -0.359375q0.125 -0.09375 0.21875 -0.09375q0.09375 0 0.171875 0.078125q0.078125 0.078125 0.078125 0.1875q0 0.09375 -0.078125 0.1875q-0.203125 0.203125 -1.0 0.453125q-0.78125 0.234375 -1.5 0.234375q-0.921875 0 -1.484375 -0.4375q-0.546875 -0.4375 -0.546875 -1.171875l0 -3.546875l-0.984375 0q-0.1875 0 -0.28125 -0.078125q-0.078125 -0.078125 -0.078125 -0.203125q0 -0.109375 0.078125 -0.1875q0.09375 -0.078125 0.28125 -0.078125l0.984375 0l0 -1.578125q0 -0.1875 0.078125 -0.265625q0.078125 -0.078125 0.1875 -0.078125q0.125 0 0.203125 0.078125q0.078125 0.078125 0.078125 0.265625l0 1.578125zm14.680664 0l0 0.96875q0.484375 -0.578125 1.015625 -0.859375q0.546875 -0.296875 1.296875 -0.296875q0.78125 0 1.453125 0.375q0.671875 0.359375 1.03125 1.015625q0.359375 0.65625 0.359375 1.390625q0 1.140625 -0.828125 1.953125q-0.8125 0.8125 -2.015625 0.8125q-1.421875 0 -2.3125 -1.15625l0 3.21875l1.296875 0q0.1875 0 0.265625 0.0625q0.09375 0.078125 0.09375 0.203125q0 0.109375 -0.09375 0.1875q-0.078125 0.078125 -0.265625 0.078125l-2.546875 0q-0.1875 0 -0.28125 -0.078125q-0.078125 -0.078125 -0.078125 -0.1875q0 -0.125 0.078125 -0.203125q0.09375 -0.0625 0.28125 -0.0625l0.71875 0l0 -6.875l-0.71875 0q-0.1875 0 -0.28125 -0.078125q-0.078125 -0.078125 -0.078125 -0.203125q0 -0.109375 0.078125 -0.1875q0.09375 -0.078125 0.28125 -0.078125l1.25 0zm4.625 2.59375q0 -0.921875 -0.671875 -1.578125q-0.671875 -0.65625 -1.640625 -0.65625q-0.96875 0 -1.640625 0.65625q-0.671875 0.65625 -0.671875 1.578125q0 0.90625 0.671875 1.578125q0.671875 0.65625 1.640625 0.65625q0.96875 0 1.640625 -0.65625q0.671875 -0.65625 0.671875 -1.578125zm7.0043945 2.90625l0 -0.78125q-1.078125 0.984375 -2.359375 0.984375q-0.78125 0 -1.1875 -0.421875q-0.515625 -0.5625 -0.515625 -1.296875l0 -3.4375l-0.71875 0q-0.1875 0 -0.28125 -0.078125q-0.078125 -0.078125 -0.078125 -0.203125q0 -0.109375 0.078125 -0.1875q0.09375 -0.078125 0.28125 -0.078125l1.25 0l0 3.984375q0 0.515625 0.328125 0.859375q0.328125 0.328125 0.828125 0.328125q1.296875 0 2.375 -1.1875l0 -3.4375l-0.984375 0q-0.1875 0 -0.265625 -0.078125q-0.078125 -0.078125 -0.078125 -0.203125q0 -0.109375 0.078125 -0.1875q0.078125 -0.078125 0.265625 -0.078125l1.53125 0l0 4.96875l0.4375 0q0.203125 0 0.28125 0.078125q0.078125 0.0625 0.078125 0.1875q0 0.109375 -0.078125 0.1875q-0.078125 0.078125 -0.28125 0.078125l-0.984375 0zm3.9731445 -7.96875l0 3.53125q0.96875 -1.25 2.328125 -1.25q1.171875 0 2.0 0.84375q0.828125 0.84375 0.828125 2.078125q0 1.25 -0.84375 2.109375q-0.828125 0.859375 -1.984375 0.859375q-1.390625 0 -2.328125 -1.25l0 1.046875l-1.25 0q-0.1875 0 -0.28125 -0.078125q-0.078125 -0.078125 -0.078125 -0.1875q0 -0.125 0.078125 -0.1875q0.09375 -0.078125 0.28125 -0.078125l0.71875 0l0 -6.890625l-0.71875 0q-0.1875 0 -0.28125 -0.078125q-0.078125 -0.078125 -0.078125 -0.203125q0 -0.109375 0.078125 -0.1875q0.09375 -0.078125 0.28125 -0.078125l1.25 0zm4.625 5.234375q0 -1.015625 -0.6875 -1.703125q-0.6875 -0.703125 -1.625 -0.703125q-0.921875 0 -1.625 0.703125q-0.6875 0.6875 -0.6875 1.703125q0 1.0 0.6875 1.703125q0.703125 0.703125 1.625 0.703125q0.9375 0 1.625 -0.703125q0.6875 -0.703125 0.6875 -1.703125zm4.0981445 0.359375l0 2.375l-1.25 0q-0.1875 0 -0.265625 -0.078125q-0.078125 -0.078125 -0.078125 -0.1875q0 -0.125 0.078125 -0.1875q0.078125 -0.078125 0.265625 -0.078125l0.71875 0l0 -6.890625l-0.71875 0q-0.1875 0 -0.265625 -0.078125q-0.078125 -0.078125 -0.078125 -0.203125q0 -0.109375 0.078125 -0.1875q0.078125 -0.078125 0.265625 -0.078125l1.25 0l0 4.921875l2.265625 -1.90625l-0.265625 0q-0.1875 0 -0.28125 -0.078125q-0.078125 -0.078125 -0.078125 -0.1875q0 -0.125 0.078125 -0.203125q0.09375 -0.078125 0.28125 -0.078125l1.703125 0q0.203125 0 0.28125 0.078125q0.078125 0.078125 0.078125 0.203125q0 0.109375 -0.078125 0.1875q-0.078125 0.078125 -0.28125 0.078125l-0.609375 0l-2.078125 1.734375l2.625 2.6875l0.625 0q0.1875 0 0.265625 0.078125q0.09375 0.0625 0.09375 0.1875q0 0.109375 -0.09375 0.1875q-0.078125 0.078125 -0.265625 0.078125l-1.734375 0q-0.1875 0 -0.28125 -0.078125q-0.078125 -0.078125 -0.078125 -0.1875q0 -0.125 0.078125 -0.1875q0.09375 -0.078125 0.28125 -0.078125l0.375 0l-2.296875 -2.359375l-0.609375 0.515625zm11.77002 -0.25l-5.421875 0q0.125 1.03125 0.859375 1.671875q0.734375 0.625 1.796875 0.625q0.59375 0 1.25 -0.1875q0.65625 -0.203125 1.0625 -0.53125q0.125 -0.09375 0.21875 -0.09375q0.09375 0 0.171875 0.078125q0.078125 0.078125 0.078125 0.1875q0 0.109375 -0.09375 0.21875q-0.3125 0.3125 -1.09375 0.59375q-0.765625 0.265625 -1.59375 0.265625q-1.375 0 -2.296875 -0.890625q-0.90625 -0.90625 -0.90625 -2.171875q0 -1.171875 0.859375 -2.0q0.859375 -0.828125 2.125 -0.828125q1.3125 0 2.15625 0.859375q0.84375 0.84375 0.828125 2.203125zm-0.53125 -0.53125q-0.15625 -0.890625 -0.84375 -1.4375q-0.671875 -0.546875 -1.609375 -0.546875q-0.921875 0 -1.59375 0.546875q-0.671875 0.53125 -0.84375 1.4375l4.890625 0zm5.4887695 3.15625l-2.484375 -4.953125l-0.15625 0q-0.1875 0 -0.265625 -0.078125q-0.078125 -0.078125 -0.078125 -0.1875q0 -0.09375 0.03125 -0.15625q0.046875 -0.0625 0.109375 -0.09375q0.0625 -0.03125 0.203125 -0.03125l1.46875 0q0.1875 0 0.265625 0.078125q0.078125 0.078125 0.078125 0.203125q0 0.109375 -0.078125 0.1875q-0.078125 0.078125 -0.265625 0.078125l-0.71875 0l2.171875 4.375l2.140625 -4.375l-0.703125 0q-0.203125 0 -0.28125 -0.078125q-0.078125 -0.078125 -0.078125 -0.203125q0 -0.109375 0.078125 -0.1875q0.078125 -0.078125 0.28125 -0.078125l1.453125 0q0.1875 0 0.265625 0.078125q0.09375 0.078125 0.09375 0.203125q0 0.078125 -0.0625 0.15625q-0.046875 0.0625 -0.109375 0.09375q-0.0625 0.015625 -0.359375 0.015625l-3.375 6.875l0.84375 0q0.1875 0 0.265625 0.0625q0.078125 0.078125 0.078125 0.203125q0 0.109375 -0.078125 0.1875q-0.078125 0.078125 -0.265625 0.078125l-3.078125 0q-0.1875 0 -0.28125 -0.078125q-0.078125 -0.078125 -0.078125 -0.1875q0 -0.125 0.078125 -0.203125q0.09375 -0.0625 0.28125 -0.0625l1.671875 0l0.9375 -1.921875z" fill-rule="nonzero"/></g></svg>