<svg version="1.1" viewBox="0.0 0.0 768.0 115.1994750656168" fill="none" stroke="none" stroke-linecap="square" stroke-miterlimit="10" xmlns:xlink="http://www.w3.org/1999/xlink" xmlns="http://www.w3.org/2000/svg"><clipPath id="p.0"><path d="m0 0l768.0 0l0 115.19948l-768.0 0l0 -115.19948z" clip-rule="nonzero"/></clipPath><g clip-path="url(#p.0)"><path fill="#ffffff" d="m0 0l768.0 0l0 115.19948l-768.0 0z" fill-rule="evenodd"/><path fill="#ffffff" d="m312.42438 63.97324l0 0c0 -2.693348 2.1833801 -4.8767395 4.8767395 -4.8767395l150.12054 0c1.2933655 0 2.533783 0.51379776 3.4483643 1.4283638c0.9145508 0.91456604 1.4283752 2.1549835 1.4283752 3.4483757l0 19.506367c0 2.693344 -2.1834106 4.8767395 -4.8767395 4.8767395l-150.12054 0c-2.6933594 0 -4.8767395 -2.1833954 -4.8767395 -4.8767395z" fill-rule="evenodd"/><path stroke="#595959" stroke-width="1.0" stroke-linejoin="round" stroke-linecap="butt" d="m312.42438 63.97324l0 0c0 -2.693348 2.1833801 -4.8767395 4.8767395 -4.8767395l150.12054 0c1.2933655 0 2.533783 0.51379776 3.4483643 1.4283638c0.9145508 0.91456604 1.4283752 2.1549835 1.4283752 3.4483757l0 19.506367c0 2.693344 -2.1834106 4.8767395 -4.8767395 4.8767395l-150.12054 0c-2.6933594 0 -4.8767395 -2.1833954 -4.8767395 -4.8767395z" fill-rule="evenodd"/><path fill="#000000" fill-opacity="0.0" d="m320.76965 73.61562l0 0c0 -2.65271 2.1504211 -4.803154 4.803131 -4.803154l0 0c1.2738953 0 2.495575 0.5060501 3.3963623 1.4068146c0.90075684 0.90076447 1.4067993 2.1224594 1.4067993 3.3963394l0 0c0 2.6527023 -2.1504517 4.8031464 -4.8031616 4.8031464l0 0c-2.65271 0 -4.803131 -2.150444 -4.803131 -4.8031464z" fill-rule="evenodd"/><path stroke="#595959" stroke-width="1.0" stroke-linejoin="round" stroke-linecap="butt" d="m320.76965 73.61562l0 0c0 -2.65271 2.1504211 -4.803154 4.803131 -4.803154l0 0c1.2738953 0 2.495575 0.5060501 3.3963623 1.4068146c0.90075684 0.90076447 1.4067993 2.1224594 1.4067993 3.3963394l0 0c0 2.6527023 -2.1504517 4.8031464 -4.8031616 4.8031464l0 0c-2.65271 0 -4.803131 -2.150444 -4.803131 -4.8031464z" fill-rule="evenodd"/><path fill="#000000" fill-opacity="0.0" d="m336.76965 73.61562l0 0c0 -2.65271 2.1504211 -4.803154 4.803131 -4.803154l0 0c1.2738953 0 2.495575 0.5060501 3.3963623 1.4068146c0.90075684 0.90076447 1.4067993 2.1224594 1.4067993 3.3963394l0 0c0 2.6527023 -2.1504517 4.8031464 -4.8031616 4.8031464l0 0c-2.65271 0 -4.803131 -2.150444 -4.803131 -4.8031464z" fill-rule="evenodd"/><path stroke="#595959" stroke-width="1.0" stroke-linejoin="round" stroke-linecap="butt" d="m336.76965 73.61562l0 0c0 -2.65271 2.1504211 -4.803154 4.803131 -4.803154l0 0c1.2738953 0 2.495575 0.5060501 3.3963623 1.4068146c0.90075684 0.90076447 1.4067993 2.1224594 1.4067993 3.3963394l0 0c0 2.6527023 -2.1504517 4.8031464 -4.8031616 4.8031464l0 0c-2.65271 0 -4.803131 -2.150444 -4.803131 -4.8031464z" fill-rule="evenodd"/><path fill="#000000" fill-opacity="0.0" d="m354.77243 73.61562l108.944885 0" fill-rule="evenodd"/><path stroke="#595959" stroke-width="1.0" stroke-linejoin="round" stroke-linecap="butt" d="m354.77243 73.61562l108.944885 0" fill-rule="evenodd"/><path fill="#ffffff" d="m304.42438 55.97324l0 0c0 -2.693348 2.1833801 -4.8767395 4.8767395 -4.8767395l150.12054 0c1.2933655 0 2.533783 0.51379776 3.4483643 1.4283638c0.9145508 0.91456604 1.4283752 2.1549835 1.4283752 3.4483757l0 19.506367c0 2.693344 -2.1834106 4.8767395 -4.8767395 4.8767395l-150.12054 0c-2.6933594 0 -4.8767395 -2.1833954 -4.8767395 -4.8767395z" fill-rule="evenodd"/><path stroke="#595959" stroke-width="1.0" stroke-linejoin="round" stroke-linecap="butt" d="m304.42438 55.97324l0 0c0 -2.693348 2.1833801 -4.8767395 4.8767395 -4.8767395l150.12054 0c1.2933655 0 2.533783 0.51379776 3.4483643 1.4283638c0.9145508 0.91456604 1.4283752 2.1549835 1.4283752 3.4483757l0 19.506367c0 2.693344 -2.1834106 4.8767395 -4.8767395 4.8767395l-150.12054 0c-2.6933594 0 -4.8767395 -2.1833954 -4.8767395 -4.8767395z" fill-rule="evenodd"/><path fill="#000000" fill-opacity="0.0" d="m312.76965 65.61562l0 0c0 -2.65271 2.1504211 -4.80315 4.803131 -4.80315l0 0c1.2738953 0 2.495575 0.5060425 3.3963623 1.406807c0.90075684 0.9007683 1.4067993 2.1224632 1.4067993 3.3963432l0 0c0 2.6527023 -2.1504517 4.8031464 -4.8031616 4.8031464l0 0c-2.65271 0 -4.803131 -2.150444 -4.803131 -4.8031464z" fill-rule="evenodd"/><path stroke="#595959" stroke-width="1.0" stroke-linejoin="round" stroke-linecap="butt" d="m312.76965 65.61562l0 0c0 -2.65271 2.1504211 -4.80315 4.803131 -4.80315l0 0c1.2738953 0 2.495575 0.5060425 3.3963623 1.406807c0.90075684 0.9007683 1.4067993 2.1224632 1.4067993 3.3963432l0 0c0 2.6527023 -2.1504517 4.8031464 -4.8031616 4.8031464l0 0c-2.65271 0 -4.803131 -2.150444 -4.803131 -4.8031464z" fill-rule="evenodd"/><path fill="#000000" fill-opacity="0.0" d="m328.76965 65.61562l0 0c0 -2.65271 2.1504211 -4.80315 4.803131 -4.80315l0 0c1.2738953 0 2.495575 0.5060425 3.3963623 1.406807c0.90075684 0.9007683 1.4067993 2.1224632 1.4067993 3.3963432l0 0c0 2.6527023 -2.1504517 4.8031464 -4.8031616 4.8031464l0 0c-2.65271 0 -4.803131 -2.150444 -4.803131 -4.8031464z" fill-rule="evenodd"/><path stroke="#595959" stroke-width="1.0" stroke-linejoin="round" stroke-linecap="butt" d="m328.76965 65.61562l0 0c0 -2.65271 2.1504211 -4.80315 4.803131 -4.80315l0 0c1.2738953 0 2.495575 0.5060425 3.3963623 1.406807c0.90075684 0.9007683 1.4067993 2.1224632 1.4067993 3.3963432l0 0c0 2.6527023 -2.1504517 4.8031464 -4.8031616 4.8031464l0 0c-2.65271 0 -4.803131 -2.150444 -4.803131 -4.8031464z" fill-rule="evenodd"/><path fill="#000000" fill-opacity="0.0" d="m346.77243 65.61562l108.944885 0" fill-rule="evenodd"/><path stroke="#595959" stroke-width="1.0" stroke-linejoin="round" stroke-linecap="butt" d="m346.77243 65.61562l108.944885 0" fill-rule="evenodd"/><path fill="#ffffff" d="m296.42438 47.97324l0 0c0 -2.693348 2.1833801 -4.8767395 4.8767395 -4.8767395l150.12054 0c1.2933655 0 2.533783 0.51379776 3.4483643 1.4283638c0.9145508 0.91456604 1.4283752 2.1549835 1.4283752 3.4483757l0 19.506367c0 2.693344 -2.1834106 4.8767395 -4.8767395 4.8767395l-150.12054 0c-2.6933594 0 -4.8767395 -2.1833954 -4.8767395 -4.8767395z" fill-rule="evenodd"/><path stroke="#595959" stroke-width="1.0" stroke-linejoin="round" stroke-linecap="butt" d="m296.42438 47.97324l0 0c0 -2.693348 2.1833801 -4.8767395 4.8767395 -4.8767395l150.12054 0c1.2933655 0 2.533783 0.51379776 3.4483643 1.4283638c0.9145508 0.91456604 1.4283752 2.1549835 1.4283752 3.4483757l0 19.506367c0 2.693344 -2.1834106 4.8767395 -4.8767395 4.8767395l-150.12054 0c-2.6933594 0 -4.8767395 -2.1833954 -4.8767395 -4.8767395z" fill-rule="evenodd"/><path fill="#000000" fill-opacity="0.0" d="m304.76965 57.61562l0 0c0 -2.6527061 2.1504211 -4.8031464 4.803131 -4.8031464l0 0c1.2738953 0 2.495575 0.5060425 3.3963623 1.406807c0.90075684 0.9007683 1.4067993 2.122467 1.4067993 3.3963394l0 0c0 2.6527061 -2.1504517 4.80315 -4.8031616 4.80315l0 0c-2.65271 0 -4.803131 -2.150444 -4.803131 -4.80315z" fill-rule="evenodd"/><path stroke="#595959" stroke-width="1.0" stroke-linejoin="round" stroke-linecap="butt" d="m304.76965 57.61562l0 0c0 -2.6527061 2.1504211 -4.8031464 4.803131 -4.8031464l0 0c1.2738953 0 2.495575 0.5060425 3.3963623 1.406807c0.90075684 0.9007683 1.4067993 2.122467 1.4067993 3.3963394l0 0c0 2.6527061 -2.1504517 4.80315 -4.8031616 4.80315l0 0c-2.65271 0 -4.803131 -2.150444 -4.803131 -4.80315z" fill-rule="evenodd"/><path fill="#000000" fill-opacity="0.0" d="m320.76965 57.61562l0 0c0 -2.6527061 2.1504211 -4.8031464 4.803131 -4.8031464l0 0c1.2738953 0 2.495575 0.5060425 3.3963623 1.406807c0.90075684 0.9007683 1.4067993 2.122467 1.4067993 3.3963394l0 0c0 2.6527061 -2.1504517 4.80315 -4.8031616 4.80315l0 0c-2.65271 0 -4.803131 -2.150444 -4.803131 -4.80315z" fill-rule="evenodd"/><path stroke="#595959" stroke-width="1.0" stroke-linejoin="round" stroke-linecap="butt" d="m320.76965 57.61562l0 0c0 -2.6527061 2.1504211 -4.8031464 4.803131 -4.8031464l0 0c1.2738953 0 2.495575 0.5060425 3.3963623 1.406807c0.90075684 0.9007683 1.4067993 2.122467 1.4067993 3.3963394l0 0c0 2.6527061 -2.1504517 4.80315 -4.8031616 4.80315l0 0c-2.65271 0 -4.803131 -2.150444 -4.803131 -4.80315z" fill-rule="evenodd"/><path fill="#000000" fill-opacity="0.0" d="m338.77243 57.61562l108.944885 0" fill-rule="evenodd"/><path stroke="#595959" stroke-width="1.0" stroke-linejoin="round" stroke-linecap="butt" d="m338.77243 57.61562l108.944885 0" fill-rule="evenodd"/><path fill="#ffffff" d="m288.42438 39.97324l0 0c0 -2.693348 2.1833801 -4.8767395 4.8767395 -4.8767395l150.12054 0c1.2933655 0 2.533783 0.51379776 3.4483643 1.4283638c0.9145508 0.91456604 1.4283752 2.1549835 1.4283752 3.4483757l0 19.506367c0 2.693348 -2.1834106 4.8767395 -4.8767395 4.8767395l-150.12054 0c-2.6933594 0 -4.8767395 -2.1833916 -4.8767395 -4.8767395z" fill-rule="evenodd"/><path stroke="#595959" stroke-width="1.0" stroke-linejoin="round" stroke-linecap="butt" d="m288.42438 39.97324l0 0c0 -2.693348 2.1833801 -4.8767395 4.8767395 -4.8767395l150.12054 0c1.2933655 0 2.533783 0.51379776 3.4483643 1.4283638c0.9145508 0.91456604 1.4283752 2.1549835 1.4283752 3.4483757l0 19.506367c0 2.693348 -2.1834106 4.8767395 -4.8767395 4.8767395l-150.12054 0c-2.6933594 0 -4.8767395 -2.1833916 -4.8767395 -4.8767395z" fill-rule="evenodd"/><path fill="#000000" fill-opacity="0.0" d="m296.76965 49.61562l0 0c0 -2.6527061 2.1504211 -4.8031464 4.803131 -4.8031464l0 0c1.2738953 0 2.495575 0.5060425 3.3963623 1.406807c0.90075684 0.9007683 1.4067993 2.122467 1.4067993 3.3963394l0 0c0 2.6527061 -2.1504517 4.80315 -4.8031616 4.80315l0 0c-2.65271 0 -4.803131 -2.150444 -4.803131 -4.80315z" fill-rule="evenodd"/><path stroke="#595959" stroke-width="1.0" stroke-linejoin="round" stroke-linecap="butt" d="m296.76965 49.61562l0 0c0 -2.6527061 2.1504211 -4.8031464 4.803131 -4.8031464l0 0c1.2738953 0 2.495575 0.5060425 3.3963623 1.406807c0.90075684 0.9007683 1.4067993 2.122467 1.4067993 3.3963394l0 0c0 2.6527061 -2.1504517 4.80315 -4.8031616 4.80315l0 0c-2.65271 0 -4.803131 -2.150444 -4.803131 -4.80315z" fill-rule="evenodd"/><path fill="#000000" fill-opacity="0.0" d="m312.76965 49.61562l0 0c0 -2.6527061 2.1504211 -4.8031464 4.803131 -4.8031464l0 0c1.2738953 0 2.495575 0.5060425 3.3963623 1.406807c0.90075684 0.9007683 1.4067993 2.122467 1.4067993 3.3963394l0 0c0 2.6527061 -2.1504517 4.80315 -4.8031616 4.80315l0 0c-2.65271 0 -4.803131 -2.150444 -4.803131 -4.80315z" fill-rule="evenodd"/><path stroke="#595959" stroke-width="1.0" stroke-linejoin="round" stroke-linecap="butt" d="m312.76965 49.61562l0 0c0 -2.6527061 2.1504211 -4.8031464 4.803131 -4.8031464l0 0c1.2738953 0 2.495575 0.5060425 3.3963623 1.406807c0.90075684 0.9007683 1.4067993 2.122467 1.4067993 3.3963394l0 0c0 2.6527061 -2.1504517 4.80315 -4.8031616 4.80315l0 0c-2.65271 0 -4.803131 -2.150444 -4.803131 -4.80315z" fill-rule="evenodd"/><path fill="#000000" fill-opacity="0.0" d="m330.77243 49.61562l108.944885 0" fill-rule="evenodd"/><path stroke="#595959" stroke-width="1.0" stroke-linejoin="round" stroke-linecap="butt" d="m330.77243 49.61562l108.944885 0" fill-rule="evenodd"/><path fill="#ffffff" d="m280.42438 31.973238l0 0c0 -2.693348 2.1833801 -4.8767376 4.8767395 -4.8767376l150.12054 0c1.2933655 0 2.533783 0.51379776 3.4483643 1.4283638c0.9145508 0.91456604 1.4283752 2.1549835 1.4283752 3.4483738l0 19.506369c0 2.693348 -2.1834106 4.8767357 -4.8767395 4.8767357l-150.12054 0c-2.6933594 0 -4.8767395 -2.1833878 -4.8767395 -4.8767357z" fill-rule="evenodd"/><path stroke="#595959" stroke-width="1.0" stroke-linejoin="round" stroke-linecap="butt" d="m280.42438 31.973238l0 0c0 -2.693348 2.1833801 -4.8767376 4.8767395 -4.8767376l150.12054 0c1.2933655 0 2.533783 0.51379776 3.4483643 1.4283638c0.9145508 0.91456604 1.4283752 2.1549835 1.4283752 3.4483738l0 19.506369c0 2.693348 -2.1834106 4.8767357 -4.8767395 4.8767357l-150.12054 0c-2.6933594 0 -4.8767395 -2.1833878 -4.8767395 -4.8767357z" fill-rule="evenodd"/><path fill="#000000" fill-opacity="0.0" d="m288.76965 41.61562l0 0c0 -2.6527061 2.1504211 -4.8031464 4.803131 -4.8031464l0 0c1.2738953 0 2.495575 0.5060425 3.3963623 1.406807c0.90075684 0.9007683 1.4067993 2.122467 1.4067993 3.3963394l0 0c0 2.6527061 -2.1504517 4.80315 -4.8031616 4.80315l0 0c-2.65271 0 -4.803131 -2.150444 -4.803131 -4.80315z" fill-rule="evenodd"/><path stroke="#595959" stroke-width="1.0" stroke-linejoin="round" stroke-linecap="butt" d="m288.76965 41.61562l0 0c0 -2.6527061 2.1504211 -4.8031464 4.803131 -4.8031464l0 0c1.2738953 0 2.495575 0.5060425 3.3963623 1.406807c0.90075684 0.9007683 1.4067993 2.122467 1.4067993 3.3963394l0 0c0 2.6527061 -2.1504517 4.80315 -4.8031616 4.80315l0 0c-2.65271 0 -4.803131 -2.150444 -4.803131 -4.80315z" fill-rule="evenodd"/><path fill="#000000" fill-opacity="0.0" d="m304.76965 41.61562l0 0c0 -2.6527061 2.1504211 -4.8031464 4.803131 -4.8031464l0 0c1.2738953 0 2.495575 0.5060425 3.3963623 1.406807c0.90075684 0.9007683 1.4067993 2.122467 1.4067993 3.3963394l0 0c0 2.6527061 -2.1504517 4.80315 -4.8031616 4.80315l0 0c-2.65271 0 -4.803131 -2.150444 -4.803131 -4.80315z" fill-rule="evenodd"/><path stroke="#595959" stroke-width="1.0" stroke-linejoin="round" stroke-linecap="butt" d="m304.76965 41.61562l0 0c0 -2.6527061 2.1504211 -4.8031464 4.803131 -4.8031464l0 0c1.2738953 0 2.495575 0.5060425 3.3963623 1.406807c0.90075684 0.9007683 1.4067993 2.122467 1.4067993 3.3963394l0 0c0 2.6527061 -2.1504517 4.80315 -4.8031616 4.80315l0 0c-2.65271 0 -4.803131 -2.150444 -4.803131 -4.80315z" fill-rule="evenodd"/><path fill="#000000" fill-opacity="0.0" d="m322.77243 41.61562l108.944885 0" fill-rule="evenodd"/><path stroke="#595959" stroke-width="1.0" stroke-linejoin="round" stroke-linecap="butt" d="m322.77243 41.61562l108.944885 0" fill-rule="evenodd"/><path fill="#ffffff" d="m7.03736 21.923225l0 0c0 -5.69401 4.6159077 -10.3099165 10.3099165 -10.3099165l147.56914 0c2.7343597 0 5.356735 1.0862198 7.290222 3.0197048c1.9334869 1.9334841 3.019699 4.555852 3.019699 7.2902117l0 41.238434c0 5.694008 -4.615906 10.309914 -10.309921 10.309914l-147.56914 0c-5.694009 0 -10.3099165 -4.615906 -10.3099165 -10.309914z" fill-rule="evenodd"/><path stroke="#595959" stroke-width="1.0" stroke-linejoin="round" stroke-linecap="butt" d="m7.03736 21.923225l0 0c0 -5.69401 4.6159077 -10.3099165 10.3099165 -10.3099165l147.56914 0c2.7343597 0 5.356735 1.0862198 7.290222 3.0197048c1.9334869 1.9334841 3.019699 4.555852 3.019699 7.2902117l0 41.238434c0 5.694008 -4.615906 10.309914 -10.309921 10.309914l-147.56914 0c-5.694009 0 -10.3099165 -4.615906 -10.3099165 -10.309914z" fill-rule="evenodd"/><path fill="#000000" d="m26.228907 43.639317l-5.75 3.21875q-0.140625 0.078125 -0.21875 0.078125q-0.109375 0 -0.1875 -0.078125q-0.078125 -0.09375 -0.078125 -0.1875q0 -0.171875 0.21875 -0.28125l4.9375 -2.75l-4.9375 -2.734375q-0.203125 -0.125 -0.203125 -0.28125q0 -0.109375 0.078125 -0.1875q0.078125 -0.078125 0.1875 -0.078125q0.0625 0 0.203125 0.078125l5.75 3.203125zm14.086916 -1.4375q0 -0.1875 0.078125 -0.265625q0.078125 -0.09375 0.1875 -0.09375q0.125 0 0.203125 0.09375q0.078125 0.078125 0.078125 0.265625l0 0.921875q0 0.1875 -0.078125 0.28125q-0.078125 0.078125 -0.203125 0.078125q-0.09375 0 -0.171875 -0.0625q-0.078125 -0.078125 -0.09375 -0.25q-0.03125 -0.375 -0.390625 -0.625q-0.515625 -0.34375 -1.375 -0.34375q-0.890625 0 -1.390625 0.359375q-0.375 0.265625 -0.375 0.609375q0 0.375 0.453125 0.625q0.296875 0.1875 1.140625 0.28125q1.125 0.109375 1.546875 0.265625q0.625 0.21875 0.921875 0.625q0.296875 0.390625 0.296875 0.84375q0 0.6875 -0.65625 1.21875q-0.640625 0.515625 -1.90625 0.515625q-1.265625 0 -2.078125 -0.640625q0 0.21875 -0.03125 0.28125q-0.015625 0.0625 -0.09375 0.109375q-0.0625 0.046875 -0.140625 0.046875q-0.109375 0 -0.1875 -0.078125q-0.078125 -0.09375 -0.078125 -0.28125l0 -1.09375q0 -0.1875 0.0625 -0.265625q0.078125 -0.09375 0.203125 -0.09375q0.109375 0 0.1875 0.078125q0.09375 0.078125 0.09375 0.21875q0 0.296875 0.140625 0.484375q0.21875 0.3125 0.703125 0.515625q0.484375 0.1875 1.1875 0.1875q1.046875 0 1.546875 -0.375q0.515625 -0.390625 0.515625 -0.828125q0 -0.5 -0.515625 -0.796875q-0.515625 -0.296875 -1.515625 -0.390625q-0.984375 -0.109375 -1.421875 -0.265625q-0.4375 -0.171875 -0.671875 -0.5q-0.234375 -0.328125 -0.234375 -0.71875q0 -0.671875 0.671875 -1.078125q0.671875 -0.40625 1.59375 -0.40625q1.109375 0 1.796875 0.546875zm7.8012695 0q0 -0.1875 0.078125 -0.265625q0.078125 -0.09375 0.1875 -0.09375q0.125 0 0.203125 0.09375q0.078125 0.078125 0.078125 0.265625l0 0.921875q0 0.1875 -0.078125 0.28125q-0.078125 0.078125 -0.203125 0.078125q-0.09375 0 -0.171875 -0.0625q-0.078125 -0.078125 -0.09375 -0.25q-0.03125 -0.375 -0.390625 -0.625q-0.515625 -0.34375 -1.375 -0.34375q-0.890625 0 -1.390625 0.359375q-0.375 0.265625 -0.375 0.609375q0 0.375 0.453125 0.625q0.296875 0.1875 1.140625 0.28125q1.125 0.109375 1.546875 0.265625q0.625 0.21875 0.921875 0.625q0.296875 0.390625 0.296875 0.84375q0 0.6875 -0.65625 1.21875q-0.640625 0.515625 -1.90625 0.515625q-1.265625 0 -2.078125 -0.640625q0 0.21875 -0.03125 0.28125q-0.015625 0.0625 -0.09375 0.109375q-0.0625 0.046875 -0.140625 0.046875q-0.109375 0 -0.1875 -0.078125q-0.078125 -0.09375 -0.078125 -0.28125l0 -1.09375q0 -0.1875 0.0625 -0.265625q0.078125 -0.09375 0.203125 -0.09375q0.109375 0 0.1875 0.078125q0.09375 0.078125 0.09375 0.21875q0 0.296875 0.140625 0.484375q0.21875 0.3125 0.703125 0.515625q0.484375 0.1875 1.1875 0.1875q1.046875 0 1.546875 -0.375q0.515625 -0.390625 0.515625 -0.828125q0 -0.5 -0.515625 -0.796875q-0.515625 -0.296875 -1.515625 -0.390625q-0.984375 -0.109375 -1.421875 -0.265625q-0.4375 -0.171875 -0.671875 -0.5q-0.234375 -0.328125 -0.234375 -0.71875q0 -0.671875 0.671875 -1.078125q0.671875 -0.40625 1.59375 -0.40625q1.109375 0 1.796875 0.546875zm4.2856445 -2.828125l0 3.28125q0.515625 -0.546875 0.984375 -0.765625q0.46875 -0.234375 1.046875 -0.234375q0.609375 0 1.046875 0.21875q0.4375 0.21875 0.71875 0.671875q0.296875 0.453125 0.296875 0.953125l0 3.3125l0.609375 0q0.1875 0 0.265625 0.078125q0.078125 0.0625 0.078125 0.1875q0 0.109375 -0.078125 0.1875q-0.078125 0.078125 -0.265625 0.078125l-1.734375 0q-0.203125 0 -0.296875 -0.078125q-0.078125 -0.078125 -0.078125 -0.1875q0 -0.125 0.078125 -0.1875q0.09375 -0.078125 0.296875 -0.078125l0.59375 0l0 -3.265625q0 -0.578125 -0.421875 -0.96875q-0.40625 -0.390625 -1.15625 -0.390625q-0.578125 0 -1.0 0.28125q-0.296875 0.203125 -0.984375 0.96875l0 3.375l0.609375 0q0.1875 0 0.265625 0.078125q0.09375 0.0625 0.09375 0.1875q0 0.109375 -0.09375 0.1875q-0.078125 0.078125 -0.265625 0.078125l-1.734375 0q-0.203125 0 -0.28125 -0.078125q-0.078125 -0.078125 -0.078125 -0.1875q0 -0.125 0.078125 -0.1875q0.078125 -0.078125 0.28125 -0.078125l0.59375 0l0 -6.890625l-0.71875 0q-0.1875 0 -0.265625 -0.078125q-0.078125 -0.078125 -0.078125 -0.203125q0 -0.109375 0.078125 -0.1875q0.078125 -0.078125 0.265625 -0.078125l1.25 0zm15.602535 0l0 3.28125q0.515625 -0.546875 0.984375 -0.765625q0.46875 -0.234375 1.046875 -0.234375q0.609375 0 1.046875 0.21875q0.4375 0.21875 0.71875 0.671875q0.296875 0.453125 0.296875 0.953125l0 3.3125l0.609375 0q0.1875 0 0.265625 0.078125q0.078125 0.0625 0.078125 0.1875q0 0.109375 -0.078125 0.1875q-0.078125 0.078125 -0.265625 0.078125l-1.734375 0q-0.203125 0 -0.296875 -0.078125q-0.078125 -0.078125 -0.078125 -0.1875q0 -0.125 0.078125 -0.1875q0.09375 -0.078125 0.296875 -0.078125l0.59375 0l0 -3.265625q0 -0.578125 -0.421875 -0.96875q-0.40625 -0.390625 -1.15625 -0.390625q-0.578125 0 -1.0 0.28125q-0.296875 0.203125 -0.984375 0.96875l0 3.375l0.609375 0q0.1875 0 0.265625 0.078125q0.09375 0.0625 0.09375 0.1875q0 0.109375 -0.09375 0.1875q-0.078125 0.078125 -0.265625 0.078125l-1.734375 0q-0.203125 0 -0.28125 -0.078125q-0.078125 -0.078125 -0.078125 -0.1875q0 -0.125 0.078125 -0.1875q0.078125 -0.078125 0.28125 -0.078125l0.59375 0l0 -6.890625l-0.71875 0q-0.1875 0 -0.265625 -0.078125q-0.078125 -0.078125 -0.078125 -0.203125q0 -0.109375 0.078125 -0.1875q0.078125 -0.078125 0.265625 -0.078125l1.25 0zm12.535645 5.234375q0 1.21875 -0.875 2.078125q-0.859375 0.859375 -2.09375 0.859375q-1.25 0 -2.125 -0.859375q-0.859375 -0.875 -0.859375 -2.078125q0 -1.21875 0.859375 -2.078125q0.875 -0.875 2.125 -0.875q1.234375 0 2.09375 0.859375q0.875 0.859375 0.875 2.09375zm-0.53125 0q0 -1.0 -0.71875 -1.703125q-0.71875 -0.703125 -1.734375 -0.703125q-1.015625 0 -1.734375 0.703125q-0.703125 0.703125 -0.703125 1.703125q0 0.984375 0.703125 1.703125q0.71875 0.703125 1.734375 0.703125q1.015625 0 1.734375 -0.703125q0.71875 -0.703125 0.71875 -1.703125zm7.1137695 -2.40625q0 -0.1875 0.078125 -0.265625q0.078125 -0.09375 0.1875 -0.09375q0.125 0 0.203125 0.09375q0.078125 0.078125 0.078125 0.265625l0 0.921875q0 0.1875 -0.078125 0.28125q-0.078125 0.078125 -0.203125 0.078125q-0.09375 0 -0.171875 -0.0625q-0.078125 -0.078125 -0.09375 -0.25q-0.03125 -0.375 -0.390625 -0.625q-0.515625 -0.34375 -1.375 -0.34375q-0.890625 0 -1.390625 0.359375q-0.375 0.265625 -0.375 0.609375q0 0.375 0.453125 0.625q0.296875 0.1875 1.140625 0.28125q1.125 0.109375 1.546875 0.265625q0.625 0.21875 0.921875 0.625q0.296875 0.390625 0.296875 0.84375q0 0.6875 -0.65625 1.21875q-0.640625 0.515625 -1.90625 0.515625q-1.265625 0 -2.078125 -0.640625q0 0.21875 -0.03125 0.28125q-0.015625 0.0625 -0.09375 0.109375q-0.0625 0.046875 -0.140625 0.046875q-0.109375 0 -0.1875 -0.078125q-0.078125 -0.09375 -0.078125 -0.28125l0 -1.09375q0 -0.1875 0.0625 -0.265625q0.078125 -0.09375 0.203125 -0.09375q0.109375 0 0.1875 0.078125q0.09375 0.078125 0.09375 0.21875q0 0.296875 0.140625 0.484375q0.21875 0.3125 0.703125 0.515625q0.484375 0.1875 1.1875 0.1875q1.046875 0 1.546875 -0.375q0.515625 -0.390625 0.515625 -0.828125q0 -0.5 -0.515625 -0.796875q-0.515625 -0.296875 -1.515625 -0.390625q-0.984375 -0.109375 -1.421875 -0.265625q-0.4375 -0.171875 -0.671875 -0.5q-0.234375 -0.328125 -0.234375 -0.71875q0 -0.671875 0.671875 -1.078125q0.671875 -0.40625 1.59375 -0.40625q1.109375 0 1.796875 0.546875zm4.9575195 -0.359375l2.890625 0q0.1875 0 0.265625 0.078125q0.09375 0.078125 0.09375 0.203125q0 0.109375 -0.09375 0.1875q-0.078125 0.078125 -0.265625 0.078125l-2.890625 0l0 3.546875q0 0.453125 0.359375 0.765625q0.375 0.3125 1.09375 0.3125q0.546875 0 1.171875 -0.15625q0.625 -0.15625 0.96875 -0.359375q0.125 -0.09375 0.21875 -0.09375q0.09375 0 0.171875 0.078125q0.078125 0.078125 0.078125 0.1875q0 0.09375 -0.078125 0.1875q-0.203125 0.203125 -1.0 0.453125q-0.78125 0.234375 -1.5 0.234375q-0.921875 0 -1.484375 -0.4375q-0.546875 -0.4375 -0.546875 -1.171875l0 -3.546875l-0.984375 0q-0.1875 0 -0.28125 -0.078125q-0.078125 -0.078125 -0.078125 -0.203125q0 -0.109375 0.078125 -0.1875q0.09375 -0.078125 0.28125 -0.078125l0.984375 0l0 -1.578125q0 -0.1875 0.078125 -0.265625q0.078125 -0.078125 0.1875 -0.078125q0.125 0 0.203125 0.078125q0.078125 0.078125 0.078125 0.265625l0 1.578125zm7.1606445 0l0 0.8125q0.5625 -0.5625 1.015625 -0.78125q0.453125 -0.21875 1.015625 -0.21875q0.609375 0 1.109375 0.265625q0.359375 0.1875 0.640625 0.625q0.296875 0.4375 0.296875 0.90625l0 3.359375l0.453125 0q0.1875 0 0.265625 0.078125q0.078125 0.0625 0.078125 0.1875q0 0.109375 -0.078125 0.1875q-0.078125 0.078125 -0.265625 0.078125l-1.4375 0q-0.1875 0 -0.28125 -0.078125q-0.078125 -0.078125 -0.078125 -0.1875q0 -0.125 0.078125 -0.1875q0.09375 -0.078125 0.28125 -0.078125l0.453125 0l0 -3.265625q0 -0.578125 -0.421875 -0.953125q-0.40625 -0.390625 -1.09375 -0.390625q-0.53125 0 -0.921875 0.21875q-0.390625 0.203125 -1.109375 1.046875l0 3.34375l0.609375 0q0.1875 0 0.265625 0.078125q0.09375 0.0625 0.09375 0.1875q0 0.109375 -0.09375 0.1875q-0.078125 0.078125 -0.265625 0.078125l-1.734375 0q-0.203125 0 -0.28125 -0.078125q-0.078125 -0.078125 -0.078125 -0.1875q0 -0.125 0.078125 -0.1875q0.078125 -0.078125 0.28125 -0.078125l0.59375 0l0 -4.421875l-0.453125 0q-0.1875 0 -0.265625 -0.078125q-0.078125 -0.078125 -0.078125 -0.203125q0 -0.109375 0.078125 -0.1875q0.078125 -0.078125 0.265625 -0.078125l0.984375 0zm11.066895 5.5l0 -0.765625q-1.171875 0.96875 -2.484375 0.96875q-0.953125 0 -1.5 -0.484375q-0.53125 -0.484375 -0.53125 -1.1875q0 -0.765625 0.703125 -1.34375q0.71875 -0.578125 2.078125 -0.578125q0.359375 0 0.796875 0.046875q0.4375 0.046875 0.9375 0.140625l0 -0.859375q0 -0.4375 -0.40625 -0.75q-0.40625 -0.328125 -1.21875 -0.328125q-0.625 0 -1.75 0.359375q-0.203125 0.0625 -0.265625 0.0625q-0.09375 0 -0.171875 -0.078125q-0.0625 -0.078125 -0.0625 -0.1875q0 -0.109375 0.0625 -0.171875q0.078125 -0.09375 0.71875 -0.265625q0.984375 -0.265625 1.484375 -0.265625q1.015625 0 1.578125 0.5q0.5625 0.5 0.5625 1.125l0 3.53125l0.71875 0q0.1875 0 0.265625 0.078125q0.09375 0.0625 0.09375 0.1875q0 0.109375 -0.09375 0.1875q-0.078125 0.078125 -0.265625 0.078125l-1.25 0zm0 -2.65625q-0.375 -0.109375 -0.796875 -0.15625q-0.421875 -0.046875 -0.875 -0.046875q-1.171875 0 -1.828125 0.5q-0.484375 0.375 -0.484375 0.890625q0 0.484375 0.375 0.8125q0.375 0.328125 1.09375 0.328125q0.703125 0 1.296875 -0.265625q0.59375 -0.28125 1.21875 -0.890625l0 -1.171875zm3.8325195 -2.84375l0 0.546875q0.6875 -0.734375 1.375 -0.734375q0.40625 0 0.71875 0.21875q0.3125 0.21875 0.515625 0.65625q0.359375 -0.4375 0.71875 -0.65625q0.375 -0.21875 0.734375 -0.21875q0.578125 0 0.921875 0.375q0.453125 0.484375 0.453125 1.046875l0 3.734375l0.453125 0q0.1875 0 0.265625 0.078125q0.09375 0.0625 0.09375 0.1875q0 0.109375 -0.09375 0.1875q-0.078125 0.078125 -0.265625 0.078125l-0.984375 0l0 -4.203125q0 -0.40625 -0.25 -0.671875q-0.25 -0.265625 -0.578125 -0.265625q-0.28125 0 -0.609375 0.21875q-0.328125 0.21875 -0.734375 0.859375l0 3.53125l0.4375 0q0.203125 0 0.28125 0.078125q0.078125 0.0625 0.078125 0.1875q0 0.109375 -0.078125 0.1875q-0.078125 0.078125 -0.28125 0.078125l-0.984375 0l0 -4.171875q0 -0.421875 -0.25 -0.6875q-0.25 -0.28125 -0.5625 -0.28125q-0.28125 0 -0.5625 0.171875q-0.390625 0.265625 -0.8125 0.90625l0 3.53125l0.453125 0q0.1875 0 0.265625 0.078125q0.09375 0.0625 0.09375 0.1875q0 0.109375 -0.09375 0.1875q-0.078125 0.078125 -0.265625 0.078125l-1.4375 0q-0.1875 0 -0.265625 -0.078125q-0.078125 -0.078125 -0.078125 -0.1875q0 -0.125 0.078125 -0.1875q0.078125 -0.078125 0.265625 -0.078125l0.453125 0l0 -4.421875l-0.453125 0q-0.1875 0 -0.265625 -0.078125q-0.078125 -0.078125 -0.078125 -0.203125q0 -0.109375 0.078125 -0.1875q0.078125 -0.078125 0.265625 -0.078125l0.984375 0zm13.11377 2.875l-5.421875 0q0.125 1.03125 0.859375 1.671875q0.734375 0.625 1.796875 0.625q0.59375 0 1.25 -0.1875q0.65625 -0.203125 1.0625 -0.53125q0.125 -0.09375 0.21875 -0.09375q0.09375 0 0.171875 0.078125q0.078125 0.078125 0.078125 0.1875q0 0.109375 -0.09375 0.21875q-0.3125 0.3125 -1.09375 0.59375q-0.765625 0.265625 -1.59375 0.265625q-1.375 0 -2.296875 -0.890625q-0.90625 -0.90625 -0.90625 -2.171875q0 -1.171875 0.859375 -2.0q0.859375 -0.828125 2.125 -0.828125q1.3125 0 2.15625 0.859375q0.84375 0.84375 0.828125 2.203125zm-0.53125 -0.53125q-0.15625 -0.890625 -0.84375 -1.4375q-0.671875 -0.546875 -1.609375 -0.546875q-0.921875 0 -1.59375 0.546875q-0.671875 0.53125 -0.84375 1.4375l4.890625 0z" fill-rule="nonzero"/><path fill="#000000" fill-opacity="0.0" d="m281.62003 -7.7226496l159.87402 0l0 35.559055l-159.87402 0z" fill-rule="evenodd"/><path fill="#000000" d="m318.68692 14.07735l-2.484375 -4.953125l-0.15625 0q-0.1875 0 -0.265625 -0.078125q-0.078125 -0.078125 -0.078125 -0.1875q0 -0.09375 0.03125 -0.15625q0.046875 -0.0625 0.109375 -0.09375q0.0625 -0.03125 0.203125 -0.03125l1.46875 0q0.1875 0 0.265625 0.078125q0.078125 0.078125 0.078125 0.203125q0 0.109375 -0.078125 0.1875q-0.078125 0.078125 -0.265625 0.078125l-0.71875 0l2.171875 4.375l2.140625 -4.375l-0.703125 0q-0.203125 0 -0.28125 -0.078125q-0.078125 -0.078125 -0.078125 -0.203125q0 -0.109375 0.078125 -0.1875q0.078125 -0.078125 0.28125 -0.078125l1.453125 0q0.1875 0 0.265625 0.078125q0.09375 0.078125 0.09375 0.203125q0 0.078125 -0.0625 0.15625q-0.046875 0.0625 -0.109375 0.09375q-0.0625 0.015625 -0.359375 0.015625l-3.375 6.875l0.84375 0q0.1875 0 0.265625 0.06250095q0.078125 0.078125 0.078125 0.203125q0 0.109375 -0.078125 0.1875q-0.078125 0.078125 -0.265625 0.078125l-3.078125 0q-0.1875 0 -0.28125 -0.078125q-0.078125 -0.078125 -0.078125 -0.1875q0 -0.125 0.078125 -0.203125q0.09375 -0.06250095 0.28125 -0.06250095l1.671875 0l0.9375 -1.921875zm10.73877 -2.734375q0 1.21875 -0.875 2.078125q-0.859375 0.859375 -2.09375 0.859375q-1.25 0 -2.125 -0.859375q-0.859375 -0.875 -0.859375 -2.078125q0 -1.21875 0.859375 -2.078125q0.875 -0.875 2.125 -0.875q1.234375 0 2.09375 0.859375q0.875 0.859375 0.875 2.09375zm-0.53125 0q0 -1.0 -0.71875 -1.703125q-0.71875 -0.703125 -1.734375 -0.703125q-1.015625 0 -1.734375 0.703125q-0.703125 0.703125 -0.703125 1.703125q0 0.984375 0.703125 1.703125q0.71875 0.703125 1.734375 0.703125q1.015625 0 1.734375 -0.703125q0.71875 -0.703125 0.71875 -1.703125zm7.1762695 2.734375l0 -0.78125q-1.078125 0.984375 -2.359375 0.984375q-0.78125 0 -1.1875 -0.421875q-0.515625 -0.5625 -0.515625 -1.296875l0 -3.4375l-0.71875 0q-0.1875 0 -0.28125 -0.078125q-0.078125 -0.078125 -0.078125 -0.203125q0 -0.109375 0.078125 -0.1875q0.09375 -0.078125 0.28125 -0.078125l1.25 0l0 3.984375q0 0.515625 0.328125 0.859375q0.328125 0.328125 0.828125 0.328125q1.296875 0 2.375 -1.1875l0 -3.4375l-0.984375 0q-0.1875 0 -0.265625 -0.078125q-0.078125 -0.078125 -0.078125 -0.203125q0 -0.109375 0.078125 -0.1875q0.078125 -0.078125 0.265625 -0.078125l1.53125 0l0 4.96875l0.4375 0q0.203125 0 0.28125 0.078125q0.078125 0.0625 0.078125 0.1875q0 0.109375 -0.078125 0.1875q-0.078125 0.078125 -0.28125 0.078125l-0.984375 0zm5.3481445 -5.5l0 1.34375q1.03125 -0.9375 1.546875 -1.203125q0.53125 -0.265625 0.96875 -0.265625q0.46875 0 0.875 0.328125q0.421875 0.3125 0.421875 0.46875q0 0.125 -0.09375 0.203125q-0.078125 0.078125 -0.1875 0.078125q-0.0625 0 -0.109375 -0.015625q-0.046875 -0.03125 -0.171875 -0.140625q-0.21875 -0.234375 -0.390625 -0.3125q-0.15625 -0.078125 -0.3125 -0.078125q-0.359375 0 -0.859375 0.28125q-0.484375 0.28125 -1.6875 1.359375l0 2.921875l2.359375 0q0.203125 0 0.28125 0.078125q0.078125 0.0625 0.078125 0.1875q0 0.109375 -0.078125 0.1875q-0.078125 0.078125 -0.28125 0.078125l-4.1875 0q-0.1875 0 -0.28125 -0.0625q-0.078125 -0.078125 -0.078125 -0.203125q0 -0.109375 0.078125 -0.171875q0.09375 -0.078125 0.28125 -0.078125l1.296875 0l0 -4.4375l-0.984375 0q-0.1875 0 -0.28125 -0.078125q-0.078125 -0.078125 -0.078125 -0.203125q0 -0.109375 0.078125 -0.1875q0.078125 -0.078125 0.28125 -0.078125l1.515625 0zm17.993164 0.359375q0 -0.1875 0.078125 -0.265625q0.078125 -0.09375 0.1875 -0.09375q0.125 0 0.203125 0.09375q0.078125 0.078125 0.078125 0.265625l0 0.921875q0 0.1875 -0.078125 0.28125q-0.078125 0.078125 -0.203125 0.078125q-0.09375 0 -0.171875 -0.0625q-0.078125 -0.078125 -0.09375 -0.25q-0.03125 -0.375 -0.390625 -0.625q-0.515625 -0.34375 -1.375 -0.34375q-0.890625 0 -1.390625 0.359375q-0.375 0.265625 -0.375 0.609375q0 0.375 0.453125 0.625q0.296875 0.1875 1.140625 0.28125q1.125 0.109375 1.546875 0.265625q0.625 0.21875 0.921875 0.625q0.296875 0.390625 0.296875 0.84375q0 0.6875 -0.65625 1.21875q-0.640625 0.515625 -1.90625 0.515625q-1.265625 0 -2.078125 -0.640625q0 0.21875 -0.03125 0.28125q-0.015625 0.0625 -0.09375 0.109375q-0.0625 0.046875 -0.140625 0.046875q-0.109375 0 -0.1875 -0.078125q-0.078125 -0.09375 -0.078125 -0.28125l0 -1.09375q0 -0.1875 0.0625 -0.265625q0.078125 -0.09375 0.203125 -0.09375q0.109375 0 0.1875 0.078125q0.09375 0.078125 0.09375 0.21875q0 0.296875 0.140625 0.484375q0.21875 0.3125 0.703125 0.515625q0.484375 0.1875 1.1875 0.1875q1.046875 0 1.546875 -0.375q0.515625 -0.390625 0.515625 -0.828125q0 -0.5 -0.515625 -0.796875q-0.515625 -0.296875 -1.515625 -0.390625q-0.984375 -0.109375 -1.421875 -0.265625q-0.4375 -0.171875 -0.671875 -0.5q-0.234375 -0.328125 -0.234375 -0.71875q0 -0.671875 0.671875 -1.078125q0.671875 -0.40625 1.59375 -0.40625q1.109375 0 1.796875 0.546875zm8.92627 2.515625l-5.421875 0q0.125 1.03125 0.859375 1.671875q0.734375 0.625 1.796875 0.625q0.59375 0 1.25 -0.1875q0.65625 -0.203125 1.0625 -0.53125q0.125 -0.09375 0.21875 -0.09375q0.09375 0 0.171875 0.078125q0.078125 0.078125 0.078125 0.1875q0 0.109375 -0.09375 0.21875q-0.3125 0.3125 -1.09375 0.59375q-0.765625 0.265625 -1.59375 0.265625q-1.375 0 -2.296875 -0.890625q-0.90625 -0.90625 -0.90625 -2.171875q0 -1.171875 0.859375 -2.0q0.859375 -0.828125 2.125 -0.828125q1.3125 0 2.15625 0.859375q0.84375 0.84375 0.828125 2.203125zm-0.53125 -0.53125q-0.15625 -0.890625 -0.84375 -1.4375q-0.671875 -0.546875 -1.609375 -0.546875q-0.921875 0 -1.59375 0.546875q-0.671875 0.53125 -0.84375 1.4375l4.890625 0zm4.8168945 -2.34375l0 1.34375q1.03125 -0.9375 1.546875 -1.203125q0.53125 -0.265625 0.96875 -0.265625q0.46875 0 0.875 0.328125q0.421875 0.3125 0.421875 0.46875q0 0.125 -0.09375 0.203125q-0.078125 0.078125 -0.1875 0.078125q-0.0625 0 -0.109375 -0.015625q-0.046875 -0.03125 -0.171875 -0.140625q-0.21875 -0.234375 -0.390625 -0.3125q-0.15625 -0.078125 -0.3125 -0.078125q-0.359375 0 -0.859375 0.28125q-0.484375 0.28125 -1.6875 1.359375l0 2.921875l2.359375 0q0.203125 0 0.28125 0.078125q0.078125 0.0625 0.078125 0.1875q0 0.109375 -0.078125 0.1875q-0.078125 0.078125 -0.28125 0.078125l-4.1875 0q-0.1875 0 -0.28125 -0.0625q-0.078125 -0.078125 -0.078125 -0.203125q0 -0.109375 0.078125 -0.171875q0.09375 -0.078125 0.28125 -0.078125l1.296875 0l0 -4.4375l-0.984375 0q-0.1875 0 -0.28125 -0.078125q-0.078125 -0.078125 -0.078125 -0.203125q0 -0.109375 0.078125 -0.1875q0.078125 -0.078125 0.28125 -0.078125l1.515625 0zm8.910645 5.5l-0.90625 0l-2.1875 -4.953125l-0.546875 0q-0.1875 0 -0.28125 -0.078125q-0.078125 -0.078125 -0.078125 -0.203125q0 -0.109375 0.078125 -0.1875q0.09375 -0.078125 0.28125 -0.078125l2.0 0q0.1875 0 0.265625 0.078125q0.078125 0.078125 0.078125 0.203125q0 0.109375 -0.078125 0.1875q-0.078125 0.078125 -0.265625 0.078125l-0.890625 0l1.953125 4.421875l0.234375 0l1.921875 -4.421875l-0.890625 0q-0.1875 0 -0.28125 -0.078125q-0.078125 -0.078125 -0.078125 -0.203125q0 -0.109375 0.078125 -0.1875q0.09375 -0.078125 0.28125 -0.078125l2.015625 0q0.1875 0 0.265625 0.078125q0.078125 0.078125 0.078125 0.203125q0 0.109375 -0.078125 0.1875q-0.078125 0.078125 -0.265625 0.078125l-0.546875 0l-2.15625 4.953125zm10.20752 -2.625l-5.421875 0q0.125 1.03125 0.859375 1.671875q0.734375 0.625 1.796875 0.625q0.59375 0 1.25 -0.1875q0.65625 -0.203125 1.0625 -0.53125q0.125 -0.09375 0.21875 -0.09375q0.09375 0 0.171875 0.078125q0.078125 0.078125 0.078125 0.1875q0 0.109375 -0.09375 0.21875q-0.3125 0.3125 -1.09375 0.59375q-0.765625 0.265625 -1.59375 0.265625q-1.375 0 -2.296875 -0.890625q-0.90625 -0.90625 -0.90625 -2.171875q0 -1.171875 0.859375 -2.0q0.859375 -0.828125 2.125 -0.828125q1.3125 0 2.15625 0.859375q0.84375 0.84375 0.828125 2.203125zm-0.53125 -0.53125q-0.15625 -0.890625 -0.84375 -1.4375q-0.671875 -0.546875 -1.609375 -0.546875q-0.921875 0 -1.59375 0.546875q-0.671875 0.53125 -0.84375 1.4375l4.890625 0zm4.8168945 -2.34375l0 1.34375q1.03125 -0.9375 1.546875 -1.203125q0.53125 -0.265625 0.96875 -0.265625q0.46875 0 0.875 0.328125q0.421875 0.3125 0.421875 0.46875q0 0.125 -0.09375 0.203125q-0.078125 0.078125 -0.1875 0.078125q-0.0625 0 -0.109375 -0.015625q-0.046875 -0.03125 -0.171875 -0.140625q-0.21875 -0.234375 -0.390625 -0.3125q-0.15625 -0.078125 -0.3125 -0.078125q-0.359375 0 -0.859375 0.28125q-0.484375 0.28125 -1.6875 1.359375l0 2.921875l2.359375 0q0.203125 0 0.28125 0.078125q0.078125 0.0625 0.078125 0.1875q0 0.109375 -0.078125 0.1875q-0.078125 0.078125 -0.28125 0.078125l-4.1875 0q-0.1875 0 -0.28125 -0.0625q-0.078125 -0.078125 -0.078125 -0.203125q0 -0.109375 0.078125 -0.171875q0.09375 -0.078125 0.28125 -0.078125l1.296875 0l0 -4.4375l-0.984375 0q-0.1875 0 -0.28125 -0.078125q-0.078125 -0.078125 -0.078125 -0.203125q0 -0.109375 0.078125 -0.1875q0.078125 -0.078125 0.28125 -0.078125l1.515625 0zm10.191895 0.359375q0 -0.1875 0.078125 -0.265625q0.078125 -0.09375 0.1875 -0.09375q0.125 0 0.203125 0.09375q0.078125 0.078125 0.078125 0.265625l0 0.921875q0 0.1875 -0.078125 0.28125q-0.078125 0.078125 -0.203125 0.078125q-0.09375 0 -0.171875 -0.0625q-0.078125 -0.078125 -0.09375 -0.25q-0.03125 -0.375 -0.390625 -0.625q-0.515625 -0.34375 -1.375 -0.34375q-0.890625 0 -1.390625 0.359375q-0.375 0.265625 -0.375 0.609375q0 0.375 0.453125 0.625q0.296875 0.1875 1.140625 0.28125q1.125 0.109375 1.546875 0.265625q0.625 0.21875 0.921875 0.625q0.296875 0.390625 0.296875 0.84375q0 0.6875 -0.65625 1.21875q-0.640625 0.515625 -1.90625 0.515625q-1.265625 0 -2.078125 -0.640625q0 0.21875 -0.03125 0.28125q-0.015625 0.0625 -0.09375 0.109375q-0.0625 0.046875 -0.140625 0.046875q-0.109375 0 -0.1875 -0.078125q-0.078125 -0.09375 -0.078125 -0.28125l0 -1.09375q0 -0.1875 0.0625 -0.265625q0.078125 -0.09375 0.203125 -0.09375q0.109375 0 0.1875 0.078125q0.09375 0.078125 0.09375 0.21875q0 0.296875 0.140625 0.484375q0.21875 0.3125 0.703125 0.515625q0.484375 0.1875 1.1875 0.1875q1.046875 0 1.546875 -0.375q0.515625 -0.390625 0.515625 -0.828125q0 -0.5 -0.515625 -0.796875q-0.515625 -0.296875 -1.515625 -0.390625q-0.984375 -0.109375 -1.421875 -0.265625q-0.4375 -0.171875 -0.671875 -0.5q-0.234375 -0.328125 -0.234375 -0.71875q0 -0.671875 0.671875 -1.078125q0.671875 -0.40625 1.59375 -0.40625q1.109375 0 1.796875 0.546875z" fill-rule="nonzero"/><path fill="#000000" fill-opacity="0.0" d="m7.03736 72.05425l168.18898 0l0 35.55906l-168.18898 0z" fill-rule="evenodd"/><path fill="#000000" d="m32.659195 93.854256l-2.484377 -4.953125l-0.15625 0q-0.1875 0 -0.265625 -0.078125q-0.078125 -0.078125 -0.078125 -0.1875q0 -0.09375 0.03125 -0.15625q0.046875 -0.0625 0.109375 -0.09375q0.0625 -0.03125 0.203125 -0.03125l1.46875 0q0.1875 0 0.265625 0.078125q0.078125 0.078125 0.078125 0.203125q0 0.109375 -0.078125 0.1875q-0.078125 0.078125 -0.265625 0.078125l-0.71875 0l2.171877 4.375l2.140625 -4.375l-0.703125 0q-0.203125 0 -0.28125 -0.078125q-0.078125 -0.078125 -0.078125 -0.203125q0 -0.109375 0.078125 -0.1875q0.078125 -0.078125 0.28125 -0.078125l1.453125 0q0.1875 0 0.265625 0.078125q0.09375 0.078125 0.09375 0.203125q0 0.078125 -0.0625 0.15625q-0.046875 0.0625 -0.109375 0.09375q-0.0625 0.015625 -0.359375 0.015625l-3.375 6.875l0.84375 0q0.1875 0 0.265625 0.0625q0.078125 0.078125 0.078125 0.203125q0 0.109375 -0.078125 0.1875q-0.078125 0.078125 -0.265625 0.078125l-3.078127 0q-0.1875 0 -0.28125 -0.078125q-0.078125 -0.078125 -0.078125 -0.1875q0 -0.125 0.078125 -0.203125q0.09375 -0.0625 0.28125 -0.0625l1.671875 0l0.9375019 -1.921875zm10.73877 -2.734375q0 1.21875 -0.875 2.078125q-0.859375 0.859375 -2.09375 0.859375q-1.25 0 -2.125 -0.859375q-0.859375 -0.875 -0.859375 -2.078125q0 -1.21875 0.859375 -2.078125q0.875 -0.875 2.125 -0.875q1.234375 0 2.09375 0.859375q0.875 0.859375 0.875 2.09375zm-0.53125 0q0 -1.0 -0.71875 -1.703125q-0.71875 -0.703125 -1.734375 -0.703125q-1.015625 0 -1.734375 0.703125q-0.703125 0.703125 -0.703125 1.703125q0 0.984375 0.703125 1.703125q0.71875 0.703125 1.734375 0.703125q1.015625 0 1.734375 -0.703125q0.71875 -0.703125 0.71875 -1.703125zm7.1762695 2.734375l0 -0.78125q-1.078125 0.984375 -2.359375 0.984375q-0.78125 0 -1.1875 -0.421875q-0.515625 -0.5625 -0.515625 -1.296875l0 -3.4375l-0.71875 0q-0.1875 0 -0.28125 -0.078125q-0.078125 -0.078125 -0.078125 -0.203125q0 -0.109375 0.078125 -0.1875q0.09375 -0.078125 0.28125 -0.078125l1.25 0l0 3.984375q0 0.515625 0.328125 0.859375q0.328125 0.328125 0.828125 0.328125q1.296875 0 2.375 -1.1875l0 -3.4375l-0.984375 0q-0.1875 0 -0.265625 -0.078125q-0.078125 -0.078125 -0.078125 -0.203125q0 -0.109375 0.078125 -0.1875q0.078125 -0.078125 0.265625 -0.078125l1.53125 0l0 4.96875l0.4375 0q0.203125 0 0.28125 0.078125q0.078125 0.0625 0.078125 0.1875q0 0.109375 -0.078125 0.1875q-0.078125 0.078125 -0.28125 0.078125l-0.984375 0zm5.3481445 -5.5l0 1.34375q1.03125 -0.9375 1.546875 -1.203125q0.53125 -0.265625 0.96875 -0.265625q0.46875 0 0.875 0.328125q0.421875 0.3125 0.421875 0.46875q0 0.125 -0.09375 0.203125q-0.078125 0.078125 -0.1875 0.078125q-0.0625 0 -0.109375 -0.015625q-0.046875 -0.03125 -0.171875 -0.140625q-0.21875 -0.234375 -0.390625 -0.3125q-0.15625 -0.078125 -0.3125 -0.078125q-0.359375 0 -0.859375 0.28125q-0.484375 0.28125 -1.6875 1.359375l0 2.921875l2.359375 0q0.203125 0 0.28125 0.078125q0.078125 0.0625 0.078125 0.1875q0 0.109375 -0.078125 0.1875q-0.078125 0.078125 -0.28125 0.078125l-4.1875 0q-0.1875 0 -0.28125 -0.0625q-0.078125 -0.078125 -0.078125 -0.203125q0 -0.109375 0.078125 -0.171875q0.09375 -0.078125 0.28125 -0.078125l1.296875 0l0 -4.4375l-0.984375 0q-0.1875 0 -0.28125 -0.078125q-0.078125 -0.078125 -0.078125 -0.203125q0 -0.109375 0.078125 -0.1875q0.078125 -0.078125 0.28125 -0.078125l1.515625 0zm18.07129 5.5l-0.65625 0l-1.171875 -3.421875l-1.171875 3.421875l-0.65625 0l-1.109375 -4.953125l-0.25 0q-0.203125 0 -0.28125 -0.078125q-0.078125 -0.078125 -0.078125 -0.203125q0 -0.109375 0.078125 -0.1875q0.078125 -0.078125 0.28125 -0.078125l1.453125 0q0.203125 0 0.28125 0.078125q0.078125 0.078125 0.078125 0.203125q0 0.109375 -0.078125 0.1875q-0.078125 0.078125 -0.28125 0.078125l-0.671875 0l0.9375 4.21875l1.140625 -3.375l0.640625 0l1.171875 3.375l0.90625 -4.21875l-0.671875 0q-0.203125 0 -0.296875 -0.078125q-0.078125 -0.078125 -0.078125 -0.203125q0 -0.109375 0.078125 -0.1875q0.09375 -0.078125 0.296875 -0.078125l1.453125 0q0.203125 0 0.28125 0.078125q0.078125 0.078125 0.078125 0.203125q0 0.109375 -0.078125 0.1875q-0.078125 0.078125 -0.28125 0.078125l-0.25 0l-1.09375 4.953125zm8.941895 -2.734375q0 1.21875 -0.875 2.078125q-0.859375 0.859375 -2.09375 0.859375q-1.25 0 -2.125 -0.859375q-0.859375 -0.875 -0.859375 -2.078125q0 -1.21875 0.859375 -2.078125q0.875 -0.875 2.125 -0.875q1.234375 0 2.09375 0.859375q0.875 0.859375 0.875 2.09375zm-0.53125 0q0 -1.0 -0.71875 -1.703125q-0.71875 -0.703125 -1.734375 -0.703125q-1.015625 0 -1.734375 0.703125q-0.703125 0.703125 -0.703125 1.703125q0 0.984375 0.703125 1.703125q0.71875 0.703125 1.734375 0.703125q1.015625 0 1.734375 -0.703125q0.71875 -0.703125 0.71875 -1.703125zm4.7231445 -2.765625l0 1.34375q1.03125 -0.9375 1.546875 -1.203125q0.53125 -0.265625 0.96875 -0.265625q0.46875 0 0.875 0.328125q0.421875 0.3125 0.421875 0.46875q0 0.125 -0.09375 0.203125q-0.078125 0.078125 -0.1875 0.078125q-0.0625 0 -0.109375 -0.015625q-0.046875 -0.03125 -0.171875 -0.140625q-0.21875 -0.234375 -0.390625 -0.3125q-0.15625 -0.078125 -0.3125 -0.078125q-0.359375 0 -0.859375 0.28125q-0.484375 0.28125 -1.6875 1.359375l0 2.921875l2.359375 0q0.203125 0 0.28125 0.078125q0.078125 0.0625 0.078125 0.1875q0 0.109375 -0.078125 0.1875q-0.078125 0.078125 -0.28125 0.078125l-4.1875 0q-0.1875 0 -0.28125 -0.0625q-0.078125 -0.078125 -0.078125 -0.203125q0 -0.109375 0.078125 -0.171875q0.09375 -0.078125 0.28125 -0.078125l1.296875 0l0 -4.4375l-0.984375 0q-0.1875 0 -0.28125 -0.078125q-0.078125 -0.078125 -0.078125 -0.203125q0 -0.109375 0.078125 -0.1875q0.078125 -0.078125 0.28125 -0.078125l1.515625 0zm7.3481445 3.125l0 2.375l-1.25 0q-0.1875 0 -0.265625 -0.078125q-0.078125 -0.078125 -0.078125 -0.1875q0 -0.125 0.078125 -0.1875q0.078125 -0.078125 0.265625 -0.078125l0.71875 0l0 -6.890625l-0.71875 0q-0.1875 0 -0.265625 -0.078125q-0.078125 -0.078125 -0.078125 -0.203125q0 -0.109375 0.078125 -0.1875q0.078125 -0.078125 0.265625 -0.078125l1.25 0l0 4.921875l2.265625 -1.90625l-0.265625 0q-0.1875 0 -0.28125 -0.078125q-0.078125 -0.078125 -0.078125 -0.1875q0 -0.125 0.078125 -0.203125q0.09375 -0.078125 0.28125 -0.078125l1.703125 0q0.203125 0 0.28125 0.078125q0.078125 0.078125 0.078125 0.203125q0 0.109375 -0.078125 0.1875q-0.078125 0.078125 -0.28125 0.078125l-0.609375 0l-2.078125 1.734375l2.625 2.6875l0.625 0q0.1875 0 0.265625 0.078125q0.09375 0.0625 0.09375 0.1875q0 0.109375 -0.09375 0.1875q-0.078125 0.078125 -0.265625 0.078125l-1.734375 0q-0.1875 0 -0.28125 -0.078125q-0.078125 -0.078125 -0.078125 -0.1875q0 -0.125 0.078125 -0.1875q0.09375 -0.078125 0.28125 -0.078125l0.375 0l-2.296875 -2.359375l-0.609375 0.515625zm10.64502 -2.765625q0 -0.1875 0.078125 -0.265625q0.078125 -0.09375 0.1875 -0.09375q0.125 0 0.203125 0.09375q0.078125 0.078125 0.078125 0.265625l0 0.921875q0 0.1875 -0.078125 0.28125q-0.078125 0.078125 -0.203125 0.078125q-0.09375 0 -0.171875 -0.0625q-0.078125 -0.078125 -0.09375 -0.25q-0.03125 -0.375 -0.390625 -0.625q-0.515625 -0.34375 -1.375 -0.34375q-0.890625 0 -1.390625 0.359375q-0.375 0.265625 -0.375 0.609375q0 0.375 0.453125 0.625q0.296875 0.1875 1.140625 0.28125q1.125 0.109375 1.546875 0.265625q0.625 0.21875 0.921875 0.625q0.296875 0.390625 0.296875 0.84375q0 0.6875 -0.65625 1.21875q-0.640625 0.515625 -1.90625 0.515625q-1.265625 0 -2.078125 -0.640625q0 0.21875 -0.03125 0.28125q-0.015625 0.0625 -0.09375 0.109375q-0.0625 0.046875 -0.140625 0.046875q-0.109375 0 -0.1875 -0.078125q-0.078125 -0.09375 -0.078125 -0.28125l0 -1.09375q0 -0.1875 0.0625 -0.265625q0.078125 -0.09375 0.203125 -0.09375q0.109375 0 0.1875 0.078125q0.09375 0.078125 0.09375 0.21875q0 0.296875 0.140625 0.484375q0.21875 0.3125 0.703125 0.515625q0.484375 0.1875 1.1875 0.1875q1.046875 0 1.546875 -0.375q0.515625 -0.390625 0.515625 -0.828125q0 -0.5 -0.515625 -0.796875q-0.515625 -0.296875 -1.515625 -0.390625q-0.984375 -0.109375 -1.421875 -0.265625q-0.4375 -0.171875 -0.671875 -0.5q-0.234375 -0.328125 -0.234375 -0.71875q0 -0.671875 0.671875 -1.078125q0.671875 -0.40625 1.59375 -0.40625q1.109375 0 1.796875 0.546875zm4.9575195 -0.359375l2.890625 0q0.1875 0 0.265625 0.078125q0.09375 0.078125 0.09375 0.203125q0 0.109375 -0.09375 0.1875q-0.078125 0.078125 -0.265625 0.078125l-2.890625 0l0 3.546875q0 0.453125 0.359375 0.765625q0.375 0.3125 1.09375 0.3125q0.546875 0 1.171875 -0.15625q0.625 -0.15625 0.96875 -0.359375q0.125 -0.09375 0.21875 -0.09375q0.09375 0 0.171875 0.078125q0.078125 0.078125 0.078125 0.1875q0 0.09375 -0.078125 0.1875q-0.203125 0.203125 -1.0 0.453125q-0.78125 0.234375 -1.5 0.234375q-0.921875 0 -1.484375 -0.4375q-0.546875 -0.4375 -0.546875 -1.171875l0 -3.546875l-0.984375 0q-0.1875 0 -0.28125 -0.078125q-0.078125 -0.078125 -0.078125 -0.203125q0 -0.109375 0.078125 -0.1875q0.09375 -0.078125 0.28125 -0.078125l0.984375 0l0 -1.578125q0 -0.1875 0.078125 -0.265625q0.078125 -0.078125 0.1875 -0.078125q0.125 0 0.203125 0.078125q0.078125 0.078125 0.078125 0.265625l0 1.578125zm10.42627 5.5l0 -0.765625q-1.171875 0.96875 -2.484375 0.96875q-0.953125 0 -1.5 -0.484375q-0.53125 -0.484375 -0.53125 -1.1875q0 -0.765625 0.703125 -1.34375q0.71875 -0.578125 2.078125 -0.578125q0.359375 0 0.796875 0.046875q0.4375 0.046875 0.9375 0.140625l0 -0.859375q0 -0.4375 -0.40625 -0.75q-0.40625 -0.328125 -1.21875 -0.328125q-0.625 0 -1.75 0.359375q-0.203125 0.0625 -0.265625 0.0625q-0.09375 0 -0.171875 -0.078125q-0.0625 -0.078125 -0.0625 -0.1875q0 -0.109375 0.0625 -0.171875q0.078125 -0.09375 0.71875 -0.265625q0.984375 -0.265625 1.484375 -0.265625q1.015625 0 1.578125 0.5q0.5625 0.5 0.5625 1.125l0 3.53125l0.71875 0q0.1875 0 0.265625 0.078125q0.09375 0.0625 0.09375 0.1875q0 0.109375 -0.09375 0.1875q-0.078125 0.078125 -0.265625 0.078125l-1.25 0zm0 -2.65625q-0.375 -0.109375 -0.796875 -0.15625q-0.421875 -0.046875 -0.875 -0.046875q-1.171875 0 -1.828125 0.5q-0.484375 0.375 -0.484375 0.890625q0 0.484375 0.375 0.8125q0.375 0.328125 1.09375 0.328125q0.703125 0 1.296875 -0.265625q0.59375 -0.28125 1.21875 -0.890625l0 -1.171875zm5.1762695 -2.84375l2.890625 0q0.1875 0 0.265625 0.078125q0.09375 0.078125 0.09375 0.203125q0 0.109375 -0.09375 0.1875q-0.078125 0.078125 -0.265625 0.078125l-2.890625 0l0 3.546875q0 0.453125 0.359375 0.765625q0.375 0.3125 1.09375 0.3125q0.546875 0 1.171875 -0.15625q0.625 -0.15625 0.96875 -0.359375q0.125 -0.09375 0.21875 -0.09375q0.09375 0 0.171875 0.078125q0.078125 0.078125 0.078125 0.1875q0 0.09375 -0.078125 0.1875q-0.203125 0.203125 -1.0 0.453125q-0.78125 0.234375 -1.5 0.234375q-0.921875 0 -1.484375 -0.4375q-0.546875 -0.4375 -0.546875 -1.171875l0 -3.546875l-0.984375 0q-0.1875 0 -0.28125 -0.078125q-0.078125 -0.078125 -0.078125 -0.203125q0 -0.109375 0.078125 -0.1875q0.09375 -0.078125 0.28125 -0.078125l0.984375 0l0 -1.578125q0 -0.1875 0.078125 -0.265625q0.078125 -0.078125 0.1875 -0.078125q0.125 0 0.203125 0.078125q0.078125 0.078125 0.078125 0.265625l0 1.578125zm9.160645 -2.734375l0 1.375l-0.796875 0l0 -1.375l0.796875 0zm0.015625 2.734375l0 4.96875l2.0937347 0q0.1875 0 0.265625 0.078125q0.09375 0.0625 0.09375 0.1875q0 0.109375 -0.09375 0.1875q-0.078125 0.078125 -0.265625 0.078125l-4.7187347 0q-0.203125 0 -0.28125 -0.078125q-0.078125 -0.078125 -0.078125 -0.1875q0 -0.125 0.078125 -0.1875q0.078125 -0.078125 0.28125 -0.078125l2.09375 0l0 -4.421875l-1.5625 0q-0.1875 0 -0.28125 -0.078125q-0.078125 -0.078125 -0.078125 -0.1875q0 -0.125 0.078125 -0.203125q0.078125 -0.078125 0.28125 -0.078125l2.09375 0zm10.488754 2.765625q0 1.21875 -0.875 2.078125q-0.859375 0.859375 -2.09375 0.859375q-1.25 0 -2.125 -0.859375q-0.859375 -0.875 -0.859375 -2.078125q0 -1.21875 0.859375 -2.078125q0.875 -0.875 2.125 -0.875q1.234375 0 2.09375 0.859375q0.875 0.859375 0.875 2.09375zm-0.53125 0q0 -1.0 -0.71875 -1.703125q-0.71875 -0.703125 -1.734375 -0.703125q-1.015625 0 -1.734375 0.703125q-0.703125 0.703125 -0.703125 1.703125q0 0.984375 0.703125 1.703125q0.71875 0.703125 1.734375 0.703125q1.015625 0 1.734375 -0.703125q0.71875 -0.703125 0.71875 -1.703125zm3.6293945 -2.765625l0 0.8125q0.5625 -0.5625 1.015625 -0.78125q0.453125 -0.21875 1.015625 -0.21875q0.609375 0 1.109375 0.265625q0.359375 0.1875 0.640625 0.625q0.296875 0.4375 0.296875 0.90625l0 3.359375l0.453125 0q0.1875 0 0.265625 0.078125q0.078125 0.0625 0.078125 0.1875q0 0.109375 -0.078125 0.1875q-0.078125 0.078125 -0.265625 0.078125l-1.4375 0q-0.1875 0 -0.28125 -0.078125q-0.078125 -0.078125 -0.078125 -0.1875q0 -0.125 0.078125 -0.1875q0.09375 -0.078125 0.28125 -0.078125l0.453125 0l0 -3.265625q0 -0.578125 -0.421875 -0.953125q-0.40625 -0.390625 -1.09375 -0.390625q-0.53125 0 -0.921875 0.21875q-0.390625 0.203125 -1.109375 1.046875l0 3.34375l0.609375 0q0.1875 0 0.265625 0.078125q0.09375 0.0625 0.09375 0.1875q0 0.109375 -0.09375 0.1875q-0.078125 0.078125 -0.265625 0.078125l-1.734375 0q-0.203125 0 -0.28125 -0.078125q-0.078125 -0.078125 -0.078125 -0.1875q0 -0.125 0.078125 -0.1875q0.078125 -0.078125 0.28125 -0.078125l0.59375 0l0 -4.421875l-0.453125 0q-0.1875 0 -0.265625 -0.078125q-0.078125 -0.078125 -0.078125 -0.203125q0 -0.109375 0.078125 -0.1875q0.078125 -0.078125 0.265625 -0.078125l0.984375 0z" fill-rule="nonzero"/><path fill="#000000" fill-opacity="0.0" d="m175.22633 42.542442l105.19685 -0.81889725" fill-rule="evenodd"/><path stroke="#595959" stroke-width="1.0" stroke-linejoin="round" stroke-linecap="butt" d="m175.22633 42.542442l99.19704 -0.7721901" fill-rule="evenodd"/><path fill="#595959" stroke="#595959" stroke-width="1.0" stroke-linecap="butt" d="m274.43622 43.421932l4.525116 -1.6870079l-4.550812 -1.6163559z" fill-rule="evenodd"/><path fill="#ffffff" d="m600.4244 31.973238l0 0c0 -2.693348 2.1834106 -4.8767376 4.876709 -4.8767376l150.12054 0c1.293396 0 2.5338135 0.51379776 3.4483643 1.4283638c0.9146118 0.91456604 1.4284058 2.1549835 1.4284058 3.4483738l0 19.506369c0 2.693348 -2.1834106 4.8767357 -4.87677 4.8767357l-150.12054 0c-2.6932983 0 -4.876709 -2.1833878 -4.876709 -4.8767357z" fill-rule="evenodd"/><path stroke="#595959" stroke-width="1.0" stroke-linejoin="round" stroke-linecap="butt" d="m600.4244 31.973238l0 0c0 -2.693348 2.1834106 -4.8767376 4.876709 -4.8767376l150.12054 0c1.293396 0 2.5338135 0.51379776 3.4483643 1.4283638c0.9146118 0.91456604 1.4284058 2.1549835 1.4284058 3.4483738l0 19.506369c0 2.693348 -2.1834106 4.8767357 -4.87677 4.8767357l-150.12054 0c-2.6932983 0 -4.876709 -2.1833878 -4.876709 -4.8767357z" fill-rule="evenodd"/><path fill="#000000" fill-opacity="0.0" d="m608.76965 41.61562l0 0c0 -2.6527061 2.1504517 -4.8031464 4.8031616 -4.8031464l0 0c1.2738647 0 2.4955444 0.5060425 3.3963013 1.406807c0.90075684 0.9007683 1.4067993 2.122467 1.4067993 3.3963394l0 0c0 2.6527061 -2.1503906 4.80315 -4.8031006 4.80315l0 0c-2.65271 0 -4.8031616 -2.150444 -4.8031616 -4.80315z" fill-rule="evenodd"/><path stroke="#595959" stroke-width="1.0" stroke-linejoin="round" stroke-linecap="butt" d="m608.76965 41.61562l0 0c0 -2.6527061 2.1504517 -4.8031464 4.8031616 -4.8031464l0 0c1.2738647 0 2.4955444 0.5060425 3.3963013 1.406807c0.90075684 0.9007683 1.4067993 2.122467 1.4067993 3.3963394l0 0c0 2.6527061 -2.1503906 4.80315 -4.8031006 4.80315l0 0c-2.65271 0 -4.8031616 -2.150444 -4.8031616 -4.80315z" fill-rule="evenodd"/><path fill="#000000" fill-opacity="0.0" d="m624.76965 41.61562l0 0c0 -2.6527061 2.1504517 -4.8031464 4.8031616 -4.8031464l0 0c1.2738647 0 2.4955444 0.5060425 3.3963013 1.406807c0.90075684 0.9007683 1.4067993 2.122467 1.4067993 3.3963394l0 0c0 2.6527061 -2.1503906 4.80315 -4.8031006 4.80315l0 0c-2.65271 0 -4.8031616 -2.150444 -4.8031616 -4.80315z" fill-rule="evenodd"/><path stroke="#595959" stroke-width="1.0" stroke-linejoin="round" stroke-linecap="butt" d="m624.76965 41.61562l0 0c0 -2.6527061 2.1504517 -4.8031464 4.8031616 -4.8031464l0 0c1.2738647 0 2.4955444 0.5060425 3.3963013 1.406807c0.90075684 0.9007683 1.4067993 2.122467 1.4067993 3.3963394l0 0c0 2.6527061 -2.1503906 4.80315 -4.8031006 4.80315l0 0c-2.65271 0 -4.8031616 -2.150444 -4.8031616 -4.80315z" fill-rule="evenodd"/><path fill="#000000" fill-opacity="0.0" d="m642.77246 41.61562l108.944885 0" fill-rule="evenodd"/><path stroke="#595959" stroke-width="1.0" stroke-linejoin="round" stroke-linecap="butt" d="m642.77246 41.61562l108.944885 0" fill-rule="evenodd"/><path fill="#000000" fill-opacity="0.0" d="m600.42316 -7.7226496l159.87402 0l0 35.559055l-159.87402 0z" fill-rule="evenodd"/><path fill="#000000" d="m639.24005 9.561725l0 -0.984375l1.25 0q0.203125 0 0.28125 0.078125q0.078125 0.078125 0.078125 0.203125q0 0.109375 -0.078125 0.1875q-0.078125 0.078125 -0.28125 0.078125l-0.703125 0l0 5.328125q0 0.53125 -0.234375 0.953125q-0.15625 0.265625 -0.515625 0.5625q-0.34375 0.31250095 -0.640625 0.43750095q-0.296875 0.125 -0.78125 0.125l-1.515625 0q-0.1875 0 -0.265625 -0.078125q-0.078125 -0.078125 -0.078125 -0.1875q0 -0.125 0.078125 -0.203125q0.078125 -0.07812595 0.265625 -0.07812595l1.53125 0.015625q0.46875 0 0.84375 -0.25q0.390625 -0.234375 0.625 -0.703125q0.140625 -0.265625 0.140625 -0.671875l0 -1.609375q-0.84375 1.171875 -2.203125 1.171875q-1.09375 0 -1.890625 -0.8125q-0.796875 -0.8125 -0.796875 -1.953125q0 -1.15625 0.796875 -1.96875q0.796875 -0.8125 1.890625 -0.8125q1.359375 0 2.203125 1.171875zm0 1.609375q0 -0.953125 -0.640625 -1.59375q-0.640625 -0.640625 -1.53125 -0.640625q-0.90625 0 -1.546875 0.65625q-0.640625 0.640625 -0.640625 1.578125q0 0.9375 0.640625 1.59375q0.640625 0.640625 1.546875 0.640625q0.890625 0 1.53125 -0.640625q0.640625 -0.65625 0.640625 -1.59375zm5.3793945 -2.59375l0 1.34375q1.03125 -0.9375 1.546875 -1.203125q0.53125 -0.265625 0.96875 -0.265625q0.46875 0 0.875 0.328125q0.421875 0.3125 0.421875 0.46875q0 0.125 -0.09375 0.203125q-0.078125 0.078125 -0.1875 0.078125q-0.0625 0 -0.109375 -0.015625q-0.046875 -0.03125 -0.171875 -0.140625q-0.21875 -0.234375 -0.390625 -0.3125q-0.15625 -0.078125 -0.3125 -0.078125q-0.359375 0 -0.859375 0.28125q-0.484375 0.28125 -1.6875 1.359375l0 2.921875l2.359375 0q0.203125 0 0.28125 0.078125q0.078125 0.0625 0.078125 0.1875q0 0.109375 -0.078125 0.1875q-0.078125 0.078125 -0.28125 0.078125l-4.1875 0q-0.1875 0 -0.28125 -0.0625q-0.078125 -0.078125 -0.078125 -0.203125q0 -0.109375 0.078125 -0.171875q0.09375 -0.078125 0.28125 -0.078125l1.296875 0l0 -4.4375l-0.984375 0q-0.1875 0 -0.28125 -0.078125q-0.078125 -0.078125 -0.078125 -0.203125q0 -0.109375 0.078125 -0.1875q0.078125 -0.078125 0.28125 -0.078125l1.515625 0zm9.973145 5.5l0 -0.765625q-1.171875 0.96875 -2.484375 0.96875q-0.953125 0 -1.5 -0.484375q-0.53125 -0.484375 -0.53125 -1.1875q0 -0.765625 0.703125 -1.34375q0.71875 -0.578125 2.078125 -0.578125q0.359375 0 0.796875 0.046875q0.4375 0.046875 0.9375 0.140625l0 -0.859375q0 -0.4375 -0.40625 -0.75q-0.40625 -0.328125 -1.21875 -0.328125q-0.625 0 -1.75 0.359375q-0.203125 0.0625 -0.265625 0.0625q-0.09375 0 -0.171875 -0.078125q-0.0625 -0.078125 -0.0625 -0.1875q0 -0.109375 0.0625 -0.171875q0.078125 -0.09375 0.71875 -0.265625q0.984375 -0.265625 1.484375 -0.265625q1.015625 0 1.578125 0.5q0.5625 0.5 0.5625 1.125l0 3.53125l0.71875 0q0.1875 0 0.265625 0.078125q0.09375 0.0625 0.09375 0.1875q0 0.109375 -0.09375 0.1875q-0.078125 0.078125 -0.265625 0.078125l-1.25 0zm0 -2.65625q-0.375 -0.109375 -0.796875 -0.15625q-0.421875 -0.046875 -0.875 -0.046875q-1.171875 0 -1.828125 0.5q-0.484375 0.375 -0.484375 0.890625q0 0.484375 0.375 0.8125q0.375 0.328125 1.09375 0.328125q0.703125 0 1.296875 -0.265625q0.59375 -0.28125 1.21875 -0.890625l0 -1.171875zm4.2543945 -5.3125l0 3.53125q0.96875 -1.25 2.328125 -1.25q1.171875 0 2.0 0.84375q0.828125 0.84375 0.828125 2.078125q0 1.25 -0.84375 2.109375q-0.828125 0.859375 -1.984375 0.859375q-1.390625 0 -2.328125 -1.25l0 1.046875l-1.25 0q-0.1875 0 -0.28125 -0.078125q-0.078125 -0.078125 -0.078125 -0.1875q0 -0.125 0.078125 -0.1875q0.09375 -0.078125 0.28125 -0.078125l0.71875 0l0 -6.890625l-0.71875 0q-0.1875 0 -0.28125 -0.078125q-0.078125 -0.078125 -0.078125 -0.203125q0 -0.109375 0.078125 -0.1875q0.09375 -0.078125 0.28125 -0.078125l1.25 0zm4.625 5.234375q0 -1.015625 -0.6875 -1.703125q-0.6875 -0.703125 -1.625 -0.703125q-0.921875 0 -1.625 0.703125q-0.6875 0.6875 -0.6875 1.703125q0 1.0 0.6875 1.703125q0.703125 0.703125 1.625 0.703125q0.9375 0 1.625 -0.703125q0.6875 -0.703125 0.6875 -1.703125zm6.7231445 2.734375l0 -0.765625q-1.171875 0.96875 -2.484375 0.96875q-0.953125 0 -1.5 -0.484375q-0.53125 -0.484375 -0.53125 -1.1875q0 -0.765625 0.703125 -1.34375q0.71875 -0.578125 2.078125 -0.578125q0.359375 0 0.796875 0.046875q0.4375 0.046875 0.9375 0.140625l0 -0.859375q0 -0.4375 -0.40625 -0.75q-0.40625 -0.328125 -1.21875 -0.328125q-0.625 0 -1.75 0.359375q-0.203125 0.0625 -0.265625 0.0625q-0.09375 0 -0.171875 -0.078125q-0.0625 -0.078125 -0.0625 -0.1875q0 -0.109375 0.0625 -0.171875q0.078125 -0.09375 0.71875 -0.265625q0.984375 -0.265625 1.484375 -0.265625q1.015625 0 1.578125 0.5q0.5625 0.5 0.5625 1.125l0 3.53125l0.71875 0q0.1875 0 0.265625 0.078125q0.09375 0.0625 0.09375 0.1875q0 0.109375 -0.09375 0.1875q-0.078125 0.078125 -0.265625 0.078125l-1.25 0zm0 -2.65625q-0.375 -0.109375 -0.796875 -0.15625q-0.421875 -0.046875 -0.875 -0.046875q-1.171875 0 -1.828125 0.5q-0.484375 0.375 -0.484375 0.890625q0 0.484375 0.375 0.8125q0.375 0.328125 1.09375 0.328125q0.703125 0 1.296875 -0.265625q0.59375 -0.28125 1.21875 -0.890625l0 -1.171875zm5.1762695 0.28125l0 2.375l-1.25 0q-0.1875 0 -0.265625 -0.078125q-0.078125 -0.078125 -0.078125 -0.1875q0 -0.125 0.078125 -0.1875q0.078125 -0.078125 0.265625 -0.078125l0.71875 0l0 -6.890625l-0.71875 0q-0.1875 0 -0.265625 -0.078125q-0.078125 -0.078125 -0.078125 -0.203125q0 -0.109375 0.078125 -0.1875q0.078125 -0.078125 0.265625 -0.078125l1.25 0l0 4.921875l2.265625 -1.90625l-0.265625 0q-0.1875 0 -0.28125 -0.078125q-0.078125 -0.078125 -0.078125 -0.1875q0 -0.125 0.078125 -0.203125q0.09375 -0.078125 0.28125 -0.078125l1.703125 0q0.203125 0 0.28125 0.078125q0.078125 0.078125 0.078125 0.203125q0 0.109375 -0.078125 0.1875q-0.078125 0.078125 -0.28125 0.078125l-0.609375 0l-2.078125 1.734375l2.625 2.6875l0.625 0q0.1875 0 0.265625 0.078125q0.09375 0.0625 0.09375 0.1875q0 0.109375 -0.09375 0.1875q-0.078125 0.078125 -0.265625 0.078125l-1.734375 0q-0.1875 0 -0.28125 -0.078125q-0.078125 -0.078125 -0.078125 -0.1875q0 -0.125 0.078125 -0.1875q0.09375 -0.078125 0.28125 -0.078125l0.375 0l-2.296875 -2.359375l-0.609375 0.515625zm11.77002 -0.25l-5.421875 0q0.125 1.03125 0.859375 1.671875q0.734375 0.625 1.796875 0.625q0.59375 0 1.25 -0.1875q0.65625 -0.203125 1.0625 -0.53125q0.125 -0.09375 0.21875 -0.09375q0.09375 0 0.171875 0.078125q0.078125 0.078125 0.078125 0.1875q0 0.109375 -0.09375 0.21875q-0.3125 0.3125 -1.09375 0.59375q-0.765625 0.265625 -1.59375 0.265625q-1.375 0 -2.296875 -0.890625q-0.90625 -0.90625 -0.90625 -2.171875q0 -1.171875 0.859375 -2.0q0.859375 -0.828125 2.125 -0.828125q1.3125 0 2.15625 0.859375q0.84375 0.84375 0.828125 2.203125zm-0.53125 -0.53125q-0.15625 -0.890625 -0.84375 -1.4375q-0.671875 -0.546875 -1.609375 -0.546875q-0.921875 0 -1.59375 0.546875q-0.671875 0.53125 -0.84375 1.4375l4.890625 0zm5.4887695 3.15625l-2.484375 -4.953125l-0.15625 0q-0.1875 0 -0.265625 -0.078125q-0.078125 -0.078125 -0.078125 -0.1875q0 -0.09375 0.03125 -0.15625q0.046875 -0.0625 0.109375 -0.09375q0.0625 -0.03125 0.203125 -0.03125l1.46875 0q0.1875 0 0.265625 0.078125q0.078125 0.078125 0.078125 0.203125q0 0.109375 -0.078125 0.1875q-0.078125 0.078125 -0.265625 0.078125l-0.71875 0l2.171875 4.375l2.140625 -4.375l-0.703125 0q-0.203125 0 -0.28125 -0.078125q-0.078125 -0.078125 -0.078125 -0.203125q0 -0.109375 0.078125 -0.1875q0.078125 -0.078125 0.28125 -0.078125l1.453125 0q0.1875 0 0.265625 0.078125q0.09375 0.078125 0.09375 0.203125q0 0.078125 -0.0625 0.15625q-0.046875 0.0625 -0.109375 0.09375q-0.0625 0.015625 -0.359375 0.015625l-3.375 6.875l0.84375 0q0.1875 0 0.265625 0.06250095q0.078125 0.078125 0.078125 0.203125q0 0.109375 -0.078125 0.1875q-0.078125 0.078125 -0.265625 0.078125l-3.078125 0q-0.1875 0 -0.28125 -0.078125q-0.078125 -0.078125 -0.078125 -0.1875q0 -0.125 0.078125 -0.203125q0.09375 -0.06250095 0.28125 -0.06250095l1.671875 0l0.9375 -1.921875zm7.6606445 -1.53125l0.21875 0q0.359375 0 0.609375 0.25q0.25 0.25 0.25 0.609375q0 0.359375 -0.25 0.609375q-0.25 0.25 -0.609375 0.25l-0.21875 0q-0.359375 0 -0.625 -0.25q-0.25 -0.25 -0.25 -0.609375q0 -0.359375 0.25 -0.609375q0.265625 -0.25 0.625 -0.25zm10.879395 -1.203125q0 1.21875 -0.875 2.078125q-0.859375 0.859375 -2.09375 0.859375q-1.25 0 -2.125 -0.859375q-0.859375 -0.875 -0.859375 -2.078125q0 -1.21875 0.859375 -2.078125q0.875 -0.875 2.125 -0.875q1.234375 0 2.09375 0.859375q0.875 0.859375 0.875 2.09375zm-0.53125 0q0 -1.0 -0.71875 -1.703125q-0.71875 -0.703125 -1.734375 -0.703125q-1.015625 0 -1.734375 0.703125q-0.703125 0.703125 -0.703125 1.703125q0 0.984375 0.703125 1.703125q0.71875 0.703125 1.734375 0.703125q1.015625 0 1.734375 -0.703125q0.71875 -0.703125 0.71875 -1.703125zm4.7231445 -2.765625l0 1.34375q1.03125 -0.9375 1.546875 -1.203125q0.53125 -0.265625 0.96875 -0.265625q0.46875 0 0.875 0.328125q0.421875 0.3125 0.421875 0.46875q0 0.125 -0.09375 0.203125q-0.078125 0.078125 -0.1875 0.078125q-0.0625 0 -0.109375 -0.015625q-0.046875 -0.03125 -0.171875 -0.140625q-0.21875 -0.234375 -0.390625 -0.3125q-0.15625 -0.078125 -0.3125 -0.078125q-0.359375 0 -0.859375 0.28125q-0.484375 0.28125 -1.6875 1.359375l0 2.921875l2.359375 0q0.203125 0 0.28125 0.078125q0.078125 0.0625 0.078125 0.1875q0 0.109375 -0.078125 0.1875q-0.078125 0.078125 -0.28125 0.078125l-4.1875 0q-0.1875 0 -0.28125 -0.0625q-0.078125 -0.078125 -0.078125 -0.203125q0 -0.109375 0.078125 -0.171875q0.09375 -0.078125 0.28125 -0.078125l1.296875 0l0 -4.4375l-0.984375 0q-0.1875 0 -0.28125 -0.078125q-0.078125 -0.078125 -0.078125 -0.203125q0 -0.109375 0.078125 -0.1875q0.078125 -0.078125 0.28125 -0.078125l1.515625 0zm10.223145 0.984375l0 -0.984375l1.25 0q0.203125 0 0.28125 0.078125q0.078125 0.078125 0.078125 0.203125q0 0.109375 -0.078125 0.1875q-0.078125 0.078125 -0.28125 0.078125l-0.703125 0l0 5.328125q0 0.53125 -0.234375 0.953125q-0.15625 0.265625 -0.515625 0.5625q-0.34375 0.31250095 -0.640625 0.43750095q-0.296875 0.125 -0.78125 0.125l-1.515625 0q-0.1875 0 -0.265625 -0.078125q-0.078125 -0.078125 -0.078125 -0.1875q0 -0.125 0.078125 -0.203125q0.078125 -0.07812595 0.265625 -0.07812595l1.53125 0.015625q0.46875 0 0.84375 -0.25q0.390625 -0.234375 0.625 -0.703125q0.140625 -0.265625 0.140625 -0.671875l0 -1.609375q-0.84375 1.171875 -2.203125 1.171875q-1.09375 0 -1.890625 -0.8125q-0.796875 -0.8125 -0.796875 -1.953125q0 -1.15625 0.796875 -1.96875q0.796875 -0.8125 1.890625 -0.8125q1.359375 0 2.203125 1.171875zm0 1.609375q0 -0.953125 -0.640625 -1.59375q-0.640625 -0.640625 -1.53125 -0.640625q-0.90625 0 -1.546875 0.65625q-0.640625 0.640625 -0.640625 1.578125q0 0.9375 0.640625 1.59375q0.640625 0.640625 1.546875 0.640625q0.890625 0 1.53125 -0.640625q0.640625 -0.65625 0.640625 -1.59375z" fill-rule="nonzero"/><path fill="#000000" fill-opacity="0.0" d="m440.2984 41.72642l160.12598 0" fill-rule="evenodd"/><path stroke="#595959" stroke-width="1.0" stroke-linejoin="round" stroke-linecap="butt" d="m440.2984 41.72642l154.12598 0" fill-rule="evenodd"/><path fill="#595959" stroke="#595959" stroke-width="1.0" stroke-linecap="butt" d="m594.4244 43.378155l4.538086 -1.6517334l-4.538086 -1.6517334z" fill-rule="evenodd"/><path fill="#000000" fill-opacity="0.0" d="m184.42319 11.613309l88.0 0l0 35.559055l-88.0 0z" fill-rule="evenodd"/><path fill="#000000" d="m213.09189 25.444557l0 7.4375l2.09375 0q0.203125 0 0.28125 0.078125q0.078125 0.0625 0.078125 0.1875q0 0.109375 -0.078125 0.1875q-0.078125 0.078125 -0.28125 0.078125l-4.71875 0q-0.1875 0 -0.28125 -0.078125q-0.078125 -0.078125 -0.078125 -0.1875q0 -0.125 0.078125 -0.1875q0.09375 -0.078125 0.28125 -0.078125l2.09375 0l0 -6.890625l-1.546875 0q-0.1875 0 -0.28125 -0.078125q-0.078125 -0.078125 -0.078125 -0.203125q0 -0.109375 0.078125 -0.1875q0.09375 -0.078125 0.28125 -0.078125l2.078125 0zm10.504395 5.234375q0 1.21875 -0.875 2.078125q-0.859375 0.859375 -2.09375 0.859375q-1.25 0 -2.125 -0.859375q-0.859375 -0.875 -0.859375 -2.078125q0 -1.21875 0.859375 -2.078125q0.875 -0.875 2.125 -0.875q1.234375 0 2.09375 0.859375q0.875 0.859375 0.875 2.09375zm-0.53125 0q0 -1.0 -0.71875 -1.703125q-0.71875 -0.703125 -1.734375 -0.703125q-1.015625 0 -1.734375 0.703125q-0.703125 0.703125 -0.703125 1.703125q0 0.984375 0.703125 1.703125q0.71875 0.703125 1.734375 0.703125q1.015625 0 1.734375 -0.703125q0.71875 -0.703125 0.71875 -1.703125zm7.1450195 -1.78125l0 -0.984375l1.25 0q0.203125 0 0.28125 0.078125q0.078125 0.078125 0.078125 0.203125q0 0.109375 -0.078125 0.1875q-0.078125 0.078125 -0.28125 0.078125l-0.703125 0l0 5.328125q0 0.53125 -0.234375 0.953125q-0.15625 0.265625 -0.515625 0.5625q-0.34375 0.3125 -0.640625 0.4375q-0.296875 0.125 -0.78125 0.125l-1.515625 0q-0.1875 0 -0.265625 -0.078125q-0.078125 -0.078125 -0.078125 -0.1875q0 -0.125 0.078125 -0.203125q0.078125 -0.078125 0.265625 -0.078125l1.53125 0.015625q0.46875 0 0.84375 -0.25q0.390625 -0.234375 0.625 -0.703125q0.140625 -0.265625 0.140625 -0.671875l0 -1.609375q-0.84375 1.171875 -2.203125 1.171875q-1.09375 0 -1.890625 -0.8125q-0.796875 -0.8125 -0.796875 -1.953125q0 -1.15625 0.796875 -1.96875q0.796875 -0.8125 1.890625 -0.8125q1.359375 0 2.203125 1.171875zm0 1.609375q0 -0.953125 -0.640625 -1.59375q-0.640625 -0.640625 -1.53125 -0.640625q-0.90625 0 -1.546875 0.65625q-0.640625 0.640625 -0.640625 1.578125q0 0.9375 0.640625 1.59375q0.640625 0.640625 1.546875 0.640625q0.890625 0 1.53125 -0.640625q0.640625 -0.65625 0.640625 -1.59375zm6.2856445 -5.328125l0 1.375l-0.796875 0l0 -1.375l0.796875 0zm0.015625 2.734375l0 4.96875l2.09375 0q0.1875 0 0.265625 0.078125q0.09375 0.0625 0.09375 0.1875q0 0.109375 -0.09375 0.1875q-0.078125 0.078125 -0.265625 0.078125l-4.71875 0q-0.203125 0 -0.28125 -0.078125q-0.078125 -0.078125 -0.078125 -0.1875q0 -0.125 0.078125 -0.1875q0.078125 -0.078125 0.28125 -0.078125l2.09375 0l0 -4.421875l-1.5625 0q-0.1875 0 -0.28125 -0.078125q-0.078125 -0.078125 -0.078125 -0.1875q0 -0.125 0.078125 -0.203125q0.078125 -0.078125 0.28125 -0.078125l2.09375 0zm5.7856445 0l0 0.8125q0.5625 -0.5625 1.015625 -0.78125q0.453125 -0.21875 1.015625 -0.21875q0.609375 0 1.109375 0.265625q0.359375 0.1875 0.640625 0.625q0.296875 0.4375 0.296875 0.90625l0 3.359375l0.453125 0q0.1875 0 0.265625 0.078125q0.078125 0.0625 0.078125 0.1875q0 0.109375 -0.078125 0.1875q-0.078125 0.078125 -0.265625 0.078125l-1.4375 0q-0.1875 0 -0.28125 -0.078125q-0.078125 -0.078125 -0.078125 -0.1875q0 -0.125 0.078125 -0.1875q0.09375 -0.078125 0.28125 -0.078125l0.453125 0l0 -3.265625q0 -0.578125 -0.421875 -0.953125q-0.40625 -0.390625 -1.09375 -0.390625q-0.53125 0 -0.921875 0.21875q-0.390625 0.203125 -1.109375 1.046875l0 3.34375l0.609375 0q0.1875 0 0.265625 0.078125q0.09375 0.0625 0.09375 0.1875q0 0.109375 -0.09375 0.1875q-0.078125 0.078125 -0.265625 0.078125l-1.734375 0q-0.203125 0 -0.28125 -0.078125q-0.078125 -0.078125 -0.078125 -0.1875q0 -0.125 0.078125 -0.1875q0.078125 -0.078125 0.28125 -0.078125l0.59375 0l0 -4.421875l-0.453125 0q-0.1875 0 -0.265625 -0.078125q-0.078125 -0.078125 -0.078125 -0.203125q0 -0.109375 0.078125 -0.1875q0.078125 -0.078125 0.265625 -0.078125l0.984375 0z" fill-rule="nonzero"/><path fill="#000000" fill-opacity="0.0" d="m469.48364 11.613309l100.12598 0l0 35.559055l-100.12598 0z" fill-rule="evenodd"/><path fill="#000000" d="m486.22778 28.897682l0 -0.984375l1.25 0q0.203125 0 0.28125 0.078125q0.078125 0.078125 0.078125 0.203125q0 0.109375 -0.078125 0.1875q-0.078125 0.078125 -0.28125 0.078125l-0.703125 0l0 5.328125q0 0.53125 -0.234375 0.953125q-0.15625 0.265625 -0.515625 0.5625q-0.34375 0.3125 -0.640625 0.4375q-0.296875 0.125 -0.78125 0.125l-1.515625 0q-0.1875 0 -0.265625 -0.078125q-0.078125 -0.078125 -0.078125 -0.1875q0 -0.125 0.078125 -0.203125q0.078125 -0.078125 0.265625 -0.078125l1.53125 0.015625q0.46875 0 0.84375 -0.25q0.390625 -0.234375 0.625 -0.703125q0.140625 -0.265625 0.140625 -0.671875l0 -1.609375q-0.84375 1.171875 -2.203125 1.171875q-1.09375 0 -1.890625 -0.8125q-0.796875 -0.8125 -0.796875 -1.953125q0 -1.15625 0.796875 -1.96875q0.796875 -0.8125 1.890625 -0.8125q1.359375 0 2.203125 1.171875zm0 1.609375q0 -0.953125 -0.640625 -1.59375q-0.640625 -0.640625 -1.53125 -0.640625q-0.90625 0 -1.546875 0.65625q-0.640625 0.640625 -0.640625 1.578125q0 0.9375 0.640625 1.59375q0.640625 0.640625 1.546875 0.640625q0.890625 0 1.53125 -0.640625q0.640625 -0.65625 0.640625 -1.59375zm8.89502 0.28125l-5.421875 0q0.125 1.03125 0.859375 1.671875q0.734375 0.625 1.796875 0.625q0.59375 0 1.25 -0.1875q0.65625 -0.203125 1.0625 -0.53125q0.125 -0.09375 0.21875 -0.09375q0.09375 0 0.171875 0.078125q0.078125 0.078125 0.078125 0.1875q0 0.109375 -0.09375 0.21875q-0.3125 0.3125 -1.09375 0.59375q-0.765625 0.265625 -1.59375 0.265625q-1.375 0 -2.296875 -0.890625q-0.90625 -0.90625 -0.90625 -2.171875q0 -1.171875 0.859375 -2.0q0.859375 -0.828125 2.125 -0.828125q1.3125 0 2.15625 0.859375q0.84375 0.84375 0.828125 2.203125zm-0.53125 -0.53125q-0.15625 -0.890625 -0.84375 -1.4375q-0.671875 -0.546875 -1.609375 -0.546875q-0.921875 0 -1.59375 0.546875q-0.671875 0.53125 -0.84375 1.4375l4.890625 0zm4.3637695 -2.34375l2.890625 0q0.1875 0 0.265625 0.078125q0.09375 0.078125 0.09375 0.203125q0 0.109375 -0.09375 0.1875q-0.078125 0.078125 -0.265625 0.078125l-2.890625 0l0 3.546875q0 0.453125 0.359375 0.765625q0.375 0.3125 1.09375 0.3125q0.546875 0 1.171875 -0.15625q0.625 -0.15625 0.96875 -0.359375q0.125 -0.09375 0.21875 -0.09375q0.09375 0 0.171875 0.078125q0.078125 0.078125 0.078125 0.1875q0 0.09375 -0.078125 0.1875q-0.203125 0.203125 -1.0 0.453125q-0.78125 0.234375 -1.5 0.234375q-0.921875 0 -1.484375 -0.4375q-0.546875 -0.4375 -0.546875 -1.171875l0 -3.546875l-0.984375 0q-0.1875 0 -0.28125 -0.078125q-0.078125 -0.078125 -0.078125 -0.203125q0 -0.109375 0.078125 -0.1875q0.09375 -0.078125 0.28125 -0.078125l0.984375 0l0 -1.578125q0 -0.1875 0.078125 -0.265625q0.078125 -0.078125 0.1875 -0.078125q0.125 0 0.203125 0.078125q0.078125 0.078125 0.078125 0.265625l0 1.578125zm14.680664 0l0 0.96875q0.484375 -0.578125 1.015625 -0.859375q0.546875 -0.296875 1.296875 -0.296875q0.78125 0 1.453125 0.375q0.671875 0.359375 1.03125 1.015625q0.359375 0.65625 0.359375 1.390625q0 1.140625 -0.828125 1.953125q-0.8125 0.8125 -2.015625 0.8125q-1.421875 0 -2.3125 -1.15625l0 3.21875l1.296875 0q0.1875 0 0.265625 0.0625q0.09375 0.078125 0.09375 0.203125q0 0.109375 -0.09375 0.1875q-0.078125 0.078125 -0.265625 0.078125l-2.546875 0q-0.1875 0 -0.28125 -0.078125q-0.078125 -0.078125 -0.078125 -0.1875q0 -0.125 0.078125 -0.203125q0.09375 -0.0625 0.28125 -0.0625l0.71875 0l0 -6.875l-0.71875 0q-0.1875 0 -0.28125 -0.078125q-0.078125 -0.078125 -0.078125 -0.203125q0 -0.109375 0.078125 -0.1875q0.09375 -0.078125 0.28125 -0.078125l1.25 0zm4.625 2.59375q0 -0.921875 -0.671875 -1.578125q-0.671875 -0.65625 -1.640625 -0.65625q-0.96875 0 -1.640625 0.65625q-0.671875 0.65625 -0.671875 1.578125q0 0.90625 0.671875 1.578125q0.671875 0.65625 1.640625 0.65625q0.96875 0 1.640625 -0.65625q0.671875 -0.65625 0.671875 -1.578125zm7.0043945 2.90625l0 -0.78125q-1.078125 0.984375 -2.359375 0.984375q-0.78125 0 -1.1875 -0.421875q-0.515625 -0.5625 -0.515625 -1.296875l0 -3.4375l-0.71875 0q-0.1875 0 -0.28125 -0.078125q-0.078125 -0.078125 -0.078125 -0.203125q0 -0.109375 0.078125 -0.1875q0.09375 -0.078125 0.28125 -0.078125l1.25 0l0 3.984375q0 0.515625 0.328125 0.859375q0.328125 0.328125 0.828125 0.328125q1.296875 0 2.375 -1.1875l0 -3.4375l-0.984375 0q-0.1875 0 -0.265625 -0.078125q-0.078125 -0.078125 -0.078125 -0.203125q0 -0.109375 0.078125 -0.1875q0.078125 -0.078125 0.265625 -0.078125l1.53125 0l0 4.96875l0.4375 0q0.203125 0 0.28125 0.078125q0.078125 0.0625 0.078125 0.1875q0 0.109375 -0.078125 0.1875q-0.078125 0.078125 -0.28125 0.078125l-0.984375 0zm3.9731445 -7.96875l0 3.53125q0.96875 -1.25 2.328125 -1.25q1.171875 0 2.0 0.84375q0.828125 0.84375 0.828125 2.078125q0 1.25 -0.84375 2.109375q-0.828125 0.859375 -1.984375 0.859375q-1.390625 0 -2.328125 -1.25l0 1.046875l-1.25 0q-0.1875 0 -0.28125 -0.078125q-0.078125 -0.078125 -0.078125 -0.1875q0 -0.125 0.078125 -0.1875q0.09375 -0.078125 0.28125 -0.078125l0.71875 0l0 -6.890625l-0.71875 0q-0.1875 0 -0.28125 -0.078125q-0.078125 -0.078125 -0.078125 -0.203125q0 -0.109375 0.078125 -0.1875q0.09375 -0.078125 0.28125 -0.078125l1.25 0zm4.625 5.234375q0 -1.015625 -0.6875 -1.703125q-0.6875 -0.703125 -1.625 -0.703125q-0.921875 0 -1.625 0.703125q-0.6875 0.6875 -0.6875 1.703125q0 1.0 0.6875 1.703125q0.703125 0.703125 1.625 0.703125q0.9375 0 1.625 -0.703125q0.6875 -0.703125 0.6875 -1.703125zm4.0981445 0.359375l0 2.375l-1.25 0q-0.1875 0 -0.265625 -0.078125q-0.078125 -0.078125 -0.078125 -0.1875q0 -0.125 0.078125 -0.1875q0.078125 -0.078125 0.265625 -0.078125l0.71875 0l0 -6.890625l-0.71875 0q-0.1875 0 -0.265625 -0.078125q-0.078125 -0.078125 -0.078125 -0.203125q0 -0.109375 0.078125 -0.1875q0.078125 -0.078125 0.265625 -0.078125l1.25 0l0 4.921875l2.265625 -1.90625l-0.265625 0q-0.1875 0 -0.28125 -0.078125q-0.078125 -0.078125 -0.078125 -0.1875q0 -0.125 0.078125 -0.203125q0.09375 -0.078125 0.28125 -0.078125l1.703125 0q0.203125 0 0.28125 0.078125q0.078125 0.078125 0.078125 0.203125q0 0.109375 -0.078125 0.1875q-0.078125 0.078125 -0.28125 0.078125l-0.609375 0l-2.078125 1.734375l2.625 2.6875l0.625 0q0.1875 0 0.265625 0.078125q0.09375 0.0625 0.09375 0.1875q0 0.109375 -0.09375 0.1875q-0.078125 0.078125 -0.265625 0.078125l-1.734375 0q-0.1875 0 -0.28125 -0.078125q-0.078125 -0.078125 -0.078125 -0.1875q0 -0.125 0.078125 -0.1875q0.09375 -0.078125 0.28125 -0.078125l0.375 0l-2.296875 -2.359375l-0.609375 0.515625zm11.77002 -0.25l-5.421875 0q0.125 1.03125 0.859375 1.671875q0.734375 0.625 1.796875 0.625q0.59375 0 1.25 -0.1875q0.65625 -0.203125 1.0625 -0.53125q0.125 -0.09375 0.21875 -0.09375q0.09375 0 0.171875 0.078125q0.078125 0.078125 0.078125 0.1875q0 0.109375 -0.09375 0.21875q-0.3125 0.3125 -1.09375 0.59375q-0.765625 0.265625 -1.59375 0.265625q-1.375 0 -2.296875 -0.890625q-0.90625 -0.90625 -0.90625 -2.171875q0 -1.171875 0.859375 -2.0q0.859375 -0.828125 2.125 -0.828125q1.3125 0 2.15625 0.859375q0.84375 0.84375 0.828125 2.203125zm-0.53125 -0.53125q-0.15625 -0.890625 -0.84375 -1.4375q-0.671875 -0.546875 -1.609375 -0.546875q-0.921875 0 -1.59375 0.546875q-0.671875 0.53125 -0.84375 1.4375l4.890625 0zm5.4887695 3.15625l-2.484375 -4.953125l-0.15625 0q-0.1875 0 -0.265625 -0.078125q-0.078125 -0.078125 -0.078125 -0.1875q0 -0.09375 0.03125 -0.15625q0.046875 -0.0625 0.109375 -0.09375q0.0625 -0.03125 0.203125 -0.03125l1.46875 0q0.1875 0 0.265625 0.078125q0.078125 0.078125 0.078125 0.203125q0 0.109375 -0.078125 0.1875q-0.078125 0.078125 -0.265625 0.078125l-0.71875 0l2.171875 4.375l2.140625 -4.375l-0.703125 0q-0.203125 0 -0.28125 -0.078125q-0.078125 -0.078125 -0.078125 -0.203125q0 -0.109375 0.078125 -0.1875q0.078125 -0.078125 0.28125 -0.078125l1.453125 0q0.1875 0 0.265625 0.078125q0.09375 0.078125 0.09375 0.203125q0 0.078125 -0.0625 0.15625q-0.046875 0.0625 -0.109375 0.09375q-0.0625 0.015625 -0.359375 0.015625l-3.375 6.875l0.84375 0q0.1875 0 0.265625 0.0625q0.078125 0.078125 0.078125 0.203125q0 0.109375 -0.078125 0.1875q-0.078125 0.078125 -0.265625 0.078125l-3.078125 0q-0.1875 0 -0.28125 -0.078125q-0.078125 -0.078125 -0.078125 -0.1875q0 -0.125 0.078125 -0.203125q0.09375 -0.0625 0.28125 -0.0625l1.671875 0l0.9375 -1.921875z" fill-rule="nonzero"/><path fill="#000000" fill-opacity="0.0" d="m288.4232 83.756226l159.87402 0l0 35.55905l-159.87402 0z" fill-rule="evenodd"/><path fill="#000000" d="m305.9869 105.55622l-2.484375 -4.953125l-0.15625 0q-0.1875 0 -0.265625 -0.078125q-0.078125 -0.078125 -0.078125 -0.1875q0 -0.09375 0.03125 -0.15625q0.046875 -0.0625 0.109375 -0.09375q0.0625 -0.03125 0.203125 -0.03125l1.46875 0q0.1875 0 0.265625 0.078125q0.078125 0.078125 0.078125 0.203125q0 0.109375 -0.078125 0.1875q-0.078125 0.078125 -0.265625 0.078125l-0.71875 0l2.171875 4.375l2.140625 -4.375l-0.703125 0q-0.203125 0 -0.28125 -0.078125q-0.078125 -0.078125 -0.078125 -0.203125q0 -0.109375 0.078125 -0.1875q0.078125 -0.078125 0.28125 -0.078125l1.453125 0q0.1875 0 0.265625 0.078125q0.09375 0.078125 0.09375 0.203125q0 0.078125 -0.0625 0.15625q-0.046875 0.0625 -0.109375 0.09375q-0.0625 0.015625 -0.359375 0.015625l-3.375 6.875l0.84375 0q0.1875 0 0.265625 0.0625q0.078125 0.078125 0.078125 0.203125q0 0.109375 -0.078125 0.1875q-0.078125 0.078125 -0.265625 0.078125l-3.078125 0q-0.1875 0 -0.28125 -0.078125q-0.078125 -0.078125 -0.078125 -0.1875q0 -0.125 0.078125 -0.203125q0.09375 -0.0625 0.28125 -0.0625l1.671875 0l0.9375 -1.921875zm10.73877 -2.734375q0 1.21875 -0.875 2.078125q-0.859375 0.859375 -2.09375 0.859375q-1.25 0 -2.125 -0.859375q-0.859375 -0.875 -0.859375 -2.078125q0 -1.21875 0.859375 -2.078125q0.875 -0.875 2.125 -0.875q1.234375 0 2.09375 0.859375q0.875 0.859375 0.875 2.09375zm-0.53125 0q0 -1.0 -0.71875 -1.703125q-0.71875 -0.703125 -1.734375 -0.703125q-1.015625 0 -1.734375 0.703125q-0.703125 0.703125 -0.703125 1.703125q0 0.984375 0.703125 1.703125q0.71875 0.703125 1.734375 0.703125q1.015625 0 1.734375 -0.703125q0.71875 -0.703125 0.71875 -1.703125zm7.1762695 2.734375l0 -0.78125q-1.078125 0.984375 -2.359375 0.984375q-0.78125 0 -1.1875 -0.421875q-0.515625 -0.5625 -0.515625 -1.296875l0 -3.4375l-0.71875 0q-0.1875 0 -0.28125 -0.078125q-0.078125 -0.078125 -0.078125 -0.203125q0 -0.109375 0.078125 -0.1875q0.09375 -0.078125 0.28125 -0.078125l1.25 0l0 3.984375q0 0.515625 0.328125 0.859375q0.328125 0.328125 0.828125 0.328125q1.296875 0 2.375 -1.1875l0 -3.4375l-0.984375 0q-0.1875 0 -0.265625 -0.078125q-0.078125 -0.078125 -0.078125 -0.203125q0 -0.109375 0.078125 -0.1875q0.078125 -0.078125 0.265625 -0.078125l1.53125 0l0 4.96875l0.4375 0q0.203125 0 0.28125 0.078125q0.078125 0.0625 0.078125 0.1875q0 0.109375 -0.078125 0.1875q-0.078125 0.078125 -0.28125 0.078125l-0.984375 0zm5.3481445 -5.5l0 1.34375q1.03125 -0.9375 1.546875 -1.203125q0.53125 -0.265625 0.96875 -0.265625q0.46875 0 0.875 0.328125q0.421875 0.3125 0.421875 0.46875q0 0.125 -0.09375 0.203125q-0.078125 0.078125 -0.1875 0.078125q-0.0625 0 -0.109375 -0.015625q-0.046875 -0.03125 -0.171875 -0.140625q-0.21875 -0.234375 -0.390625 -0.3125q-0.15625 -0.078125 -0.3125 -0.078125q-0.359375 0 -0.859375 0.28125q-0.484375 0.28125 -1.6875 1.359375l0 2.921875l2.359375 0q0.203125 0 0.28125 0.078125q0.078125 0.0625 0.078125 0.1875q0 0.109375 -0.078125 0.1875q-0.078125 0.078125 -0.28125 0.078125l-4.1875 0q-0.1875 0 -0.28125 -0.0625q-0.078125 -0.078125 -0.078125 -0.203125q0 -0.109375 0.078125 -0.171875q0.09375 -0.078125 0.28125 -0.078125l1.296875 0l0 -4.4375l-0.984375 0q-0.1875 0 -0.28125 -0.078125q-0.078125 -0.078125 -0.078125 -0.203125q0 -0.109375 0.078125 -0.1875q0.078125 -0.078125 0.28125 -0.078125l1.515625 0zm18.85254 -2.46875l0 7.4375l0.703125 0q0.203125 0 0.28125 0.078125q0.078125 0.0625 0.078125 0.1875q0 0.109375 -0.078125 0.1875q-0.078125 0.078125 -0.28125 0.078125l-1.25 0l0 -1.0625q-0.921875 1.265625 -2.34375 1.265625q-0.734375 0 -1.40625 -0.375q-0.65625 -0.390625 -1.046875 -1.09375q-0.375 -0.71875 -0.375 -1.46875q0 -0.765625 0.375 -1.46875q0.390625 -0.703125 1.046875 -1.09375q0.671875 -0.390625 1.40625 -0.390625q1.390625 0 2.34375 1.265625l0 -3.0l-0.703125 0q-0.203125 0 -0.28125 -0.078125q-0.078125 -0.078125 -0.078125 -0.203125q0 -0.109375 0.078125 -0.1875q0.078125 -0.078125 0.28125 -0.078125l1.25 0zm-0.546875 5.234375q0 -1.015625 -0.6875 -1.703125q-0.671875 -0.703125 -1.625 -0.703125q-0.953125 0 -1.640625 0.703125q-0.6875 0.6875 -0.6875 1.703125q0 1.0 0.6875 1.703125q0.6875 0.703125 1.640625 0.703125q0.953125 0 1.625 -0.703125q0.6875 -0.703125 0.6875 -1.703125zm8.61377 0.109375l-5.421875 0q0.125 1.03125 0.859375 1.671875q0.734375 0.625 1.796875 0.625q0.59375 0 1.25 -0.1875q0.65625 -0.203125 1.0625 -0.53125q0.125 -0.09375 0.21875 -0.09375q0.09375 0 0.171875 0.078125q0.078125 0.078125 0.078125 0.1875q0 0.109375 -0.09375 0.21875q-0.3125 0.3125 -1.09375 0.59375q-0.765625 0.265625 -1.59375 0.265625q-1.375 0 -2.296875 -0.890625q-0.90625 -0.90625 -0.90625 -2.171875q0 -1.171875 0.859375 -2.0q0.859375 -0.828125 2.125 -0.828125q1.3125 0 2.15625 0.859375q0.84375 0.84375 0.828125 2.203125zm-0.53125 -0.53125q-0.15625 -0.890625 -0.84375 -1.4375q-0.671875 -0.546875 -1.609375 -0.546875q-0.921875 0 -1.59375 0.546875q-0.671875 0.53125 -0.84375 1.4375l4.890625 0zm5.9262695 3.15625l-0.90625 0l-2.1875 -4.953125l-0.546875 0q-0.1875 0 -0.28125 -0.078125q-0.078125 -0.078125 -0.078125 -0.203125q0 -0.109375 0.078125 -0.1875q0.09375 -0.078125 0.28125 -0.078125l2.0 0q0.1875 0 0.265625 0.078125q0.078125 0.078125 0.078125 0.203125q0 0.109375 -0.078125 0.1875q-0.078125 0.078125 -0.265625 0.078125l-0.890625 0l1.953125 4.421875l0.234375 0l1.921875 -4.421875l-0.890625 0q-0.1875 0 -0.28125 -0.078125q-0.078125 -0.078125 -0.078125 -0.203125q0 -0.109375 0.078125 -0.1875q0.09375 -0.078125 0.28125 -0.078125l2.015625 0q0.1875 0 0.265625 0.078125q0.078125 0.078125 0.078125 0.203125q0 0.109375 -0.078125 0.1875q-0.078125 0.078125 -0.265625 0.078125l-0.546875 0l-2.15625 4.953125zm7.5981445 -8.234375l0 1.375l-0.796875 0l0 -1.375l0.796875 0zm0.015625 2.734375l0 4.96875l2.09375 0q0.1875 0 0.265625 0.078125q0.09375 0.0625 0.09375 0.1875q0 0.109375 -0.09375 0.1875q-0.078125 0.078125 -0.265625 0.078125l-4.71875 0q-0.203125 0 -0.28125 -0.078125q-0.078125 -0.078125 -0.078125 -0.1875q0 -0.125 0.078125 -0.1875q0.078125 -0.078125 0.28125 -0.078125l2.09375 0l0 -4.421875l-1.5625 0q-0.1875 0 -0.28125 -0.078125q-0.078125 -0.078125 -0.078125 -0.1875q0 -0.125 0.078125 -0.203125q0.078125 -0.078125 0.28125 -0.078125l2.09375 0zm9.73877 0.546875l0 -0.1875q0 -0.1875 0.078125 -0.265625q0.078125 -0.09375 0.1875 -0.09375q0.125 0 0.203125 0.09375q0.078125 0.078125 0.078125 0.265625l0 1.21875q-0.015625 0.1875 -0.09375 0.28125q-0.0625 0.078125 -0.1875 0.078125q-0.109375 0 -0.1875 -0.078125q-0.0625 -0.078125 -0.078125 -0.25q-0.03125 -0.4375 -0.59375 -0.84375q-0.546875 -0.40625 -1.5 -0.40625q-1.1875 0 -1.796875 0.75q-0.609375 0.734375 -0.609375 1.6875q0 1.03125 0.671875 1.703125q0.6875 0.671875 1.765625 0.671875q0.609375 0 1.25 -0.21875q0.65625 -0.234375 1.171875 -0.734375q0.140625 -0.140625 0.234375 -0.140625q0.109375 0 0.171875 0.078125q0.078125 0.078125 0.078125 0.1875q0 0.265625 -0.640625 0.6875q-1.03125 0.671875 -2.296875 0.671875q-1.28125 0 -2.125 -0.8125q-0.828125 -0.828125 -0.828125 -2.09375q0 -1.28125 0.84375 -2.125q0.859375 -0.859375 2.140625 -0.859375q1.234375 0 2.0625 0.734375zm8.45752 2.328125l-5.421875 0q0.125 1.03125 0.859375 1.671875q0.734375 0.625 1.796875 0.625q0.59375 0 1.25 -0.1875q0.65625 -0.203125 1.0625 -0.53125q0.125 -0.09375 0.21875 -0.09375q0.09375 0 0.171875 0.078125q0.078125 0.078125 0.078125 0.1875q0 0.109375 -0.09375 0.21875q-0.3125 0.3125 -1.09375 0.59375q-0.765625 0.265625 -1.59375 0.265625q-1.375 0 -2.296875 -0.890625q-0.90625 -0.90625 -0.90625 -2.171875q0 -1.171875 0.859375 -2.0q0.859375 -0.828125 2.125 -0.828125q1.3125 0 2.15625 0.859375q0.84375 0.84375 0.828125 2.203125zm-0.53125 -0.53125q-0.15625 -0.890625 -0.84375 -1.4375q-0.671875 -0.546875 -1.609375 -0.546875q-0.921875 0 -1.59375 0.546875q-0.671875 0.53125 -0.84375 1.4375l4.890625 0zm12.899414 -1.796875l0 4.421875l2.34375 0q0.1875 0 0.265625 0.078125q0.09375 0.0625 0.09375 0.1875q0 0.109375 -0.09375 0.1875q-0.078125 0.078125 -0.265625 0.078125l-4.171875 0q-0.1875 0 -0.28125 -0.078125q-0.078125 -0.078125 -0.078125 -0.1875q0 -0.125 0.078125 -0.1875q0.09375 -0.078125 0.28125 -0.078125l1.296875 0l0 -4.421875l-1.15625 0q-0.203125 0 -0.28125 -0.078125q-0.078125 -0.078125 -0.078125 -0.203125q0 -0.109375 0.078125 -0.1875q0.078125 -0.078125 0.28125 -0.078125l1.15625 0l0 -0.796875q0 -0.671875 0.53125 -1.171875q0.546875 -0.5 1.453125 -0.5q0.75 0 1.609375 0.140625q0.328125 0.046875 0.390625 0.125q0.078125 0.0625 0.078125 0.1875q0 0.109375 -0.078125 0.1875q-0.078125 0.0625 -0.203125 0.0625q-0.0625 0 -0.171875 -0.015625q-0.96875 -0.140625 -1.625 -0.140625q-0.703125 0 -1.078125 0.34375q-0.375 0.34375 -0.375 0.78125l0 0.796875l2.5 0q0.1875 0 0.265625 0.078125q0.09375 0.078125 0.09375 0.203125q0 0.109375 -0.09375 0.1875q-0.078125 0.078125 -0.265625 0.078125l-2.5 0zm8.42627 -3.015625l0 7.4375l2.09375 0q0.203125 0 0.28125 0.078125q0.078125 0.0625 0.078125 0.1875q0 0.109375 -0.078125 0.1875q-0.078125 0.078125 -0.28125 0.078125l-4.71875 0q-0.1875 0 -0.28125 -0.078125q-0.078125 -0.078125 -0.078125 -0.1875q0 -0.125 0.078125 -0.1875q0.09375 -0.078125 0.28125 -0.078125l2.09375 0l0 -6.890625l-1.546875 0q-0.1875 0 -0.28125 -0.078125q-0.078125 -0.078125 -0.078125 -0.203125q0 -0.109375 0.078125 -0.1875q0.09375 -0.078125 0.28125 -0.078125l2.078125 0zm10.410645 5.34375l-5.421875 0q0.125 1.03125 0.859375 1.671875q0.734375 0.625 1.796875 0.625q0.59375 0 1.25 -0.1875q0.65625 -0.203125 1.0625 -0.53125q0.125 -0.09375 0.21875 -0.09375q0.09375 0 0.171875 0.078125q0.078125 0.078125 0.078125 0.1875q0 0.109375 -0.09375 0.21875q-0.3125 0.3125 -1.09375 0.59375q-0.765625 0.265625 -1.59375 0.265625q-1.375 0 -2.296875 -0.890625q-0.90625 -0.90625 -0.90625 -2.171875q0 -1.171875 0.859375 -2.0q0.859375 -0.828125 2.125 -0.828125q1.3125 0 2.15625 0.859375q0.84375 0.84375 0.828125 2.203125zm-0.53125 -0.53125q-0.15625 -0.890625 -0.84375 -1.4375q-0.671875 -0.546875 -1.609375 -0.546875q-0.921875 0 -1.59375 0.546875q-0.671875 0.53125 -0.84375 1.4375l4.890625 0zm8.33252 0.53125l-5.421875 0q0.125 1.03125 0.859375 1.671875q0.734375 0.625 1.796875 0.625q0.59375 0 1.25 -0.1875q0.65625 -0.203125 1.0625 -0.53125q0.125 -0.09375 0.21875 -0.09375q0.09375 0 0.171875 0.078125q0.078125 0.078125 0.078125 0.1875q0 0.109375 -0.09375 0.21875q-0.3125 0.3125 -1.09375 0.59375q-0.765625 0.265625 -1.59375 0.265625q-1.375 0 -2.296875 -0.890625q-0.90625 -0.90625 -0.90625 -2.171875q0 -1.171875 0.859375 -2.0q0.859375 -0.828125 2.125 -0.828125q1.3125 0 2.15625 0.859375q0.84375 0.84375 0.828125 2.203125zm-0.53125 -0.53125q-0.15625 -0.890625 -0.84375 -1.4375q-0.671875 -0.546875 -1.609375 -0.546875q-0.921875 0 -1.59375 0.546875q-0.671875 0.53125 -0.84375 1.4375l4.890625 0zm4.3637695 -2.34375l2.890625 0q0.1875 0 0.265625 0.078125q0.09375 0.078125 0.09375 0.203125q0 0.109375 -0.09375 0.1875q-0.078125 0.078125 -0.265625 0.078125l-2.890625 0l0 3.546875q0 0.453125 0.359375 0.765625q0.375 0.3125 1.09375 0.3125q0.546875 0 1.171875 -0.15625q0.625 -0.15625 0.96875 -0.359375q0.125 -0.09375 0.21875 -0.09375q0.09375 0 0.171875 0.078125q0.078125 0.078125 0.078125 0.1875q0 0.09375 -0.078125 0.1875q-0.203125 0.203125 -1.0 0.453125q-0.78125 0.234375 -1.5 0.234375q-0.921875 0 -1.484375 -0.4375q-0.546875 -0.4375 -0.546875 -1.171875l0 -3.546875l-0.984375 0q-0.1875 0 -0.28125 -0.078125q-0.078125 -0.078125 -0.078125 -0.203125q0 -0.109375 0.078125 -0.1875q0.09375 -0.078125 0.28125 -0.078125l0.984375 0l0 -1.578125q0 -0.1875 0.078125 -0.265625q0.078125 -0.078125 0.1875 -0.078125q0.125 0 0.203125 0.078125q0.078125 0.078125 0.078125 0.265625l0 1.578125z" fill-rule="nonzero"/></g></svg>